<svg width="1964" height="907" viewBox="0 0 1964 907" fill="none" xmlns="http://www.w3.org/2000/svg">
<g clip-path="url(#clip0_1040_3457)">
<path d="M100 181.6C100 136.534 136.534 100 181.6 100H304C416.666 100 508 191.334 508 304C508 416.666 416.666 508 304 508C191.334 508 100 416.666 100 304V181.6Z" fill="url(#paint0_linear_1040_3457)"/>
<path fill-rule="evenodd" clip-rule="evenodd" d="M204.448 100H256.672V204.448H366.167C412.051 204.448 449.248 241.645 449.248 287.529C449.248 376.844 376.844 449.248 287.529 449.248C241.645 449.248 204.448 412.051 204.448 366.167V256.672H100L100 204.448L204.448 204.448V100ZM256.672 256.672V366.167C256.672 383.209 270.487 397.024 287.529 397.024C348.001 397.024 397.024 348.001 397.024 287.529C397.024 270.487 383.209 256.672 366.167 256.672H256.672Z" fill="white" fill-opacity="0.5"/>
<path d="M256.672 150.592C256.672 136.171 244.981 124.48 230.56 124.48C216.139 124.48 204.448 136.171 204.448 150.592L204.448 204.448H150.592C136.171 204.448 124.48 216.139 124.48 230.56C124.48 244.981 136.171 256.672 150.592 256.672H204.448V310.528C204.448 324.949 216.139 336.64 230.56 336.64C244.981 336.64 256.672 324.949 256.672 310.528V256.672H310.528C324.949 256.672 336.64 244.981 336.64 230.56C336.64 216.139 324.949 204.448 310.528 204.448H256.672L256.672 150.592Z" fill="white" fill-opacity="0.7"/>
<path d="M312.82 226.23C316.153 228.154 316.153 232.966 312.82 234.89L298.444 243.19C295.111 245.115 290.944 242.709 290.944 238.86L290.944 222.26C290.944 218.411 295.111 216.005 298.444 217.93L312.82 226.23Z" fill="white"/>
<path d="M234.89 312.82C232.966 316.153 228.154 316.153 226.23 312.82L217.93 298.444C216.005 295.111 218.411 290.944 222.26 290.944L238.86 290.944C242.709 290.944 245.115 295.111 243.19 298.444L234.89 312.82Z" fill="white"/>
<path d="M226.23 148.3C228.154 144.967 232.966 144.967 234.89 148.3L243.19 162.676C245.115 166.009 242.709 170.176 238.86 170.176H222.26C218.411 170.176 216.005 166.009 217.93 162.676L226.23 148.3Z" fill="white"/>
<path d="M148.3 234.89C144.967 232.966 144.967 228.154 148.3 226.23L162.676 217.93C166.009 216.005 170.176 218.411 170.176 222.26L170.176 238.86C170.176 242.709 166.009 245.115 162.676 243.19L148.3 234.89Z" fill="white"/>
<path d="M690.025 446.835C670.005 446.835 652.295 442.6 636.895 434.13C621.495 425.66 609.432 413.597 600.705 397.94C592.235 382.027 588 363.29 588 341.73V161.165H632.275V275.51H632.66C636.767 268.58 642.157 262.548 648.83 257.415C655.503 252.282 662.947 248.303 671.16 245.48C679.373 242.657 688.1 241.245 697.34 241.245C716.077 241.245 732.503 245.48 746.62 253.95C760.993 262.163 772.158 273.713 780.115 288.6C788.328 303.487 792.435 320.94 792.435 340.96C792.435 356.617 789.997 370.99 785.12 384.08C780.5 396.913 773.698 408.078 764.715 417.575C755.988 427.072 745.337 434.387 732.76 439.52C720.183 444.397 705.938 446.835 690.025 446.835ZM690.025 409.105C701.318 409.105 711.328 406.41 720.055 401.02C728.782 395.373 735.583 387.673 740.46 377.92C745.337 368.167 747.775 356.873 747.775 344.04C747.775 331.463 745.337 320.298 740.46 310.545C735.583 300.792 728.782 293.092 720.055 287.445C711.585 281.798 701.703 278.975 690.41 278.975C679.117 278.975 669.107 281.798 660.38 287.445C651.653 292.835 644.852 300.407 639.975 310.16C635.098 319.913 632.66 331.207 632.66 344.04C632.66 356.873 635.098 368.167 639.975 377.92C644.852 387.673 651.653 395.373 660.38 401.02C669.107 406.41 678.988 409.105 690.025 409.105Z" fill="white"/>
<path d="M902.446 446.835C883.709 446.835 867.539 442.215 853.936 432.975C840.332 423.735 829.809 411.415 822.366 396.015C815.179 380.358 811.586 363.162 811.586 344.425C811.586 324.918 815.692 307.465 823.906 292.065C832.376 276.408 844.311 264.088 859.711 255.105C875.367 245.865 893.976 241.245 915.536 241.245C936.839 241.245 954.934 245.865 969.821 255.105C984.964 264.088 996.514 276.408 1004.47 292.065C1012.68 307.465 1016.79 324.662 1016.79 343.655V442.215H972.516V405.64H971.746C967.896 412.827 962.891 419.628 956.731 426.045C950.571 432.205 942.999 437.21 934.016 441.06C925.032 444.91 914.509 446.835 902.446 446.835ZM914.381 409.105C925.931 409.105 935.941 406.282 944.411 400.635C953.137 394.732 959.811 386.903 964.431 377.15C969.307 367.14 971.746 355.975 971.746 343.655C971.746 331.335 969.436 320.427 964.816 310.93C960.196 301.177 953.651 293.477 945.181 287.83C936.711 281.927 926.572 278.975 914.766 278.975C902.446 278.975 891.922 281.927 883.196 287.83C874.469 293.477 867.796 301.177 863.176 310.93C858.556 320.683 856.246 331.72 856.246 344.04C856.246 356.103 858.556 367.14 863.176 377.15C867.796 386.903 874.341 394.732 882.811 400.635C891.537 406.282 902.061 409.105 914.381 409.105Z" fill="white"/>
<path d="M1090.17 442.215C1081.7 442.215 1074.13 440.162 1067.46 436.055C1060.78 431.948 1055.39 426.43 1051.29 419.5C1047.44 412.57 1045.51 404.998 1045.51 396.785C1045.51 388.572 1047.57 381.128 1051.67 374.455C1055.78 367.782 1061.43 362.007 1068.61 357.13L1154.08 301.305C1156.65 300.022 1158.19 298.61 1158.7 297.07C1159.47 295.53 1159.86 293.99 1159.86 292.45C1159.86 290.14 1158.96 288.087 1157.16 286.29C1155.62 284.493 1153.44 283.595 1150.62 283.595H1055.14V245.865H1163.71C1172.18 245.865 1179.62 247.918 1186.04 252.025C1192.71 256.132 1197.97 261.65 1201.82 268.58C1205.93 275.51 1207.98 283.082 1207.98 291.295C1207.98 299.508 1205.93 306.952 1201.82 313.625C1197.72 320.298 1192.07 326.073 1184.88 330.95L1099.8 386.775C1097.49 388.058 1095.82 389.47 1094.79 391.01C1094.02 392.55 1093.64 394.09 1093.64 395.63C1093.64 397.94 1094.54 399.993 1096.33 401.79C1098.13 403.587 1100.44 404.485 1103.26 404.485H1204.13V442.215H1090.17Z" fill="white"/>
<path d="M1274.13 442.215C1265.66 442.215 1258.09 440.162 1251.42 436.055C1244.74 431.948 1239.35 426.43 1235.25 419.5C1231.4 412.57 1229.47 404.998 1229.47 396.785C1229.47 388.572 1231.52 381.128 1235.63 374.455C1239.74 367.782 1245.38 362.007 1252.57 357.13L1338.04 301.305C1340.61 300.022 1342.15 298.61 1342.66 297.07C1343.43 295.53 1343.82 293.99 1343.82 292.45C1343.82 290.14 1342.92 288.087 1341.12 286.29C1339.58 284.493 1337.4 283.595 1334.58 283.595H1239.1V245.865H1347.67C1356.14 245.865 1363.58 247.918 1370 252.025C1376.67 256.132 1381.93 261.65 1385.78 268.58C1389.89 275.51 1391.94 283.082 1391.94 291.295C1391.94 299.508 1389.89 306.952 1385.78 313.625C1381.67 320.298 1376.03 326.073 1368.84 330.95L1283.76 386.775C1281.45 388.058 1279.78 389.47 1278.75 391.01C1277.98 392.55 1277.6 394.09 1277.6 395.63C1277.6 397.94 1278.49 399.993 1280.29 401.79C1282.09 403.587 1284.4 404.485 1287.22 404.485H1388.09V442.215H1274.13Z" fill="white"/>
<path d="M1437.68 442.215V245.865H1481.96V442.215H1437.68Z" fill="white"/>
<path d="M1602.82 442.215C1585.37 442.215 1571.64 437.21 1561.63 427.2C1551.87 417.19 1547 403.587 1547 386.39V196.585H1590.89V384.465C1590.89 390.368 1592.68 395.245 1596.28 399.095C1599.87 402.688 1604.62 404.485 1610.52 404.485H1651.72V442.215H1602.82ZM1513.12 283.595V245.865H1652.1V283.595H1513.12Z" fill="white"/>
<path d="M1786.29 442.215C1764.21 442.215 1744.83 438.108 1728.15 429.895C1711.72 421.425 1698.89 409.875 1689.65 395.245C1680.41 380.358 1675.79 363.29 1675.79 344.04C1675.79 323.763 1679.9 305.925 1688.11 290.525C1696.32 275.125 1707.62 263.062 1721.99 254.335C1736.36 245.608 1752.92 241.245 1771.66 241.245C1792.7 241.245 1810.03 245.737 1823.63 254.72C1837.23 263.703 1847.24 275.767 1853.66 290.91C1860.33 306.053 1863.67 322.993 1863.67 341.73C1863.67 344.297 1863.54 347.248 1863.29 350.585C1863.03 353.922 1862.64 356.488 1862.13 358.285H1722.76C1724.3 368.552 1728.02 377.15 1733.93 384.08C1739.83 390.753 1747.27 395.887 1756.26 399.48C1765.24 402.817 1775.25 404.485 1786.29 404.485H1839.03V442.215H1786.29ZM1722.38 328.255H1819.4C1819.14 323.378 1818.37 318.502 1817.09 313.625C1816.06 308.748 1814.26 304.128 1811.7 299.765C1809.39 295.402 1806.31 291.68 1802.46 288.6C1798.86 285.263 1794.5 282.697 1789.37 280.9C1784.23 278.847 1778.33 277.82 1771.66 277.82C1763.96 277.82 1757.15 279.36 1751.25 282.44C1745.35 285.263 1740.34 289.113 1736.24 293.99C1732.13 298.61 1728.92 304 1726.61 310.16C1724.56 316.063 1723.15 322.095 1722.38 328.255Z" fill="white"/>
<path d="M1439.61 210.06C1445.25 215.707 1451.93 218.53 1459.63 218.53C1467.58 218.53 1474.26 215.707 1479.65 210.06C1485.29 204.413 1488.12 197.74 1488.12 190.04C1488.12 182.34 1485.29 175.667 1479.65 170.02C1474.26 164.373 1467.58 161.55 1459.63 161.55C1451.93 161.55 1445.25 164.373 1439.61 170.02C1433.96 175.667 1431.14 182.34 1431.14 190.04C1431.14 197.74 1433.96 204.413 1439.61 210.06Z" fill="url(#paint1_linear_1040_3457)"/>
</g>
<path d="M289.626 666.336C280.752 666.336 273.072 664.416 266.586 660.576C260.186 656.651 255.237 651.232 251.738 644.32C248.325 637.323 246.618 629.259 246.618 620.128C246.618 610.912 248.325 602.848 251.738 595.936C255.237 588.939 260.186 583.477 266.586 579.552C273.072 575.627 280.752 573.664 289.626 573.664C300.293 573.664 308.997 576.309 315.738 581.6C322.48 586.805 326.746 594.187 328.538 603.744H311.642C310.448 598.709 308.016 594.741 304.346 591.84C300.677 588.939 295.728 587.488 289.498 587.488C283.866 587.488 279.002 588.811 274.906 591.456C270.896 594.016 267.781 597.771 265.562 602.72C263.429 607.584 262.362 613.387 262.362 620.128C262.362 626.869 263.429 632.672 265.562 637.536C267.781 642.315 270.896 646.027 274.906 648.672C279.002 651.232 283.866 652.512 289.498 652.512C295.728 652.512 300.677 651.189 304.346 648.544C308.016 645.813 310.448 642.059 311.642 637.28H328.538C326.832 646.325 322.565 653.451 315.738 658.656C308.997 663.776 300.293 666.336 289.626 666.336Z" fill="white"/>
<path d="M368.016 666.336C361.872 666.336 356.326 664.928 351.376 662.112C346.512 659.211 342.672 655.243 339.856 650.208C337.126 645.088 335.76 639.243 335.76 632.672C335.76 625.931 337.168 620.043 339.984 615.008C342.8 609.888 346.64 605.92 351.504 603.104C356.454 600.203 362 598.752 368.144 598.752C374.288 598.752 379.792 600.203 384.656 603.104C389.606 605.92 393.446 609.845 396.176 614.88C398.992 619.915 400.4 625.803 400.4 632.544C400.4 639.285 398.992 645.173 396.176 650.208C393.36 655.243 389.478 659.211 384.528 662.112C379.664 664.928 374.16 666.336 368.016 666.336ZM368.016 653.152C371.088 653.152 373.862 652.384 376.336 650.848C378.896 649.312 380.944 647.008 382.48 643.936C384.016 640.864 384.784 637.067 384.784 632.544C384.784 628.021 384.016 624.267 382.48 621.28C381.03 618.208 379.024 615.904 376.464 614.368C373.99 612.832 371.216 612.064 368.144 612.064C365.158 612.064 362.384 612.832 359.824 614.368C357.264 615.904 355.216 618.208 353.68 621.28C352.144 624.267 351.376 628.021 351.376 632.544C351.376 637.067 352.144 640.864 353.68 643.936C355.216 647.008 357.222 649.312 359.696 650.848C362.256 652.384 365.03 653.152 368.016 653.152Z" fill="white"/>
<path d="M410.316 664.8V600.288H423.884L425.036 611.04C426.999 607.285 429.815 604.299 433.484 602.08C437.154 599.861 441.506 598.752 446.54 598.752C451.746 598.752 456.183 599.861 459.852 602.08C463.522 604.213 466.338 607.371 468.3 611.552C470.348 615.733 471.372 620.939 471.372 627.168V664.8H456.012V628.576C456.012 623.2 454.818 619.061 452.428 616.16C450.039 613.259 446.498 611.808 441.804 611.808C438.732 611.808 435.959 612.533 433.484 613.984C431.095 615.435 429.175 617.568 427.724 620.384C426.359 623.115 425.676 626.443 425.676 630.368V664.8H410.316Z" fill="white"/>
<path d="M510.478 664.8C506.126 664.8 502.329 664.117 499.086 662.752C495.929 661.387 493.454 659.125 491.662 655.968C489.87 652.811 488.974 648.544 488.974 643.168V613.216H477.966V600.288H488.974L490.766 583.264H504.334V600.288H521.87V613.216H504.334V643.168C504.334 646.411 505.017 648.672 506.382 649.952C507.833 651.147 510.222 651.744 513.55 651.744H521.486V664.8H510.478Z" fill="white"/>
<path d="M552.705 666.336C547.415 666.336 543.02 665.44 539.521 663.648C536.023 661.856 533.42 659.467 531.713 656.48C530.007 653.493 529.153 650.251 529.153 646.752C529.153 642.656 530.177 639.115 532.225 636.128C534.359 633.141 537.473 630.837 541.569 629.216C545.665 627.509 550.7 626.656 556.673 626.656H572.929C572.929 623.243 572.46 620.427 571.521 618.208C570.583 615.904 569.132 614.197 567.169 613.088C565.207 611.979 562.689 611.424 559.617 611.424C556.119 611.424 553.132 612.235 550.657 613.856C548.183 615.392 546.647 617.781 546.049 621.024H530.945C531.457 616.416 532.993 612.491 535.553 609.248C538.113 605.92 541.484 603.36 545.665 601.568C549.932 599.691 554.583 598.752 559.617 598.752C565.676 598.752 570.839 599.819 575.105 601.952C579.372 604 582.615 606.987 584.833 610.912C587.137 614.752 588.289 619.403 588.289 624.864V664.8H575.233L573.697 654.432C572.844 656.139 571.735 657.717 570.369 659.168C569.089 660.619 567.596 661.899 565.889 663.008C564.183 664.032 562.22 664.843 560.001 665.44C557.868 666.037 555.436 666.336 552.705 666.336ZM556.161 654.176C558.636 654.176 560.812 653.749 562.689 652.896C564.652 651.957 566.316 650.677 567.681 649.056C569.132 647.349 570.241 645.472 571.009 643.424C571.777 641.376 572.289 639.2 572.545 636.896V636.64H558.337C555.351 636.64 552.876 637.024 550.913 637.792C548.951 638.475 547.543 639.499 546.689 640.864C545.836 642.229 545.409 643.808 545.409 645.6C545.409 647.392 545.836 648.928 546.689 650.208C547.543 651.488 548.78 652.469 550.401 653.152C552.023 653.835 553.943 654.176 556.161 654.176Z" fill="white"/>
<path d="M600.221 664.8V600.288H615.581V664.8H600.221ZM607.901 590.048C605.085 590.048 602.739 589.195 600.861 587.488C599.069 585.696 598.173 583.52 598.173 580.96C598.173 578.315 599.069 576.181 600.861 574.56C602.739 572.853 605.085 572 607.901 572C610.717 572 613.021 572.853 614.813 574.56C616.691 576.181 617.629 578.315 617.629 580.96C617.629 583.52 616.691 585.696 614.813 587.488C613.021 589.195 610.717 590.048 607.901 590.048Z" fill="white"/>
<path d="M628.211 664.8V600.288H641.779L642.931 611.04C644.894 607.285 647.71 604.299 651.379 602.08C655.049 599.861 659.401 598.752 664.435 598.752C669.641 598.752 674.078 599.861 677.747 602.08C681.417 604.213 684.233 607.371 686.195 611.552C688.243 615.733 689.267 620.939 689.267 627.168V664.8H673.907V628.576C673.907 623.2 672.713 619.061 670.323 616.16C667.934 613.259 664.393 611.808 659.699 611.808C656.627 611.808 653.854 612.533 651.379 613.984C648.99 615.435 647.07 617.568 645.619 620.384C644.254 623.115 643.571 626.443 643.571 630.368V664.8H628.211Z" fill="white"/>
<path d="M730.549 666.336C724.149 666.336 718.517 664.971 713.653 662.24C708.789 659.424 704.992 655.499 702.261 650.464C699.531 645.429 698.165 639.627 698.165 633.056C698.165 626.229 699.488 620.256 702.133 615.136C704.864 610.016 708.661 606.005 713.525 603.104C718.475 600.203 724.192 598.752 730.677 598.752C736.992 598.752 742.496 600.16 747.189 602.976C751.883 605.792 755.509 609.589 758.069 614.368C760.629 619.061 761.909 624.352 761.909 630.24C761.909 631.093 761.909 632.032 761.909 633.056C761.909 634.08 761.824 635.147 761.653 636.256H709.173V626.4H746.421C746.251 621.707 744.672 618.037 741.685 615.392C738.699 612.661 734.987 611.296 730.549 611.296C727.392 611.296 724.491 612.021 721.845 613.472C719.2 614.923 717.109 617.099 715.573 620C714.037 622.816 713.269 626.4 713.269 630.752V634.464C713.269 638.475 713.995 641.931 715.445 644.832C716.981 647.733 719.029 649.952 721.589 651.488C724.235 652.939 727.179 653.664 730.421 653.664C734.005 653.664 736.949 652.896 739.253 651.36C741.643 649.824 743.392 647.776 744.501 645.216H760.117C758.923 649.227 756.96 652.853 754.229 656.096C751.499 659.253 748.128 661.771 744.117 663.648C740.107 665.44 735.584 666.336 730.549 666.336Z" fill="white"/>
<path d="M770.971 664.8V600.288H784.667L786.075 612.32C787.611 609.504 789.531 607.115 791.835 605.152C794.139 603.104 796.827 601.525 799.899 600.416C803.057 599.307 806.513 598.752 810.267 598.752V615.008H804.891C802.331 615.008 799.899 615.349 797.595 616.032C795.291 616.629 793.286 617.653 791.579 619.104C789.958 620.469 788.678 622.389 787.739 624.864C786.801 627.253 786.331 630.283 786.331 633.952V664.8H770.971Z" fill="white"/>
<path d="M817.75 633.44V620.64H870.742V633.44H817.75Z" fill="white"/>
<path d="M883.981 664.8V600.288H897.549L898.701 611.04C900.664 607.285 903.48 604.299 907.149 602.08C910.819 599.861 915.171 598.752 920.205 598.752C925.411 598.752 929.848 599.861 933.517 602.08C937.187 604.213 940.003 607.371 941.965 611.552C944.013 615.733 945.037 620.939 945.037 627.168V664.8H929.677V628.576C929.677 623.2 928.483 619.061 926.093 616.16C923.704 613.259 920.163 611.808 915.469 611.808C912.397 611.808 909.624 612.533 907.149 613.984C904.76 615.435 902.84 617.568 901.389 620.384C900.024 623.115 899.341 626.443 899.341 630.368V664.8H883.981Z" fill="white"/>
<path d="M977.615 666.336C972.325 666.336 967.93 665.44 964.431 663.648C960.933 661.856 958.33 659.467 956.623 656.48C954.917 653.493 954.063 650.251 954.063 646.752C954.063 642.656 955.087 639.115 957.135 636.128C959.269 633.141 962.383 630.837 966.479 629.216C970.575 627.509 975.61 626.656 981.583 626.656H997.839C997.839 623.243 997.37 620.427 996.431 618.208C995.493 615.904 994.042 614.197 992.079 613.088C990.117 611.979 987.599 611.424 984.527 611.424C981.029 611.424 978.042 612.235 975.567 613.856C973.093 615.392 971.557 617.781 970.959 621.024H955.855C956.367 616.416 957.903 612.491 960.463 609.248C963.023 605.92 966.394 603.36 970.575 601.568C974.842 599.691 979.493 598.752 984.527 598.752C990.586 598.752 995.749 599.819 1000.02 601.952C1004.28 604 1007.52 606.987 1009.74 610.912C1012.05 614.752 1013.2 619.403 1013.2 624.864V664.8H1000.14L998.607 654.432C997.754 656.139 996.645 657.717 995.279 659.168C993.999 660.619 992.506 661.899 990.799 663.008C989.093 664.032 987.13 664.843 984.911 665.44C982.778 666.037 980.346 666.336 977.615 666.336ZM981.071 654.176C983.546 654.176 985.722 653.749 987.599 652.896C989.562 651.957 991.226 650.677 992.591 649.056C994.042 647.349 995.151 645.472 995.919 643.424C996.687 641.376 997.199 639.2 997.455 636.896V636.64H983.247C980.26 636.64 977.786 637.024 975.823 637.792C973.861 638.475 972.453 639.499 971.599 640.864C970.746 642.229 970.319 643.808 970.319 645.6C970.319 647.392 970.746 648.928 971.599 650.208C972.453 651.488 973.69 652.469 975.311 653.152C976.933 653.835 978.853 654.176 981.071 654.176Z" fill="white"/>
<path d="M1051.52 664.8C1047.17 664.8 1043.37 664.117 1040.13 662.752C1036.97 661.387 1034.5 659.125 1032.71 655.968C1030.92 652.811 1030.02 648.544 1030.02 643.168V613.216H1019.01V600.288H1030.02L1031.81 583.264H1045.38V600.288H1062.92V613.216H1045.38V643.168C1045.38 646.411 1046.06 648.672 1047.43 649.952C1048.88 651.147 1051.27 651.744 1054.6 651.744H1062.53V664.8H1051.52Z" fill="white"/>
<path d="M1072.89 664.8V600.288H1088.25V664.8H1072.89ZM1080.57 590.048C1077.75 590.048 1075.4 589.195 1073.53 587.488C1071.73 585.696 1070.84 583.52 1070.84 580.96C1070.84 578.315 1071.73 576.181 1073.53 574.56C1075.4 572.853 1077.75 572 1080.57 572C1083.38 572 1085.69 572.853 1087.48 574.56C1089.36 576.181 1090.29 578.315 1090.29 580.96C1090.29 583.52 1089.36 585.696 1087.48 587.488C1085.69 589.195 1083.38 590.048 1080.57 590.048Z" fill="white"/>
<path d="M1118.54 664.8L1094.73 600.288H1110.86L1127.88 650.208L1144.91 600.288H1160.78L1136.97 664.8H1118.54Z" fill="white"/>
<path d="M1193.71 666.336C1187.31 666.336 1181.68 664.971 1176.82 662.24C1171.95 659.424 1168.16 655.499 1165.43 650.464C1162.7 645.429 1161.33 639.627 1161.33 633.056C1161.33 626.229 1162.65 620.256 1165.3 615.136C1168.03 610.016 1171.83 606.005 1176.69 603.104C1181.64 600.203 1187.36 598.752 1193.84 598.752C1200.16 598.752 1205.66 600.16 1210.35 602.976C1215.05 605.792 1218.67 609.589 1221.23 614.368C1223.79 619.061 1225.07 624.352 1225.07 630.24C1225.07 631.093 1225.07 632.032 1225.07 633.056C1225.07 634.08 1224.99 635.147 1224.82 636.256H1172.34V626.4H1209.59C1209.42 621.707 1207.84 618.037 1204.85 615.392C1201.86 612.661 1198.15 611.296 1193.71 611.296C1190.56 611.296 1187.66 612.021 1185.01 613.472C1182.36 614.923 1180.27 617.099 1178.74 620C1177.2 622.816 1176.43 626.4 1176.43 630.752V634.464C1176.43 638.475 1177.16 641.931 1178.61 644.832C1180.15 647.733 1182.19 649.952 1184.75 651.488C1187.4 652.939 1190.34 653.664 1193.59 653.664C1197.17 653.664 1200.11 652.896 1202.42 651.36C1204.81 649.824 1206.56 647.776 1207.67 645.216H1223.28C1222.09 649.227 1220.12 652.853 1217.39 656.096C1214.66 659.253 1211.29 661.771 1207.28 663.648C1203.27 665.44 1198.75 666.336 1193.71 666.336Z" fill="white"/>
<path d="M1293.67 694.496C1289.58 694.496 1285.65 693.984 1281.9 692.96C1278.14 692.021 1274.69 690.485 1271.53 688.352C1268.46 686.304 1265.9 683.701 1263.85 680.544C1261.89 677.472 1260.61 673.76 1260.01 669.408H1275.24C1275.84 671.797 1276.95 673.845 1278.57 675.552C1280.28 677.344 1282.37 678.709 1284.84 679.648C1287.4 680.672 1290.22 681.184 1293.29 681.184C1296.79 681.184 1299.9 680.459 1302.63 679.008C1305.45 677.643 1307.67 675.509 1309.29 672.608C1311 669.707 1311.85 666.037 1311.85 661.6V653.408C1310.57 655.541 1308.91 657.504 1306.86 659.296C1304.81 661.003 1302.34 662.411 1299.43 663.52C1296.62 664.544 1293.38 665.056 1289.71 665.056C1283.65 665.056 1278.23 663.605 1273.45 660.704C1268.67 657.803 1264.92 653.877 1262.19 648.928C1259.46 643.893 1258.09 638.219 1258.09 631.904C1258.09 625.504 1259.46 619.829 1262.19 614.88C1264.92 609.931 1268.67 606.005 1273.45 603.104C1278.31 600.203 1283.73 598.752 1289.71 598.752C1293.03 598.752 1296.11 599.264 1298.92 600.288C1301.74 601.227 1304.21 602.507 1306.35 604.128C1308.56 605.749 1310.4 607.584 1311.85 609.632L1313.39 600.288H1327.21V660.96C1327.21 666.421 1326.31 671.243 1324.52 675.424C1322.82 679.605 1320.43 683.104 1317.35 685.92C1314.37 688.736 1310.83 690.869 1306.73 692.32C1302.72 693.771 1298.37 694.496 1293.67 694.496ZM1292.65 651.744C1296.4 651.744 1299.69 650.891 1302.51 649.184C1305.41 647.392 1307.63 645.003 1309.16 642.016C1310.78 639.029 1311.59 635.659 1311.59 631.904C1311.59 628.064 1310.78 624.651 1309.16 621.664C1307.63 618.677 1305.41 616.373 1302.51 614.752C1299.69 613.045 1296.4 612.192 1292.65 612.192C1288.98 612.192 1285.7 613.045 1282.79 614.752C1279.89 616.373 1277.63 618.677 1276.01 621.664C1274.47 624.565 1273.71 627.979 1273.71 631.904C1273.71 635.659 1274.47 639.029 1276.01 642.016C1277.63 645.003 1279.89 647.392 1282.79 649.184C1285.7 650.891 1288.98 651.744 1292.65 651.744Z" fill="white"/>
<path d="M1360.78 666.336C1355.48 666.336 1351.09 665.44 1347.59 663.648C1344.09 661.856 1341.49 659.467 1339.78 656.48C1338.08 653.493 1337.22 650.251 1337.22 646.752C1337.22 642.656 1338.25 639.115 1340.3 636.128C1342.43 633.141 1345.54 630.837 1349.64 629.216C1353.74 627.509 1358.77 626.656 1364.74 626.656H1381C1381 623.243 1380.53 620.427 1379.59 618.208C1378.65 615.904 1377.2 614.197 1375.24 613.088C1373.28 611.979 1370.76 611.424 1367.69 611.424C1364.19 611.424 1361.2 612.235 1358.73 613.856C1356.25 615.392 1354.72 617.781 1354.12 621.024H1339.02C1339.53 616.416 1341.06 612.491 1343.62 609.248C1346.18 605.92 1349.55 603.36 1353.74 601.568C1358 599.691 1362.65 598.752 1367.69 598.752C1373.75 598.752 1378.91 599.819 1383.18 601.952C1387.44 604 1390.68 606.987 1392.9 610.912C1395.21 614.752 1396.36 619.403 1396.36 624.864V664.8H1383.3L1381.77 654.432C1380.91 656.139 1379.8 657.717 1378.44 659.168C1377.16 660.619 1375.67 661.899 1373.96 663.008C1372.25 664.032 1370.29 664.843 1368.07 665.44C1365.94 666.037 1363.51 666.336 1360.78 666.336ZM1364.23 654.176C1366.71 654.176 1368.88 653.749 1370.76 652.896C1372.72 651.957 1374.39 650.677 1375.75 649.056C1377.2 647.349 1378.31 645.472 1379.08 643.424C1379.85 641.376 1380.36 639.2 1380.62 636.896V636.64H1366.41C1363.42 636.64 1360.95 637.024 1358.98 637.792C1357.02 638.475 1355.61 639.499 1354.76 640.864C1353.91 642.229 1353.48 643.808 1353.48 645.6C1353.48 647.392 1353.91 648.928 1354.76 650.208C1355.61 651.488 1356.85 652.469 1358.47 653.152C1360.09 653.835 1362.01 654.176 1364.23 654.176Z" fill="white"/>
<path d="M1407.65 664.8V600.288H1421.22L1422.5 609.12C1424.55 605.877 1427.24 603.36 1430.56 601.568C1433.98 599.691 1437.86 598.752 1442.21 598.752C1445.45 598.752 1448.36 599.179 1450.92 600.032C1453.56 600.885 1455.86 602.165 1457.83 603.872C1459.88 605.579 1461.54 607.712 1462.82 610.272C1465.21 606.688 1468.32 603.872 1472.16 601.824C1476 599.776 1480.18 598.752 1484.71 598.752C1490.08 598.752 1494.65 599.861 1498.4 602.08C1502.16 604.213 1505.02 607.413 1506.98 611.68C1508.94 615.861 1509.92 621.024 1509.92 627.168V664.8H1494.69V628.704C1494.69 623.243 1493.58 619.061 1491.36 616.16C1489.14 613.259 1485.86 611.808 1481.51 611.808C1478.52 611.808 1475.88 612.533 1473.57 613.984C1471.35 615.435 1469.6 617.568 1468.32 620.384C1467.04 623.115 1466.4 626.485 1466.4 630.496V664.8H1451.17V628.704C1451.17 623.243 1450.06 619.061 1447.84 616.16C1445.62 613.259 1442.3 611.808 1437.86 611.808C1435.04 611.808 1432.48 612.533 1430.18 613.984C1427.96 615.435 1426.21 617.568 1424.93 620.384C1423.65 623.115 1423.01 626.485 1423.01 630.496V664.8H1407.65Z" fill="white"/>
<path d="M1521.67 664.8V600.288H1537.03V664.8H1521.67ZM1529.35 590.048C1526.54 590.048 1524.19 589.195 1522.31 587.488C1520.52 585.696 1519.62 583.52 1519.62 580.96C1519.62 578.315 1520.52 576.181 1522.31 574.56C1524.19 572.853 1526.54 572 1529.35 572C1532.17 572 1534.47 572.853 1536.26 574.56C1538.14 576.181 1539.08 578.315 1539.08 580.96C1539.08 583.52 1538.14 585.696 1536.26 587.488C1534.47 589.195 1532.17 590.048 1529.35 590.048Z" fill="white"/>
<path d="M1549.66 664.8V600.288H1563.23L1564.38 611.04C1566.34 607.285 1569.16 604.299 1572.83 602.08C1576.5 599.861 1580.85 598.752 1585.89 598.752C1591.09 598.752 1595.53 599.861 1599.2 602.08C1602.87 604.213 1605.68 607.371 1607.65 611.552C1609.69 615.733 1610.72 620.939 1610.72 627.168V664.8H1595.36V628.576C1595.36 623.2 1594.16 619.061 1591.77 616.16C1589.38 613.259 1585.84 611.808 1581.15 611.808C1578.08 611.808 1575.3 612.533 1572.83 613.984C1570.44 615.435 1568.52 617.568 1567.07 620.384C1565.7 623.115 1565.02 626.443 1565.02 630.368V664.8H1549.66Z" fill="white"/>
<path d="M1655.2 694.496C1651.1 694.496 1647.18 693.984 1643.42 692.96C1639.67 692.021 1636.21 690.485 1633.06 688.352C1629.98 686.304 1627.42 683.701 1625.38 680.544C1623.41 677.472 1622.13 673.76 1621.54 669.408H1636.77C1637.36 671.797 1638.47 673.845 1640.1 675.552C1641.8 677.344 1643.89 678.709 1646.37 679.648C1648.93 680.672 1651.74 681.184 1654.82 681.184C1658.31 681.184 1661.43 680.459 1664.16 679.008C1666.98 677.643 1669.19 675.509 1670.82 672.608C1672.52 669.707 1673.38 666.037 1673.38 661.6V653.408C1672.1 655.541 1670.43 657.504 1668.38 659.296C1666.34 661.003 1663.86 662.411 1660.96 663.52C1658.14 664.544 1654.9 665.056 1651.23 665.056C1645.17 665.056 1639.75 663.605 1634.98 660.704C1630.2 657.803 1626.44 653.877 1623.71 648.928C1620.98 643.893 1619.62 638.219 1619.62 631.904C1619.62 625.504 1620.98 619.829 1623.71 614.88C1626.44 609.931 1630.2 606.005 1634.98 603.104C1639.84 600.203 1645.26 598.752 1651.23 598.752C1654.56 598.752 1657.63 599.264 1660.45 600.288C1663.26 601.227 1665.74 602.507 1667.87 604.128C1670.09 605.749 1671.92 607.584 1673.38 609.632L1674.91 600.288H1688.74V660.96C1688.74 666.421 1687.84 671.243 1686.05 675.424C1684.34 679.605 1681.95 683.104 1678.88 685.92C1675.89 688.736 1672.35 690.869 1668.26 692.32C1664.24 693.771 1659.89 694.496 1655.2 694.496ZM1654.18 651.744C1657.93 651.744 1661.22 650.891 1664.03 649.184C1666.93 647.392 1669.15 645.003 1670.69 642.016C1672.31 639.029 1673.12 635.659 1673.12 631.904C1673.12 628.064 1672.31 624.651 1670.69 621.664C1669.15 618.677 1666.93 616.373 1664.03 614.752C1661.22 613.045 1657.93 612.192 1654.18 612.192C1650.51 612.192 1647.22 613.045 1644.32 614.752C1641.42 616.373 1639.16 618.677 1637.54 621.664C1636 624.565 1635.23 627.979 1635.23 631.904C1635.23 635.659 1636 639.029 1637.54 642.016C1639.16 645.003 1641.42 647.392 1644.32 649.184C1647.22 650.891 1650.51 651.744 1654.18 651.744Z" fill="white"/>
<path d="M1707.45 665.44C1704.55 665.44 1702.2 664.544 1700.41 662.752C1698.62 660.96 1697.72 658.827 1697.72 656.352C1697.72 653.707 1698.62 651.488 1700.41 649.696C1702.2 647.904 1704.55 647.008 1707.45 647.008C1710.27 647.008 1712.57 647.904 1714.36 649.696C1716.16 651.488 1717.05 653.707 1717.05 656.352C1717.05 658.827 1716.16 660.96 1714.36 662.752C1712.57 664.544 1710.27 665.44 1707.45 665.44Z" fill="white"/>
<rect x="242.454" y="706.496" width="1478.76" height="100.48" rx="50.24" fill="url(#paint2_linear_1040_3457)"/>
<path d="M412.454 777.896L420.326 733.096H434.982C438.182 733.096 440.764 733.629 442.726 734.696C444.732 735.763 446.182 737.192 447.078 738.984C447.974 740.776 448.38 742.739 448.294 744.872C448.166 747.859 447.356 750.44 445.862 752.616C444.369 754.792 442.3 756.477 439.654 757.672C437.009 758.867 433.916 759.464 430.374 759.464H421.094L417.83 777.896H412.454ZM421.862 754.92H431.014C434.726 754.92 437.564 754.109 439.526 752.488C441.489 750.824 442.534 748.392 442.662 745.192C442.79 742.931 442.193 741.096 440.87 739.688C439.548 738.28 437.286 737.576 434.086 737.576H424.934L421.862 754.92Z" fill="white"/>
<path d="M462.915 778.664C460.142 778.664 457.71 778.045 455.619 776.808C453.571 775.528 452.014 773.779 450.947 771.56C449.881 769.299 449.411 766.739 449.539 763.88C449.667 761.149 450.222 758.632 451.203 756.328C452.227 753.981 453.593 751.976 455.299 750.312C457.049 748.605 459.033 747.283 461.251 746.344C463.513 745.363 465.902 744.872 468.419 744.872C471.193 744.872 473.603 745.491 475.651 746.728C477.742 747.965 479.321 749.672 480.387 751.848C481.497 754.024 481.966 756.584 481.795 759.528C481.667 762.301 481.091 764.861 480.067 767.208C479.086 769.512 477.721 771.517 475.971 773.224C474.265 774.931 472.302 776.275 470.083 777.256C467.865 778.195 465.475 778.664 462.915 778.664ZM463.619 774.056C465.923 774.056 467.993 773.459 469.827 772.264C471.705 771.069 473.219 769.405 474.371 767.272C475.523 765.096 476.163 762.621 476.291 759.848C476.419 757.587 476.099 755.709 475.331 754.216C474.606 752.68 473.561 751.507 472.195 750.696C470.873 749.885 469.379 749.48 467.715 749.48C465.454 749.48 463.406 750.099 461.571 751.336C459.737 752.531 458.243 754.195 457.091 756.328C455.939 758.461 455.299 760.936 455.171 763.752C455.043 765.928 455.342 767.784 456.067 769.32C456.793 770.856 457.817 772.029 459.139 772.84C460.505 773.651 461.998 774.056 463.619 774.056Z" fill="white"/>
<path d="M491.601 777.896L487.761 745.64H493.201L495.697 772.84H494.673L507.601 745.64H513.681L516.945 772.776L515.921 772.84L528.081 745.64H533.457L518.353 777.896H512.849L509.457 749.48H510.481L497.041 777.896H491.601Z" fill="white"/>
<path d="M547.277 778.664C544.589 778.664 542.242 778.067 540.237 776.872C538.274 775.677 536.781 773.992 535.757 771.816C534.776 769.64 534.349 767.101 534.477 764.2C534.605 761.427 535.16 758.888 536.141 756.584C537.122 754.237 538.445 752.189 540.109 750.44C541.816 748.691 543.778 747.325 545.997 746.344C548.216 745.363 550.626 744.872 553.229 744.872C556.13 744.872 558.52 745.469 560.397 746.664C562.317 747.859 563.725 749.459 564.621 751.464C565.517 753.427 565.901 755.603 565.773 757.992C565.73 758.717 565.624 759.549 565.453 760.488C565.325 761.384 565.176 762.216 565.005 762.984H538.637L539.341 758.824H560.461C560.76 756.819 560.589 755.133 559.949 753.768C559.309 752.36 558.349 751.293 557.069 750.568C555.789 749.8 554.253 749.416 552.461 749.416C550.626 749.416 548.856 749.843 547.149 750.696C545.485 751.507 544.034 752.723 542.797 754.344C541.56 755.923 540.728 757.907 540.301 760.296L539.981 762.088C539.512 764.477 539.554 766.589 540.109 768.424C540.664 770.259 541.624 771.667 542.989 772.648C544.397 773.629 546.104 774.12 548.109 774.12C550.37 774.12 552.312 773.629 553.933 772.648C555.597 771.624 556.898 770.259 557.837 768.552H563.149C562.253 770.472 561.037 772.2 559.501 773.736C558.008 775.272 556.216 776.488 554.125 777.384C552.077 778.237 549.794 778.664 547.277 778.664Z" fill="white"/>
<path d="M569.697 777.896L575.329 745.64H580.257L579.617 751.4C580.598 750.035 581.75 748.883 583.073 747.944C584.396 746.963 585.91 746.216 587.617 745.704C589.324 745.149 591.158 744.872 593.121 744.872L592.161 750.504H590.177C588.812 750.504 587.468 750.675 586.145 751.016C584.865 751.357 583.67 751.912 582.561 752.68C581.494 753.448 580.577 754.472 579.809 755.752C579.041 756.989 578.486 758.547 578.145 760.424L575.073 777.896H569.697Z" fill="white"/>
<path d="M606.589 778.664C603.901 778.664 601.555 778.067 599.549 776.872C597.587 775.677 596.093 773.992 595.069 771.816C594.088 769.64 593.661 767.101 593.789 764.2C593.917 761.427 594.472 758.888 595.453 756.584C596.435 754.237 597.757 752.189 599.421 750.44C601.128 748.691 603.091 747.325 605.309 746.344C607.528 745.363 609.939 744.872 612.541 744.872C615.443 744.872 617.832 745.469 619.709 746.664C621.629 747.859 623.037 749.459 623.933 751.464C624.829 753.427 625.213 755.603 625.085 757.992C625.043 758.717 624.936 759.549 624.765 760.488C624.637 761.384 624.488 762.216 624.317 762.984H597.949L598.653 758.824H619.773C620.072 756.819 619.901 755.133 619.261 753.768C618.621 752.36 617.661 751.293 616.381 750.568C615.101 749.8 613.565 749.416 611.773 749.416C609.939 749.416 608.168 749.843 606.461 750.696C604.797 751.507 603.347 752.723 602.109 754.344C600.872 755.923 600.04 757.907 599.613 760.296L599.293 762.088C598.824 764.477 598.867 766.589 599.421 768.424C599.976 770.259 600.936 771.667 602.301 772.648C603.709 773.629 605.416 774.12 607.421 774.12C609.683 774.12 611.624 773.629 613.245 772.648C614.909 771.624 616.211 770.259 617.149 768.552H622.461C621.565 770.472 620.349 772.2 618.813 773.736C617.32 775.272 615.528 776.488 613.437 777.384C611.389 778.237 609.107 778.664 606.589 778.664Z" fill="white"/>
<path d="M643.089 778.664C640.316 778.664 637.948 778.003 635.985 776.68C634.023 775.357 632.551 773.565 631.569 771.304C630.588 769 630.183 766.483 630.353 763.752C630.481 760.979 631.015 758.461 631.953 756.2C632.935 753.896 634.236 751.912 635.857 750.248C637.521 748.541 639.42 747.219 641.553 746.28C643.729 745.341 646.033 744.872 648.465 744.872C651.239 744.872 653.5 745.427 655.249 746.536C657.041 747.645 658.364 749.117 659.217 750.952L662.609 731.816H667.985L659.857 777.896H654.929L655.377 772.584C654.567 773.651 653.564 774.653 652.369 775.592C651.217 776.488 649.873 777.235 648.337 777.832C646.801 778.387 645.052 778.664 643.089 778.664ZM644.625 773.992C647.015 773.992 649.127 773.373 650.961 772.136C652.839 770.856 654.332 769.149 655.441 767.016C656.551 764.84 657.169 762.408 657.297 759.72C657.425 757.672 657.148 755.901 656.465 754.408C655.825 752.872 654.823 751.677 653.457 750.824C652.135 749.971 650.513 749.544 648.593 749.544C646.289 749.544 644.199 750.141 642.321 751.336C640.444 752.488 638.929 754.109 637.777 756.2C636.668 758.291 636.049 760.68 635.921 763.368C635.793 765.416 636.071 767.251 636.753 768.872C637.436 770.493 638.439 771.752 639.761 772.648C641.127 773.544 642.748 773.992 644.625 773.992Z" fill="white"/>
<path d="M703.652 778.664C701.86 778.664 700.239 778.365 698.788 777.768C697.38 777.171 696.186 776.403 695.204 775.464C694.266 774.525 693.562 773.565 693.092 772.584L691.684 777.896H686.82L694.948 731.816H700.324L696.996 750.696C698.319 749.075 699.983 747.709 701.988 746.6C703.994 745.448 706.383 744.872 709.156 744.872C711.972 744.872 714.362 745.512 716.324 746.792C718.287 748.072 719.759 749.821 720.74 752.04C721.722 754.216 722.148 756.712 722.02 759.528C721.892 762.216 721.338 764.733 720.356 767.08C719.418 769.427 718.116 771.475 716.452 773.224C714.788 774.931 712.868 776.275 710.692 777.256C708.516 778.195 706.17 778.664 703.652 778.664ZM703.908 773.992C706.212 773.992 708.282 773.395 710.116 772.2C711.994 771.005 713.487 769.363 714.596 767.272C715.706 765.181 716.324 762.792 716.452 760.104C716.58 758.056 716.303 756.243 715.62 754.664C714.938 753.043 713.914 751.784 712.548 750.888C711.226 749.992 709.626 749.544 707.748 749.544C705.402 749.544 703.29 750.163 701.412 751.4C699.578 752.637 698.084 754.323 696.932 756.456C695.78 758.547 695.162 760.936 695.076 763.624C694.948 765.715 695.226 767.549 695.908 769.128C696.591 770.664 697.615 771.859 698.98 772.712C700.346 773.565 701.988 773.992 703.908 773.992Z" fill="white"/>
<path d="M725.347 791.976L736.099 774.696H734.307L726.755 745.64H732.323L738.659 770.728L754.147 745.64H759.779L730.915 791.976H725.347Z" fill="white"/>
<path d="M778.267 777.896L786.139 733.096H812.955L812.187 737.448H790.747L787.995 753.32H806.043L805.275 757.544H787.227L783.643 777.896H778.267Z" fill="white"/>
<path d="M824.402 778.664C821.714 778.664 819.367 778.067 817.362 776.872C815.399 775.677 813.906 773.992 812.882 771.816C811.901 769.64 811.474 767.101 811.602 764.2C811.73 761.427 812.285 758.888 813.266 756.584C814.247 754.237 815.57 752.189 817.234 750.44C818.941 748.691 820.903 747.325 823.122 746.344C825.341 745.363 827.751 744.872 830.354 744.872C833.255 744.872 835.645 745.469 837.522 746.664C839.442 747.859 840.85 749.459 841.746 751.464C842.642 753.427 843.026 755.603 842.898 757.992C842.855 758.717 842.749 759.549 842.578 760.488C842.45 761.384 842.301 762.216 842.13 762.984H815.762L816.466 758.824H837.586C837.885 756.819 837.714 755.133 837.074 753.768C836.434 752.36 835.474 751.293 834.194 750.568C832.914 749.8 831.378 749.416 829.586 749.416C827.751 749.416 825.981 749.843 824.274 750.696C822.61 751.507 821.159 752.723 819.922 754.344C818.685 755.923 817.853 757.907 817.426 760.296L817.106 762.088C816.637 764.477 816.679 766.589 817.234 768.424C817.789 770.259 818.749 771.667 820.114 772.648C821.522 773.629 823.229 774.12 825.234 774.12C827.495 774.12 829.437 773.629 831.058 772.648C832.722 771.624 834.023 770.259 834.962 768.552H840.274C839.378 770.472 838.162 772.2 836.626 773.736C835.133 775.272 833.341 776.488 831.25 777.384C829.202 778.237 826.919 778.664 824.402 778.664Z" fill="white"/>
<path d="M860.902 778.664C858.129 778.664 855.761 778.003 853.798 776.68C851.835 775.357 850.363 773.565 849.382 771.304C848.401 769 847.995 766.483 848.166 763.752C848.294 760.979 848.827 758.461 849.766 756.2C850.747 753.896 852.049 751.912 853.67 750.248C855.334 748.541 857.233 747.219 859.366 746.28C861.542 745.341 863.846 744.872 866.278 744.872C869.051 744.872 871.313 745.427 873.062 746.536C874.854 747.645 876.177 749.117 877.03 750.952L880.422 731.816H885.798L877.67 777.896H872.742L873.19 772.584C872.379 773.651 871.377 774.653 870.182 775.592C869.03 776.488 867.686 777.235 866.15 777.832C864.614 778.387 862.865 778.664 860.902 778.664ZM862.438 773.992C864.827 773.992 866.939 773.373 868.774 772.136C870.651 770.856 872.145 769.149 873.254 767.016C874.363 764.84 874.982 762.408 875.11 759.72C875.238 757.672 874.961 755.901 874.278 754.408C873.638 752.872 872.635 751.677 871.27 750.824C869.947 749.971 868.326 749.544 866.406 749.544C864.102 749.544 862.011 750.141 860.134 751.336C858.257 752.488 856.742 754.109 855.59 756.2C854.481 758.291 853.862 760.68 853.734 763.368C853.606 765.416 853.883 767.251 854.566 768.872C855.249 770.493 856.251 771.752 857.574 772.648C858.939 773.544 860.561 773.992 862.438 773.992Z" fill="white"/>
<path d="M901.29 778.664C898.517 778.664 896.085 778.045 893.994 776.808C891.946 775.528 890.389 773.779 889.322 771.56C888.256 769.299 887.786 766.739 887.914 763.88C888.042 761.149 888.597 758.632 889.578 756.328C890.602 753.981 891.968 751.976 893.674 750.312C895.424 748.605 897.408 747.283 899.626 746.344C901.888 745.363 904.277 744.872 906.794 744.872C909.568 744.872 911.978 745.491 914.026 746.728C916.117 747.965 917.696 749.672 918.762 751.848C919.872 754.024 920.341 756.584 920.17 759.528C920.042 762.301 919.466 764.861 918.442 767.208C917.461 769.512 916.096 771.517 914.346 773.224C912.64 774.931 910.677 776.275 908.458 777.256C906.24 778.195 903.85 778.664 901.29 778.664ZM901.994 774.056C904.298 774.056 906.368 773.459 908.202 772.264C910.08 771.069 911.594 769.405 912.746 767.272C913.898 765.096 914.538 762.621 914.666 759.848C914.794 757.587 914.474 755.709 913.706 754.216C912.981 752.68 911.936 751.507 910.57 750.696C909.248 749.885 907.754 749.48 906.09 749.48C903.829 749.48 901.781 750.099 899.946 751.336C898.112 752.531 896.618 754.195 895.466 756.328C894.314 758.461 893.674 760.936 893.546 763.752C893.418 765.928 893.717 767.784 894.442 769.32C895.168 770.856 896.192 772.029 897.514 772.84C898.88 773.651 900.373 774.056 901.994 774.056Z" fill="white"/>
<path d="M924.759 777.896L930.391 745.64H935.319L934.679 751.4C935.661 750.035 936.813 748.883 938.135 747.944C939.458 746.963 940.973 746.216 942.679 745.704C944.386 745.149 946.221 744.872 948.183 744.872L947.223 750.504H945.239C943.874 750.504 942.53 750.675 941.207 751.016C939.927 751.357 938.733 751.912 937.623 752.68C936.557 753.448 935.639 754.472 934.871 755.752C934.103 756.989 933.549 758.547 933.207 760.424L930.135 777.896H924.759Z" fill="white"/>
<path d="M958.749 778.664C956.36 778.664 954.397 778.259 952.861 777.448C951.368 776.595 950.28 775.485 949.597 774.12C948.915 772.712 948.616 771.219 948.701 769.64C948.787 767.336 949.491 765.352 950.813 763.688C952.136 762.024 953.971 760.744 956.317 759.848C958.664 758.952 961.352 758.504 964.381 758.504H972.893C973.235 756.456 973.213 754.771 972.829 753.448C972.488 752.083 971.784 751.08 970.717 750.44C969.651 749.757 968.264 749.416 966.557 749.416C964.51 749.416 962.653 749.928 960.989 750.952C959.325 751.976 958.131 753.491 957.405 755.496H951.837C952.52 753.192 953.629 751.272 955.165 749.736C956.744 748.157 958.579 746.963 960.669 746.152C962.76 745.299 964.957 744.872 967.261 744.872C970.163 744.872 972.509 745.427 974.301 746.536C976.136 747.603 977.373 749.117 978.013 751.08C978.696 753 978.803 755.283 978.333 757.928L974.877 777.896H970.013L970.717 772.2C970.12 773.096 969.416 773.949 968.605 774.76C967.837 775.528 966.963 776.211 965.981 776.808C965 777.405 963.912 777.853 962.717 778.152C961.523 778.493 960.2 778.664 958.749 778.664ZM960.349 774.12C961.843 774.12 963.272 773.821 964.637 773.224C966.045 772.584 967.283 771.731 968.349 770.664C969.459 769.597 970.333 768.403 970.973 767.08C971.656 765.757 972.019 764.371 972.061 762.92L972.125 762.664H964.061C962.056 762.664 960.328 762.941 958.877 763.496C957.469 764.008 956.381 764.755 955.613 765.736C954.888 766.675 954.483 767.805 954.397 769.128C954.312 770.664 954.781 771.88 955.805 772.776C956.829 773.672 958.344 774.12 960.349 774.12Z" fill="white"/>
<path d="M1012.12 778.664C1009.74 778.664 1007.77 778.259 1006.24 777.448C1004.74 776.595 1003.66 775.485 1002.97 774.12C1002.29 772.712 1001.99 771.219 1002.08 769.64C1002.16 767.336 1002.87 765.352 1004.19 763.688C1005.51 762.024 1007.35 760.744 1009.69 759.848C1012.04 758.952 1014.73 758.504 1017.76 758.504H1026.27C1026.61 756.456 1026.59 754.771 1026.2 753.448C1025.86 752.083 1025.16 751.08 1024.09 750.44C1023.03 749.757 1021.64 749.416 1019.93 749.416C1017.88 749.416 1016.03 749.928 1014.36 750.952C1012.7 751.976 1011.51 753.491 1010.78 755.496H1005.21C1005.9 753.192 1007 751.272 1008.54 749.736C1010.12 748.157 1011.95 746.963 1014.04 746.152C1016.14 745.299 1018.33 744.872 1020.64 744.872C1023.54 744.872 1025.88 745.427 1027.68 746.536C1029.51 747.603 1030.75 749.117 1031.39 751.08C1032.07 753 1032.18 755.283 1031.71 757.928L1028.25 777.896H1023.39L1024.09 772.2C1023.5 773.096 1022.79 773.949 1021.98 774.76C1021.21 775.528 1020.34 776.211 1019.36 776.808C1018.38 777.405 1017.29 777.853 1016.09 778.152C1014.9 778.493 1013.58 778.664 1012.12 778.664ZM1013.72 774.12C1015.22 774.12 1016.65 773.821 1018.01 773.224C1019.42 772.584 1020.66 771.731 1021.72 770.664C1022.83 769.597 1023.71 768.403 1024.35 767.08C1025.03 765.757 1025.39 764.371 1025.44 762.92L1025.5 762.664H1017.44C1015.43 762.664 1013.7 762.941 1012.25 763.496C1010.84 764.008 1009.76 764.755 1008.99 765.736C1008.26 766.675 1007.86 767.805 1007.77 769.128C1007.69 770.664 1008.16 771.88 1009.18 772.776C1010.2 773.672 1011.72 774.12 1013.72 774.12Z" fill="white"/>
<path d="M1037.2 777.896L1042.83 745.64H1047.69L1047.05 751.272C1048.42 749.267 1050.15 747.709 1052.24 746.6C1054.33 745.448 1056.59 744.872 1059.02 744.872C1061.67 744.872 1063.8 745.448 1065.42 746.6C1067.08 747.709 1068.22 749.288 1068.81 751.336C1069.41 753.384 1069.45 755.816 1068.94 758.632L1065.55 777.896H1060.17L1063.44 759.208C1063.99 756.093 1063.74 753.704 1062.67 752.04C1061.6 750.333 1059.72 749.48 1057.04 749.48C1055.29 749.48 1053.62 749.907 1052.04 750.76C1050.51 751.613 1049.19 752.829 1048.08 754.408C1046.97 755.987 1046.16 757.928 1045.64 760.232L1042.57 777.896H1037.2Z" fill="white"/>
<path d="M1088.03 778.664C1085.25 778.664 1082.89 778.003 1080.92 776.68C1078.96 775.357 1077.49 773.565 1076.51 771.304C1075.53 769 1075.12 766.483 1075.29 763.752C1075.42 760.979 1075.95 758.461 1076.89 756.2C1077.87 753.896 1079.17 751.912 1080.79 750.248C1082.46 748.541 1084.36 747.219 1086.49 746.28C1088.67 745.341 1090.97 744.872 1093.4 744.872C1096.18 744.872 1098.44 745.427 1100.19 746.536C1101.98 747.645 1103.3 749.117 1104.15 750.952L1107.55 731.816H1112.92L1104.79 777.896H1099.87L1100.31 772.584C1099.5 773.651 1098.5 774.653 1097.31 775.592C1096.15 776.488 1094.81 777.235 1093.27 777.832C1091.74 778.387 1089.99 778.664 1088.03 778.664ZM1089.56 773.992C1091.95 773.992 1094.06 773.373 1095.9 772.136C1097.78 770.856 1099.27 769.149 1100.38 767.016C1101.49 764.84 1102.11 762.408 1102.23 759.72C1102.36 757.672 1102.09 755.901 1101.4 754.408C1100.76 752.872 1099.76 751.677 1098.39 750.824C1097.07 749.971 1095.45 749.544 1093.53 749.544C1091.23 749.544 1089.14 750.141 1087.26 751.336C1085.38 752.488 1083.87 754.109 1082.71 756.2C1081.61 758.291 1080.99 760.68 1080.86 763.368C1080.73 765.416 1081.01 767.251 1081.69 768.872C1082.37 770.493 1083.38 771.752 1084.7 772.648C1086.06 773.544 1087.69 773.992 1089.56 773.992Z" fill="white"/>
<path d="M1148.14 778.664C1144.73 778.664 1141.89 778.003 1139.63 776.68C1137.41 775.315 1135.85 773.352 1134.96 770.792C1134.06 768.189 1133.93 765.053 1134.57 761.384L1139.63 733.096H1145.01L1139.95 761.384C1139.48 764.029 1139.5 766.291 1140.01 768.168C1140.57 770.003 1141.59 771.411 1143.09 772.392C1144.58 773.331 1146.56 773.8 1149.04 773.8C1151.3 773.8 1153.33 773.373 1155.12 772.52C1156.95 771.667 1158.49 770.323 1159.73 768.488C1161.01 766.653 1161.9 764.285 1162.41 761.384L1167.47 733.096H1172.85L1167.85 761.384C1167.17 765.352 1165.85 768.616 1163.89 771.176C1161.97 773.693 1159.64 775.571 1156.91 776.808C1154.18 778.045 1151.26 778.664 1148.14 778.664Z" fill="white"/>
<path d="M1173.76 777.896L1179.39 745.64H1184.26L1183.62 751.272C1184.98 749.267 1186.71 747.709 1188.8 746.6C1190.89 745.448 1193.15 744.872 1195.58 744.872C1198.23 744.872 1200.36 745.448 1201.98 746.6C1203.65 747.709 1204.78 749.288 1205.38 751.336C1205.97 753.384 1206.02 755.816 1205.5 758.632L1202.11 777.896H1196.74L1200 759.208C1200.55 756.093 1200.3 753.704 1199.23 752.04C1198.16 750.333 1196.29 749.48 1193.6 749.48C1191.85 749.48 1190.19 749.907 1188.61 750.76C1187.07 751.613 1185.75 752.829 1184.64 754.408C1183.53 755.987 1182.72 757.928 1182.21 760.232L1179.14 777.896H1173.76Z" fill="white"/>
<path d="M1211.02 777.896L1216.72 745.64H1222.09L1216.4 777.896H1211.02ZM1221.26 738.792C1220.19 738.792 1219.32 738.451 1218.64 737.768C1217.95 737.085 1217.59 736.211 1217.55 735.144C1217.55 734.077 1217.89 733.203 1218.57 732.52C1219.3 731.837 1220.19 731.496 1221.26 731.496C1222.29 731.496 1223.16 731.837 1223.89 732.52C1224.61 733.16 1224.97 734.035 1224.97 735.144C1225.02 736.211 1224.65 737.085 1223.89 737.768C1223.16 738.451 1222.29 738.792 1221.26 738.792Z" fill="white"/>
<path d="M1235.61 777.896L1228.7 745.64H1234.27L1239.64 772.776L1254.55 745.64H1260.19L1241.88 777.896H1235.61Z" fill="white"/>
<path d="M1273.53 778.664C1270.84 778.664 1268.49 778.067 1266.49 776.872C1264.52 775.677 1263.03 773.992 1262.01 771.816C1261.03 769.64 1260.6 767.101 1260.73 764.2C1260.85 761.427 1261.41 758.888 1262.39 756.584C1263.37 754.237 1264.69 752.189 1266.36 750.44C1268.07 748.691 1270.03 747.325 1272.25 746.344C1274.47 745.363 1276.88 744.872 1279.48 744.872C1282.38 744.872 1284.77 745.469 1286.65 746.664C1288.57 747.859 1289.97 749.459 1290.87 751.464C1291.77 753.427 1292.15 755.603 1292.02 757.992C1291.98 758.717 1291.87 759.549 1291.7 760.488C1291.57 761.384 1291.43 762.216 1291.25 762.984H1264.89L1265.59 758.824H1286.71C1287.01 756.819 1286.84 755.133 1286.2 753.768C1285.56 752.36 1284.6 751.293 1283.32 750.568C1282.04 749.8 1280.5 749.416 1278.71 749.416C1276.88 749.416 1275.11 749.843 1273.4 750.696C1271.73 751.507 1270.28 752.723 1269.05 754.344C1267.81 755.923 1266.98 757.907 1266.55 760.296L1266.23 762.088C1265.76 764.477 1265.8 766.589 1266.36 768.424C1266.91 770.259 1267.87 771.667 1269.24 772.648C1270.65 773.629 1272.35 774.12 1274.36 774.12C1276.62 774.12 1278.56 773.629 1280.18 772.648C1281.85 771.624 1283.15 770.259 1284.09 768.552H1289.4C1288.5 770.472 1287.29 772.2 1285.75 773.736C1284.26 775.272 1282.47 776.488 1280.37 777.384C1278.33 778.237 1276.04 778.664 1273.53 778.664Z" fill="white"/>
<path d="M1295.95 777.896L1301.58 745.64H1306.51L1305.87 751.4C1306.85 750.035 1308 748.883 1309.32 747.944C1310.65 746.963 1312.16 746.216 1313.87 745.704C1315.57 745.149 1317.41 744.872 1319.37 744.872L1318.41 750.504H1316.43C1315.06 750.504 1313.72 750.675 1312.39 751.016C1311.11 751.357 1309.92 751.912 1308.81 752.68C1307.74 753.448 1306.83 754.472 1306.06 755.752C1305.29 756.989 1304.74 758.547 1304.39 760.424L1301.32 777.896H1295.95Z" fill="white"/>
<path d="M1331.86 778.664C1329.13 778.664 1326.82 778.216 1324.94 777.32C1323.07 776.381 1321.68 775.08 1320.78 773.416C1319.93 771.752 1319.59 769.768 1319.76 767.464H1325.2C1325.16 768.659 1325.37 769.768 1325.84 770.792C1326.31 771.773 1327.1 772.584 1328.21 773.224C1329.32 773.821 1330.79 774.12 1332.62 774.12C1334.16 774.12 1335.48 773.885 1336.59 773.416C1337.7 772.947 1338.56 772.307 1339.15 771.496C1339.79 770.685 1340.16 769.683 1340.24 768.488C1340.28 767.421 1340.03 766.589 1339.47 765.992C1338.96 765.352 1338.17 764.84 1337.1 764.456C1336.04 764.072 1334.76 763.752 1333.26 763.496C1331.94 763.24 1330.66 762.899 1329.42 762.472C1328.23 762.045 1327.16 761.512 1326.22 760.872C1325.29 760.189 1324.56 759.357 1324.05 758.376C1323.54 757.352 1323.32 756.157 1323.41 754.792C1323.49 752.915 1324.09 751.229 1325.2 749.736C1326.35 748.243 1327.89 747.069 1329.81 746.216C1331.77 745.32 1333.99 744.872 1336.46 744.872C1339.92 744.872 1342.63 745.725 1344.59 747.432C1346.6 749.096 1347.52 751.485 1347.34 754.6H1341.97C1342.05 752.979 1341.56 751.72 1340.5 750.824C1339.43 749.885 1337.87 749.416 1335.82 749.416C1333.82 749.416 1332.18 749.864 1330.9 750.76C1329.66 751.656 1329.02 752.765 1328.98 754.088C1328.93 754.984 1329.15 755.752 1329.62 756.392C1330.13 756.989 1330.9 757.501 1331.92 757.928C1332.94 758.312 1334.22 758.653 1335.76 758.952C1337.21 759.251 1338.56 759.613 1339.79 760.04C1341.03 760.467 1342.12 761.021 1343.06 761.704C1344 762.344 1344.7 763.176 1345.17 764.2C1345.68 765.181 1345.89 766.397 1345.81 767.848C1345.72 770.067 1345.06 771.987 1343.82 773.608C1342.63 775.229 1340.99 776.488 1338.9 777.384C1336.85 778.237 1334.5 778.664 1331.86 778.664Z" fill="white"/>
<path d="M1362.25 778.664C1359.86 778.664 1357.9 778.259 1356.36 777.448C1354.87 776.595 1353.78 775.485 1353.1 774.12C1352.41 772.712 1352.12 771.219 1352.2 769.64C1352.29 767.336 1352.99 765.352 1354.31 763.688C1355.64 762.024 1357.47 760.744 1359.82 759.848C1362.16 758.952 1364.85 758.504 1367.88 758.504H1376.39C1376.73 756.456 1376.71 754.771 1376.33 753.448C1375.99 752.083 1375.28 751.08 1374.22 750.44C1373.15 749.757 1371.76 749.416 1370.06 749.416C1368.01 749.416 1366.15 749.928 1364.49 750.952C1362.83 751.976 1361.63 753.491 1360.91 755.496H1355.34C1356.02 753.192 1357.13 751.272 1358.67 749.736C1360.24 748.157 1362.08 746.963 1364.17 746.152C1366.26 745.299 1368.46 744.872 1370.76 744.872C1373.66 744.872 1376.01 745.427 1377.8 746.536C1379.64 747.603 1380.87 749.117 1381.51 751.08C1382.2 753 1382.3 755.283 1381.83 757.928L1378.38 777.896H1373.51L1374.22 772.2C1373.62 773.096 1372.92 773.949 1372.11 774.76C1371.34 775.528 1370.46 776.211 1369.48 776.808C1368.5 777.405 1367.41 777.853 1366.22 778.152C1365.02 778.493 1363.7 778.664 1362.25 778.664ZM1363.85 774.12C1365.34 774.12 1366.77 773.821 1368.14 773.224C1369.55 772.584 1370.78 771.731 1371.85 770.664C1372.96 769.597 1373.83 768.403 1374.47 767.08C1375.16 765.757 1375.52 764.371 1375.56 762.92L1375.63 762.664H1367.56C1365.56 762.664 1363.83 762.941 1362.38 763.496C1360.97 764.008 1359.88 764.755 1359.11 765.736C1358.39 766.675 1357.98 767.805 1357.9 769.128C1357.81 770.664 1358.28 771.88 1359.31 772.776C1360.33 773.672 1361.84 774.12 1363.85 774.12Z" fill="white"/>
<path d="M1387.26 777.896L1395.45 731.816H1400.83L1392.63 777.896H1387.26Z" fill="white"/>
<path d="M1420.02 777.896L1427.89 733.096H1443.7C1446.56 733.096 1448.88 733.544 1450.67 734.44C1452.51 735.293 1453.85 736.488 1454.7 738.024C1455.56 739.517 1455.92 741.203 1455.79 743.08C1455.71 745.427 1455.09 747.475 1453.94 749.224C1452.83 750.973 1451.33 752.36 1449.46 753.384C1447.62 754.408 1445.57 755.027 1443.31 755.24L1444.27 754.6C1446.02 754.643 1447.58 755.091 1448.94 755.944C1450.31 756.755 1451.36 757.885 1452.08 759.336C1452.85 760.744 1453.17 762.365 1453.04 764.2C1452.96 766.888 1452.17 769.256 1450.67 771.304C1449.18 773.352 1447.17 774.973 1444.66 776.168C1442.18 777.32 1439.39 777.896 1436.27 777.896H1420.02ZM1426.16 773.48H1436.46C1438.68 773.48 1440.6 773.096 1442.22 772.328C1443.89 771.56 1445.19 770.472 1446.13 769.064C1447.11 767.613 1447.64 765.949 1447.73 764.072C1447.86 761.896 1447.15 760.168 1445.62 758.888C1444.12 757.608 1441.99 756.968 1439.22 756.968H1429.04L1426.16 773.48ZM1429.87 752.744H1439.79C1442.86 752.744 1445.34 751.955 1447.22 750.376C1449.09 748.755 1450.08 746.6 1450.16 743.912C1450.25 742.589 1450.01 741.437 1449.46 740.456C1448.9 739.475 1448.03 738.728 1446.83 738.216C1445.68 737.704 1444.17 737.448 1442.29 737.448H1432.5L1429.87 752.744Z" fill="white"/>
<path d="M1458.26 777.896L1466.45 731.816H1471.83L1463.63 777.896H1458.26Z" fill="white"/>
<path d="M1486.01 778.664C1481.57 778.664 1478.33 777.469 1476.28 775.08C1474.23 772.648 1473.64 769 1474.49 764.136L1477.75 745.64H1483.13L1479.93 763.752C1479.5 766.013 1479.44 767.912 1479.74 769.448C1480.04 770.984 1480.76 772.136 1481.91 772.904C1483.07 773.672 1484.71 774.056 1486.84 774.056C1488.81 774.056 1490.49 773.672 1491.9 772.904C1493.31 772.136 1494.46 770.984 1495.35 769.448C1496.29 767.912 1496.95 766.013 1497.34 763.752L1500.54 745.64H1505.91L1502.65 764.136C1501.8 769 1499.92 772.648 1497.02 775.08C1494.16 777.469 1490.49 778.664 1486.01 778.664Z" fill="white"/>
<path d="M1522.65 778.664C1519.96 778.664 1517.62 778.067 1515.61 776.872C1513.65 775.677 1512.16 773.992 1511.13 771.816C1510.15 769.64 1509.72 767.101 1509.85 764.2C1509.98 761.427 1510.53 758.888 1511.52 756.584C1512.5 754.237 1513.82 752.189 1515.48 750.44C1517.19 748.691 1519.15 747.325 1521.37 746.344C1523.59 745.363 1526 744.872 1528.6 744.872C1531.51 744.872 1533.89 745.469 1535.77 746.664C1537.69 747.859 1539.1 749.459 1540 751.464C1540.89 753.427 1541.28 755.603 1541.15 757.992C1541.11 758.717 1541 759.549 1540.83 760.488C1540.7 761.384 1540.55 762.216 1540.38 762.984H1514.01L1514.72 758.824H1535.84C1536.13 756.819 1535.96 755.133 1535.32 753.768C1534.68 752.36 1533.72 751.293 1532.44 750.568C1531.16 749.8 1529.63 749.416 1527.84 749.416C1526 749.416 1524.23 749.843 1522.52 750.696C1520.86 751.507 1519.41 752.723 1518.17 754.344C1516.93 755.923 1516.1 757.907 1515.68 760.296L1515.36 762.088C1514.89 764.477 1514.93 766.589 1515.48 768.424C1516.04 770.259 1517 771.667 1518.36 772.648C1519.77 773.629 1521.48 774.12 1523.48 774.12C1525.75 774.12 1527.69 773.629 1529.31 772.648C1530.97 771.624 1532.27 770.259 1533.21 768.552H1538.52C1537.63 770.472 1536.41 772.2 1534.88 773.736C1533.38 775.272 1531.59 776.488 1529.5 777.384C1527.45 778.237 1525.17 778.664 1522.65 778.664Z" fill="white"/>
<path d="M1547.57 778.216C1546.5 778.216 1545.61 777.875 1544.88 777.192C1544.2 776.467 1543.86 775.592 1543.86 774.568C1543.86 773.544 1544.2 772.691 1544.88 772.008C1545.61 771.283 1546.5 770.92 1547.57 770.92C1548.63 770.92 1549.51 771.283 1550.19 772.008C1550.87 772.691 1551.22 773.544 1551.22 774.568C1551.22 775.592 1550.87 776.467 1550.19 777.192C1549.51 777.875 1548.63 778.216 1547.57 778.216Z" fill="white"/>
<defs>
<linearGradient id="paint0_linear_1040_3457" x1="100" y1="100" x2="508" y2="508" gradientUnits="userSpaceOnUse">
<stop offset="0.0684898" stop-color="#0047AB"/>
<stop offset="0.741212" stop-color="#8A2BE2"/>
</linearGradient>
<linearGradient id="paint1_linear_1040_3457" x1="1459.63" y1="161.55" x2="1459.63" y2="218.53" gradientUnits="userSpaceOnUse">
<stop stop-color="#59CAFD"/>
<stop offset="1" stop-color="#2B50EF"/>
</linearGradient>
<linearGradient id="paint2_linear_1040_3457" x1="242.629" y1="706.495" x2="1721.07" y2="811.545" gradientUnits="userSpaceOnUse">
<stop stop-color="#0546AD"/>
<stop offset="1" stop-color="#8A2BE2"/>
</linearGradient>
<clipPath id="clip0_1040_3457">
<rect width="1763.67" height="408" fill="white" transform="translate(100 100)"/>
</clipPath>
</defs>
</svg>
