<svg width="700" height="700" viewBox="0 0 700 700" fill="none" xmlns="http://www.w3.org/2000/svg">
<path fill-rule="evenodd" clip-rule="evenodd" d="M200 100C144.771 100 100 144.771 100 200V292V350C100 488.071 211.929 600 350 600C488.071 600 600 488.071 600 350C600 211.929 488.071 100 350 100H292V228H426.185C482.416 228 528 273.584 528 329.815C528 439.269 439.27 528 329.815 528C273.584 528 228 482.416 228 426.185V292H100V228H228V100H200ZM292 426.185V292H426.185C447.07 292 464 308.93 464 329.815C464 403.923 403.923 464 329.815 464C308.93 464 292 447.07 292 426.185Z" fill="white"/>
<path d="M228 115H222C217.029 115 213 119.029 213 124V130V204C213 208.971 208.971 213 204 213H130H124C119.029 213 115 217.029 115 222V228V292V298C115 302.971 119.029 307 124 307H130H204C208.971 307 213 311.029 213 316V390V396C213 400.971 217.029 405 222 405H228H292H298C302.971 405 307 400.971 307 396V390V316C307 311.029 311.029 307 316 307H390H396C400.971 307 405 302.971 405 298V292V228V222C405 217.029 400.971 213 396 213H390H316C311.029 213 307 208.971 307 204V130V124C307 119.029 302.971 115 298 115H292H228Z" stroke="white" stroke-width="30"/>
<path d="M362.5 255.67C365.833 257.594 365.833 262.406 362.5 264.33L341.5 276.454C338.167 278.379 334 275.973 334 272.124V247.876C334 244.027 338.167 241.621 341.5 243.546L362.5 255.67Z" fill="white"/>
<path d="M264.33 362.5C262.406 365.833 257.594 365.833 255.67 362.5L243.546 341.5C241.621 338.167 244.027 334 247.876 334H272.124C275.973 334 278.379 338.167 276.454 341.5L264.33 362.5Z" fill="white"/>
<path d="M255.67 157.5C257.594 154.167 262.406 154.167 264.33 157.5L276.454 178.5C278.379 181.833 275.973 186 272.124 186H247.876C244.027 186 241.621 181.833 243.546 178.5L255.67 157.5Z" fill="white"/>
<path d="M157.5 264.33C154.167 262.406 154.167 257.594 157.5 255.67L178.5 243.546C181.833 241.621 186 244.027 186 247.876V272.124C186 275.973 181.833 278.379 178.5 276.454L157.5 264.33Z" fill="white"/>
</svg>
