<svg width="700" height="700" viewBox="0 0 700 700" fill="none" xmlns="http://www.w3.org/2000/svg">
<path d="M100 200C100 144.772 144.772 100 200 100H350C488.071 100 600 211.929 600 350C600 488.071 488.071 600 350 600C211.929 600 100 488.071 100 350V200Z" fill="url(#paint0_linear_1318_198)"/>
<path fill-rule="evenodd" clip-rule="evenodd" d="M228 100H292V228H426.185C482.416 228 528 273.584 528 329.815C528 439.269 439.27 528 329.815 528C273.584 528 228 482.416 228 426.185V292H100L100 228L228 228V100ZM292 292V426.185C292 447.07 308.93 464 329.815 464C403.923 464 464 403.923 464 329.815C464 308.93 447.07 292 426.185 292H292Z" fill="#FFD25E" fill-opacity="0.85"/>
<path d="M292 160C292 143.431 278.569 130 262 130H258C241.431 130 228 143.431 228 160L228 228H160C143.431 228 130 241.431 130 258L130 262C130 278.569 143.431 292 160 292H228V360C228 376.569 241.431 390 258 390H262C278.569 390 292 376.569 292 360V292L360 292C376.569 292 390 278.569 390 262V258C390 241.431 376.569 228 360 228H292L292 160Z" fill="white" fill-opacity="0.7"/>
<path d="M362.5 255.67C365.833 257.594 365.833 262.406 362.5 264.33L341.5 276.454C338.167 278.379 334 275.973 334 272.124L334 247.876C334 244.027 338.167 241.621 341.5 243.546L362.5 255.67Z" fill="white"/>
<path d="M264.33 362.5C262.406 365.833 257.594 365.833 255.67 362.5L243.546 341.5C241.621 338.167 244.027 334 247.876 334L272.124 334C275.973 334 278.379 338.167 276.454 341.5L264.33 362.5Z" fill="white"/>
<path d="M255.67 157.5C257.594 154.167 262.406 154.167 264.33 157.5L276.454 178.5C278.379 181.833 275.973 186 272.124 186H247.876C244.027 186 241.621 181.833 243.546 178.5L255.67 157.5Z" fill="white"/>
<path d="M157.5 264.33C154.167 262.406 154.167 257.594 157.5 255.67L178.5 243.546C181.833 241.621 186 244.027 186 247.876L186 272.124C186 275.973 181.833 278.379 178.5 276.454L157.5 264.33Z" fill="white"/>
<defs>
<linearGradient id="paint0_linear_1318_198" x1="100" y1="100" x2="600" y2="600" gradientUnits="userSpaceOnUse">
<stop offset="0.0684898" stop-color="#621200"/>
<stop offset="0.741212" stop-color="#5B2C00"/>
</linearGradient>
</defs>
</svg>
