<svg fill="none" viewBox="0 0 500 500"><path fill="#000" fill-rule="evenodd" d="M100 0C45 0 0 45 0 100v150A250 250 0 1 0 250 0h-58v128h134c56 0 102 46 102 102 0 109-89 198-198 198-56 0-102-46-102-102V192H0v-64h128V0Zm92 326V192h134c21 0 38 17 38 38 0 74-60 134-134 134-21 0-38-17-38-38" clip-rule="evenodd"/><path stroke="#000" stroke-width="30" d="M128 15h-15v98H15v94h98v98h94v-98h98v-94h-98V15h-15z"/><path fill="#000" d="M263 156q5 4 0 8l-21 12q-7 3-8-4v-24q1-6 8-4zm-99 107q-4 5-8 0l-12-21q-3-7 4-8h24q7 1 4 8zm-8-205q4-6 8 0l12 21q3 6-4 7h-24q-6-1-4-7zM58 164q-6-4 0-8l21-12q6-3 7 4v24q-1 7-7 4z"/></svg>