<?xml version="1.0" encoding="UTF-8" standalone="no"?>
<svg width="42" height="38" viewBox="0 0 42 38" fill="none" version="1.1" id="svg10" sodipodi:docname="framework-white.svg" inkscape:version="1.4.2 (ebf0e940d0, 2025-05-08)" xmlns:inkscape="http://www.inkscape.org/namespaces/inkscape" xmlns:sodipodi="http://sodipodi.sourceforge.net/DTD/sodipodi-0.dtd" xmlns="http://www.w3.org/2000/svg" xmlns:svg="http://www.w3.org/2000/svg">
  <defs id="defs10"/>
  <sodipodi:namedview id="namedview10" pagecolor="#ffffff" bordercolor="#000000" borderopacity="0.25" inkscape:showpageshadow="2" inkscape:pageopacity="0.0" inkscape:pagecheckerboard="0" inkscape:deskcolor="#d1d1d1" inkscape:zoom="7.0264317" inkscape:cx="11.10094" inkscape:cy="14.943574" inkscape:window-width="1694" inkscape:window-height="1057" inkscape:window-x="0" inkscape:window-y="0" inkscape:window-maximized="1" inkscape:current-layer="svg10"/>
  <path d="m 35.386171,15.148852 -2.2831,-1.35395 c -1.0689,-0.6361 -1.7296,-1.808799 -1.7296,-3.077459 V 8.0095631 c 0,-0.55437 -0.2456,-1.07675 -0.6642,-1.42501 -1.2453,-1.03411 -2.6463,-1.872774 -4.1614,-2.473341 -0.5051,-0.1990039 -1.0689,-0.1599138 -1.5359,0.117271 l -2.2865,1.35749 c -1.0689,0.63611 -2.3869,0.63611 -3.4592,0 l -2.2866,-1.35749 c -0.467,-0.2771848 -1.0343,-0.3198286 -1.53587,-0.117271 -1.518591,0.600567 -2.916111,1.439231 -4.157971,2.469791 -0.41856,0.34825 -0.66416,0.87064 -0.66416,1.42501 v 2.7078799 c 0,1.26865 -0.6572498,2.441359 -1.7296098,3.077459 l -2.28307,1.3539 c -0.466996,0.2772 -0.785243,0.757 -0.868264,1.3042 -0.12799,0.8067 -0.190256,1.6312 -0.190256,2.4698 0,0.8387 0.06227,1.6631 0.186797,2.4662 0.08302,0.5473 0.401268,1.0306 0.868263,1.3078 l 2.28307,1.3539 c 1.0689,0.6361 1.7296098,1.8088 1.7296098,3.0775 v 2.7079 c 0,0.5543 0.2456,1.0767 0.66416,1.425 1.24186,1.0305 2.64284,1.8692 4.157971,2.4698 0.50503,0.199 1.06893,0.1599 1.53593,-0.1173 l 2.2865,-1.3575 c 1.0689,-0.6361 2.3868,-0.6361 3.4592,0 l 2.2865,1.3575 c 0.467,0.2772 1.0343,0.3163 1.5359,0.1173 1.5152,-0.6006 2.9161,-1.4393 4.158,-2.4698 0.4186,-0.3483 0.6642,-0.8707 0.6642,-1.425 v -2.7079 c 0,-1.2687 0.6607,-2.4414 1.7296,-3.0775 l 2.283,-1.3539 c 0.467,-0.2772 0.7853,-0.7569 0.8683,-1.3078 0.1211,-0.8031 0.1868,-1.6275 0.1868,-2.4662 0,-0.8386 -0.0623,-1.6631 -0.1868,-2.4662 -0.0796,-0.5473 -0.3944,-1.027 -0.8613,-1.3042 z m -14.3903,13.3049 c -5.1231,0 -9.277641,-4.268 -9.277641,-9.5309 0,-5.26299 4.154541,-9.5309189 9.277641,-9.5309189 5.123,0 9.2775,4.2679289 9.2775,9.5309189 0,5.2629 -4.1545,9.5309 -9.2775,9.5309 z" fill="white" id="path10" style="fill:#ffffff"/>
</svg>