<?xml version="1.0" encoding="UTF-8" standalone="no"?>
<svg
   width="600"
   height="600"
   viewBox="0 0 600 600"
   fill="none"
   version="1.1"
   id="svg6"
   xmlns="http://www.w3.org/2000/svg"
   xmlns:svg="http://www.w3.org/2000/svg">
  <defs
     id="defs6" />
  <path
     fill-rule="evenodd"
     clip-rule="evenodd"
     d="M 150,50 C 94.7715,50 50,94.7715 50,150 v 92 58 C 50,438.071 161.929,550 300,550 438.071,550 550,438.071 550,300 550,161.929 438.071,50 300,50 H 242 V 178 H 376.185 C 432.416,178 478,223.584 478,279.815 478,389.269 389.27,478 279.815,478 223.584,478 178,432.416 178,376.185 V 242 H 50 V 178 H 178 V 50 Z m 92,326.185 V 242 H 376.185 C 397.07,242 414,258.93 414,279.815 414,353.923 353.923,414 279.815,414 258.93,414 242,397.07 242,376.185 Z"
     fill="#ffffff"
     id="path1" />
  <path
     d="m 178,65 h -15 v 15 83 H 80 65 v 15 64 15 h 15 83 v 83 15 h 15 64 15 v -15 -83 h 83 15 V 242 178 163 H 340 257 V 80 65 h -15 z"
     stroke="#ffffff"
     stroke-width="30"
     id="path2" />
  <path
     d="m 312.5,205.67 c 3.333,1.924 3.333,6.736 0,8.66 l -21,12.124 c -3.333,1.925 -7.5,-0.481 -7.5,-4.33 v -24.248 c 0,-3.849 4.167,-6.255 7.5,-4.33 z"
     fill="#ffffff"
     id="path3" />
  <path
     d="m 214.33,312.5 c -1.924,3.333 -6.736,3.333 -8.66,0 l -12.124,-21 c -1.925,-3.333 0.481,-7.5 4.33,-7.5 h 24.248 c 3.849,0 6.255,4.167 4.33,7.5 z"
     fill="#ffffff"
     id="path4" />
  <path
     d="m 205.67,107.5 c 1.924,-3.333 6.736,-3.333 8.66,0 l 12.124,21 c 1.925,3.333 -0.481,7.5 -4.33,7.5 h -24.248 c -3.849,0 -6.255,-4.167 -4.33,-7.5 z"
     fill="#ffffff"
     id="path5" />
  <path
     d="m 107.5,214.33 c -3.333,-1.924 -3.333,-6.736 0,-8.66 l 21,-12.124 c 3.333,-1.925 7.5,0.481 7.5,4.33 v 24.248 c 0,3.849 -4.167,6.255 -7.5,4.33 z"
     fill="#ffffff"
     id="path6" />
</svg>
