<?xml version="1.0" encoding="UTF-8" standalone="no"?>
<svg
   width="600"
   height="600"
   viewBox="0 0 600 600"
   fill="none"
   version="1.1"
   id="svg8"
   xmlns="http://www.w3.org/2000/svg"
   xmlns:svg="http://www.w3.org/2000/svg">
  <path
     d="M 50,150 C 50,94.7715 94.7715,50 150,50 h 150 c 138.071,0 250,111.929 250,250 v 0 c 0,138.071 -111.929,250 -250,250 v 0 C 161.929,550 50,438.071 50,300 Z"
     fill="url(#paint0_linear_1016_105)"
     id="path1"
     style="fill:url(#paint0_linear_1016_105)" />
  <path
     fill-rule="evenodd"
     clip-rule="evenodd"
     d="m 178,50 h 64 V 178 H 376.185 C 432.416,178 478,223.584 478,279.815 478,389.269 389.27,478 279.815,478 223.584,478 178,432.416 178,376.185 V 242 H 50 v -64 h 128 z m 64,192 V 376.185 C 242,397.07 258.93,414 279.815,414 353.923,414 414,353.923 414,279.815 414,258.93 397.07,242 376.185,242 Z"
     fill="#ffffff"
     fill-opacity="0.5"
     id="path2" />
  <path
     d="M 242,110 C 242,93.4315 228.569,80 212,80 h -4 c -16.569,0 -30,13.4315 -30,30 v 68 h -68 c -16.5685,0 -30,13.431 -30,30 v 4 c 0,16.569 13.4315,30 30,30 h 68 v 68 c 0,16.569 13.431,30 30,30 h 4 c 16.569,0 30,-13.431 30,-30 v -68 h 68 c 16.569,0 30,-13.431 30,-30 v -4 c 0,-16.569 -13.431,-30 -30,-30 h -68 z"
     fill="#ffffff"
     fill-opacity="0.7"
     id="path3" />
  <path
     d="m 312.5,205.67 c 3.333,1.924 3.333,6.736 0,8.66 l -21,12.124 c -3.333,1.925 -7.5,-0.481 -7.5,-4.33 v -24.248 c 0,-3.849 4.167,-6.255 7.5,-4.33 z"
     fill="#ffffff"
     id="path4" />
  <path
     d="m 214.33,312.5 c -1.924,3.333 -6.736,3.333 -8.66,0 l -12.124,-21 c -1.925,-3.333 0.481,-7.5 4.33,-7.5 h 24.248 c 3.849,0 6.255,4.167 4.33,7.5 z"
     fill="#ffffff"
     id="path5" />
  <path
     d="m 205.67,107.5 c 1.924,-3.333 6.736,-3.333 8.66,0 l 12.124,21 c 1.925,3.333 -0.481,7.5 -4.33,7.5 h -24.248 c -3.849,0 -6.255,-4.167 -4.33,-7.5 z"
     fill="#ffffff"
     id="path6" />
  <path
     d="m 107.5,214.33 c -3.333,-1.924 -3.333,-6.736 0,-8.66 l 21,-12.124 c 3.333,-1.925 7.5,0.481 7.5,4.33 v 24.248 c 0,3.849 -4.167,6.255 -7.5,4.33 z"
     fill="#ffffff"
     id="path7" />
  <defs
     id="defs8">
    <linearGradient
       id="paint0_linear_1016_105"
       x1="50"
       y1="50"
       x2="550"
       y2="550"
       gradientUnits="userSpaceOnUse">
      <stop
         offset="0.0684898"
         stop-color="#0047AB"
         id="stop7" />
      <stop
         offset="0.741212"
         stop-color="#8A2BE2"
         id="stop8" />
    </linearGradient>
  </defs>
</svg>
