<?xml version="1.0" encoding="UTF-8" standalone="no"?>
<svg
   width="1763.67"
   height="654.97595"
   viewBox="0 0 1763.67 654.97595"
   fill="none"
   version="1.1"
   id="svg75"
   sodipodi:docname="Bazzite_Tagline_Light_BG.svg"
   inkscape:version="1.3.2 (091e20ef0f, 2023-11-25)"
   xmlns:inkscape="http://www.inkscape.org/namespaces/inkscape"
   xmlns:sodipodi="http://sodipodi.sourceforge.net/DTD/sodipodi-0.dtd"
   xmlns="http://www.w3.org/2000/svg"
   xmlns:svg="http://www.w3.org/2000/svg">
  <path
     style="font-weight:bold;font-size:90.6667px;font-family:'DM Sans';-inkscape-font-specification:'DM Sans Bold';fill:#5835ce;fill-opacity:1"
     d="m 162.93352,524.60028 v -53.58402 h -18.58668 v -9.88267 h 49.32269 v 9.88267 h -18.58668 v 53.58402 z m 34.7067,0 v -63.46669 h 12.05867 v 26.02134 h 0.36266 q 2.35734,-4.17067 6.16534,-6.34667 3.808,-2.26666 8.976,-2.26666 5.44001,0 9.24801,2.448 3.808,2.35733 5.80267,6.98133 1.99466,4.624 1.99466,11.42401 v 25.20534 H 230.0989 v -24.11734 q 0,-5.62134 -2.26667,-8.61334 -2.176,-2.992 -7.072,-2.992 -3.17334,0 -5.62134,1.54133 -2.448,1.45067 -3.89867,4.26134 -1.36,2.72 -1.36,6.70933 v 23.21068 z m 73.53074,1.088 q -6.89067,0 -12.24001,-2.90133 -5.25866,-2.90134 -8.25067,-8.16001 -2.992,-5.25867 -2.992,-12.05867 0,-7.072 2.90134,-12.42134 2.992,-5.44 8.25067,-8.52267 5.34933,-3.08266 12.33067,-3.08266 6.8,0 11.87734,2.90133 5.07733,2.90133 7.97867,7.97867 2.90133,4.98667 2.90133,11.33334 0,0.90667 -0.0907,2.08533 0,1.088 -0.0907,2.26667 h -37.35468 v -7.52534 h 25.11467 q -0.272,-4.26133 -3.17333,-6.8 -2.81067,-2.53867 -7.072,-2.53867 -3.17334,0 -5.80267,1.45067 -2.62934,1.36 -4.17067,4.26134 -1.54134,2.81066 -1.54134,7.16266 v 2.62934 q 0,3.71733 1.45067,6.43734 1.45067,2.62933 3.98934,4.08 2.62933,1.45066 5.89333,1.45066 3.35467,0 5.62134,-1.45066 2.26667,-1.54134 3.44533,-3.89867 h 12.42134 q -1.26933,4.26133 -4.26133,7.79733 -2.99201,3.44534 -7.34401,5.53067 -4.352,1.99467 -9.792,1.99467 z m 46.33078,-1.088 V 479.6296 h 10.42668 l 1.088,7.344 h 0.36266 q 2.176,-3.98934 5.89334,-6.16534 3.71733,-2.26666 9.33867,-2.26666 5.62133,0 9.52,2.448 3.89867,2.35733 5.89334,6.98133 2.08533,4.624 2.08533,11.42401 v 25.20534 h -12.24 v -24.11734 q 0,-5.62134 -2.26667,-8.61334 -2.26667,-2.992 -7.16267,-2.992 -3.08267,0 -5.53067,1.54133 -2.448,1.45067 -3.808,4.26134 -1.36,2.72 -1.36,6.70933 v 23.21068 z m 73.53065,1.088 q -6.89067,0 -12.24,-2.90133 -5.25867,-2.90134 -8.25067,-8.16001 -2.992,-5.25867 -2.992,-12.05867 0,-7.072 2.90133,-12.42134 2.992,-5.44 8.25067,-8.52267 5.34934,-3.08266 12.33067,-3.08266 6.80001,0 11.87734,2.90133 5.07734,2.90133 7.97867,7.97867 2.90134,4.98667 2.90134,11.33334 0,0.90667 -0.0907,2.08533 0,1.088 -0.0907,2.26667 h -37.35468 v -7.52534 h 25.11468 q -0.272,-4.26133 -3.17334,-6.8 -2.81066,-2.53867 -7.072,-2.53867 -3.17333,0 -5.80267,1.45067 -2.62933,1.36 -4.17067,4.26134 -1.54133,2.81066 -1.54133,7.16266 v 2.62934 q 0,3.71733 1.45067,6.43734 1.45066,2.62933 3.98933,4.08 2.62934,1.45066 5.89334,1.45066 3.35467,0 5.62133,-1.45066 2.26667,-1.54134 3.44534,-3.89867 h 12.42134 q -1.26934,4.26133 -4.26134,7.79733 -2.992,3.44534 -7.344,5.53067 -4.352,1.99467 -9.79201,1.99467 z m 22.68545,-1.088 16.50134,-22.48534 -16.50134,-22.48534 h 13.23734 l 10.97067,15.504 h 0.36267 l 10.97067,-15.504 h 13.14667 l -16.50134,22.48534 16.50134,22.48534 h -13.14667 l -10.97067,-15.50401 h -0.36267 l -10.97067,15.50401 z m 73.2588,0 q -4.80533,0 -8.432,-1.45067 -3.536,-1.54133 -5.53067,-4.98667 -1.99467,-3.536 -1.99467,-9.61067 V 489.4216 h -7.70667 v -9.792 h 7.70667 l 1.36,-12.24001 h 10.88001 v 12.24001 h 11.968 v 9.792 h -11.968 v 19.31201 q 0,3.264 1.36,4.53333 1.36,1.17867 4.624,1.17867 h 5.712 v 10.15467 z m 51.58935,19.22134 q -6.43734,0 -11.33334,-1.54133 -4.80533,-1.54134 -7.52533,-4.624 -2.62934,-2.99201 -2.62934,-7.25334 0,-3.17333 1.632,-5.80267 1.632,-2.72 4.80534,-4.896 3.17333,-2.26667 7.79733,-3.89867 l 4.44267,6.07467 q -3.98933,1.36 -5.80267,3.264 -1.81333,1.904 -1.81333,4.352 0,1.81334 1.26933,3.08267 1.36,1.26933 3.71734,1.904 2.35733,0.72533 5.44,0.72533 3.08267,0 5.168,-0.72533 2.08534,-0.72533 3.17334,-2.08533 1.088,-1.26934 1.088,-2.992 0,-2.448 -1.72267,-3.80801 -1.72267,-1.26933 -6.70934,-1.632 -4.624,-0.36266 -8.16,-0.99733 -3.536,-0.72533 -6.256,-1.632 -2.62934,-0.99733 -4.53334,-2.176 -1.904,-1.17867 -3.08267,-2.35734 v -2.08533 l 9.70134,-9.97334 7.16267,2.72 -9.792,10.88001 3.264,-5.44 q 0.90667,0.36266 1.904,0.72533 0.99733,0.36267 2.448,0.72533 1.54133,0.36267 3.808,0.72534 2.35734,0.272 5.89334,0.63466 5.984,0.45334 9.792,2.08534 3.808,1.632 5.62134,4.44267 1.81333,2.81066 1.81333,6.89067 0,3.536 -2.26667,6.89067 -2.176,3.44533 -6.70933,5.62133 -4.53334,2.176 -11.60534,2.176 z m 0.0907,-32.54934 q -5.71201,0 -9.88267,-2.17601 -4.08001,-2.176 -6.34667,-5.89333 -2.176,-3.71734 -2.176,-8.25067 0,-4.53334 2.176,-8.25067 2.26666,-3.71734 6.34667,-5.89334 4.17066,-2.26666 9.88267,-2.26666 5.712,0 9.792,2.26666 4.17067,2.176 6.34667,5.89334 2.176,3.71733 2.176,8.25067 0,4.53333 -2.176,8.25067 -2.176,3.71733 -6.34667,5.89333 -4.08,2.17601 -9.792,2.17601 z m -0.0907,-8.88534 q 3.62667,0 5.80267,-1.81334 2.26667,-1.904 2.26667,-5.62133 0,-3.71734 -2.26667,-5.53067 -2.176,-1.904 -5.712,-1.904 -3.62667,0 -5.89334,1.904 -2.176,1.81333 -2.176,5.53067 0,3.71733 2.176,5.62133 2.26667,1.81334 5.80267,1.81334 z m 7.43467,-14.50667 -1.99467,-8.25067 h 18.85868 v 6.61867 z m 44.97065,37.80801 q -6.89067,0 -12.24,-2.90133 -5.25867,-2.90134 -8.25067,-8.16001 -2.992,-5.25867 -2.992,-12.05867 0,-7.072 2.90133,-12.42134 2.992,-5.44 8.25067,-8.52267 5.34934,-3.08266 12.33067,-3.08266 6.80001,0 11.87734,2.90133 5.07734,2.90133 7.97867,7.97867 2.90134,4.98667 2.90134,11.33334 0,0.90667 -0.0907,2.08533 0,1.088 -0.0907,2.26667 h -37.35468 v -7.52534 h 25.11468 q -0.272,-4.26133 -3.17334,-6.8 -2.81067,-2.53867 -7.072,-2.53867 -3.17333,0 -5.80267,1.45067 -2.62933,1.36 -4.17067,4.26134 -1.54133,2.81066 -1.54133,7.16266 v 2.62934 q 0,3.71733 1.45067,6.43734 1.45066,2.62933 3.98933,4.08 2.62934,1.45066 5.89334,1.45066 3.35466,0 5.62133,-1.45066 2.26667,-1.54134 3.44534,-3.89867 h 12.42133 q -1.26933,4.26133 -4.26133,7.79733 -2.992,3.44534 -7.344,5.53067 -4.352,1.99467 -9.79201,1.99467 z m 28.19737,-1.088 V 479.6296 h 10.42667 l 1.088,7.344 h 0.36266 q 2.176,-3.98934 5.89334,-6.16534 3.71733,-2.26666 9.33867,-2.26666 5.62134,0 9.52,2.448 3.89867,2.35733 5.89334,6.98133 2.08533,4.624 2.08533,11.42401 v 25.20534 h -12.24 v -24.11734 q 0,-5.62134 -2.26667,-8.61334 -2.26667,-2.992 -7.16267,-2.992 -3.08267,0 -5.53067,1.54133 -2.448,1.45067 -3.808,4.26134 -1.36,2.72 -1.36,6.70933 v 23.21068 z m 73.53063,1.088 q -6.89067,0 -12.24,-2.90133 -5.25867,-2.90134 -8.25067,-8.16001 -2.99201,-5.25867 -2.99201,-12.05867 0,-7.072 2.90134,-12.42134 2.992,-5.44 8.25067,-8.52267 5.34933,-3.08266 12.33067,-3.08266 6.8,0 11.87734,2.90133 5.07733,2.90133 7.97867,7.97867 2.90133,4.98667 2.90133,11.33334 0,0.90667 -0.0907,2.08533 0,1.088 -0.0907,2.26667 h -37.35468 v -7.52534 h 25.11467 q -0.272,-4.26133 -3.17333,-6.8 -2.81067,-2.53867 -7.072,-2.53867 -3.17334,0 -5.80267,1.45067 -2.62934,1.36 -4.17067,4.26134 -1.54133,2.81066 -1.54133,7.16266 v 2.62934 q 0,3.71733 1.45066,6.43734 1.45067,2.62933 3.98934,4.08 2.62933,1.45066 5.89333,1.45066 3.35467,0 5.62134,-1.45066 2.26667,-1.54134 3.44533,-3.89867 h 12.42134 q -1.26933,4.26133 -4.26133,7.79733 -2.992,3.44534 -7.34401,5.53067 -4.352,1.99467 -9.792,1.99467 z m 28.19739,-1.088 V 479.6296 h 10.42667 l 1.088,9.88267 h 0.36267 q 1.99467,-4.80534 4.352,-7.07201 2.35734,-2.35733 5.34934,-3.08266 3.08267,-0.816 6.89067,-0.816 v 12.96533 h -3.35467 q -3.08267,0 -5.53067,0.72534 -2.35733,0.63466 -3.98933,2.176 -1.632,1.45067 -2.53867,3.89867 -0.816,2.448 -0.816,5.89333 v 20.40001 z m 47.23726,1.088 q -5.34933,0 -8.88533,-1.81333 -3.44534,-1.81334 -5.07734,-4.896 -1.632,-3.08267 -1.632,-6.80001 0,-4.17067 2.08534,-7.344 2.176,-3.17333 6.528,-4.896 4.352,-1.81334 10.97067,-1.81334 h 11.33334 q 0,-3.35466 -0.99734,-5.53067 -0.90666,-2.176 -2.90133,-3.264 -1.904,-1.088 -4.896,-1.088 -3.536,0 -6.07467,1.632 -2.448,1.54134 -3.08267,4.89601 h -11.87734 q 0.544,-4.98667 3.264,-8.61334 2.81067,-3.62667 7.34401,-5.62134 4.624,-1.99466 10.42667,-1.99466 6.528,0 11.24267,2.176 4.71467,2.08533 7.25333,6.256 2.53867,4.08 2.53867,9.97334 v 27.65334 h -10.15467 l -1.26933,-6.98134 h -0.36267 q -1.45067,1.99467 -3.17333,3.53601 -1.63201,1.54133 -3.62667,2.53866 -1.99467,0.99734 -4.26134,1.45067 -2.26667,0.544 -4.71467,0.544 z m 3.98934,-9.42934 q 2.53867,0 4.352,-0.816 1.904,-0.90666 3.264,-2.35733 1.36,-1.45067 2.08534,-3.35467 0.816,-1.99467 1.088,-4.08 v 0 h -9.42934 q -2.81067,0 -4.624,0.72533 -1.72267,0.63467 -2.53867,1.904 -0.816,1.17867 -0.816,2.81067 0,1.632 0.816,2.81067 0.816,1.17867 2.35733,1.81333 1.54134,0.544 3.44534,0.544 z m 50.33885,8.34134 q -4.80534,0 -8.43201,-1.45067 -3.536,-1.54133 -5.53067,-4.98667 -1.99466,-3.536 -1.99466,-9.61067 V 489.4216 h -7.70667 v -9.792 h 7.70667 l 1.36,-12.24001 h 10.88 v 12.24001 h 11.96801 v 9.792 h -11.96801 v 19.31201 q 0,3.264 1.36,4.53333 1.36,1.17867 4.624,1.17867 h 5.71201 v 10.15467 z m 13.78134,0 V 479.6296 h 12.24 v 44.97068 z m 6.16533,-50.68269 q -3.35466,0 -5.53066,-1.904 -2.08534,-1.99466 -2.08534,-4.98667 0,-2.992 2.08534,-4.98666 2.176,-1.99467 5.53066,-1.99467 3.35467,0 5.44001,1.99467 2.08533,1.99466 2.08533,4.98666 0,2.90134 -2.08533,4.89601 -2.08534,1.99466 -5.44001,1.99466 z m 36.53866,51.77069 q -6.528,0 -11.78667,-2.992 -5.25867,-2.992 -8.34133,-8.34134 -2.99201,-5.34933 -2.99201,-12.24 0,-6.98134 3.08267,-12.24001 3.08267,-5.34933 8.34134,-8.34133 5.25867,-2.992 11.696,-2.992 6.52801,0 11.78667,2.992 5.25867,2.992 8.25067,8.34133 3.08267,5.25867 3.08267,12.24001 0,6.98133 -3.08267,12.33067 -3.08266,5.25867 -8.34133,8.25067 -5.168,2.992 -11.69601,2.992 z m -0.0907,-10.336 q 2.992,0 5.34933,-1.45067 2.448,-1.45067 3.89867,-4.352 1.45067,-2.992 1.45067,-7.43467 0,-4.44267 -1.45067,-7.344 -1.45067,-2.99201 -3.89867,-4.44267 -2.35733,-1.45067 -5.168,-1.45067 -2.90133,0 -5.34934,1.45067 -2.448,1.45066 -3.89866,4.44267 -1.45067,2.90133 -1.45067,7.344 0,4.44267 1.45067,7.43467 1.45066,2.90133 3.808,4.352 2.448,1.45067 5.25867,1.45067 z m 29.10391,9.248 V 479.6296 h 10.42667 l 1.088,7.344 h 0.36267 q 2.176,-3.98934 5.89333,-6.16534 3.71734,-2.26666 9.33867,-2.26666 5.62134,0 9.52001,2.448 3.89866,2.35733 5.89333,6.98133 2.08534,4.624 2.08534,11.42401 v 25.20534 H 940.3287 v -24.11734 q 0,-5.62134 -2.26667,-8.61334 -2.26666,-2.992 -7.16267,-2.992 -3.08266,0 -5.53066,1.54133 -2.44801,1.45067 -3.80801,4.26134 -1.36,2.72 -1.36,6.70933 v 23.21068 z m 91.30139,1.088 q -6.528,0 -11.78667,-2.992 -5.25867,-2.992 -8.34134,-8.34134 -2.992,-5.34933 -2.992,-12.24 0,-6.98134 3.08267,-12.24001 3.08267,-5.34933 8.34133,-8.34133 5.25867,-2.992 11.69601,-2.992 6.52802,0 11.78672,2.992 5.2587,2.992 8.2507,8.34133 3.0826,5.25867 3.0826,12.24001 0,6.98133 -3.0826,12.33067 -3.0827,5.25867 -8.3414,8.25067 -5.168,2.992 -11.69602,2.992 z m -0.0907,-10.336 q 2.99202,0 5.34932,-1.45067 2.448,-1.45067 3.8987,-4.352 1.4506,-2.992 1.4506,-7.43467 0,-4.44267 -1.4506,-7.344 -1.4507,-2.99201 -3.8987,-4.44267 -2.3573,-1.45067 -5.16798,-1.45067 -2.90134,0 -5.34934,1.45067 -2.448,1.45066 -3.89867,4.44267 -1.45067,2.90133 -1.45067,7.344 0,4.44267 1.45067,7.43467 1.45067,2.90133 3.808,4.352 2.448,1.45067 5.25867,1.45067 z m 32.45862,9.248 V 476.6376 q 0,-5.71201 1.904,-9.06667 1.9947,-3.35467 5.5307,-4.89601 3.536,-1.54133 8.3413,-1.54133 h 4.9867 v 10.15467 h -3.0827 q -2.9013,0 -4.1707,1.17867 -1.2693,1.17866 -1.2693,3.98933 v 48.14402 z m -6.0747,-35.17868 v -9.792 h 27.8347 v 9.792 z m 50.9548,35.17868 v -63.46669 h 12.24 v 53.94669 h 27.8347 v 9.52 z m 46.512,0 V 479.6296 h 12.24 v 44.97068 z m 6.1654,-50.68269 q -3.3547,0 -5.5307,-1.904 -2.0853,-1.99466 -2.0853,-4.98667 0,-2.992 2.0853,-4.98666 2.176,-1.99467 5.5307,-1.99467 3.3546,0 5.44,1.99467 2.0853,1.99466 2.0853,4.98666 0,2.90134 -2.0853,4.89601 -2.0854,1.99466 -5.44,1.99466 z m 14.7786,50.68269 V 479.6296 h 10.4267 l 1.088,7.344 h 0.3627 q 2.176,-3.98934 5.8933,-6.16534 3.7173,-2.26666 9.3387,-2.26666 5.6213,0 9.52,2.448 3.8986,2.35733 5.8933,6.98133 2.0853,4.624 2.0853,11.42401 v 25.20534 h -12.24 v -24.11734 q 0,-5.62134 -2.2666,-8.61334 -2.2667,-2.992 -7.1627,-2.992 -3.0827,0 -5.5307,1.54133 -2.448,1.45067 -3.808,4.26134 -1.36,2.72 -1.36,6.70933 v 23.21068 z m 68.4533,1.088 q -5.5306,0 -9.4293,-2.35733 -3.8987,-2.35734 -5.984,-6.98134 -2.0854,-4.71467 -2.0854,-11.51467 V 479.6296 h 12.1494 v 24.11734 q 0,5.62133 2.2667,8.61334 2.3573,2.992 7.2533,2.992 3.1733,0 5.5307,-1.45067 2.448,-1.54133 3.808,-4.352 1.36,-2.81067 1.36,-6.70934 V 479.6296 h 12.24 v 44.97068 h -10.4267 l -1.088,-7.16267 h -0.3627 q -2.0853,3.808 -5.8933,6.07467 -3.7173,2.176 -9.3387,2.176 z m 31.1893,-1.088 16.5013,-22.48534 -16.5013,-22.48534 h 13.2373 l 10.9707,15.504 h 0.3627 l 10.9707,-15.504 h 13.1466 l -16.5013,22.48534 16.5013,22.48534 h -13.1466 l -10.9707,-15.50401 h -0.3627 l -10.9707,15.50401 z m 92.027,19.22134 q -6.4374,0 -11.3334,-1.54133 -4.8053,-1.54134 -7.5253,-4.624 -2.6294,-2.99201 -2.6294,-7.25334 0,-3.17333 1.632,-5.80267 1.632,-2.72 4.8054,-4.896 3.1733,-2.26667 7.7973,-3.89867 l 4.4427,6.07467 q -3.9893,1.36 -5.8027,3.264 -1.8133,1.904 -1.8133,4.352 0,1.81334 1.2693,3.08267 1.36,1.26933 3.7174,1.904 2.3573,0.72533 5.44,0.72533 3.0826,0 5.168,-0.72533 2.0853,-0.72533 3.1733,-2.08533 1.088,-1.26934 1.088,-2.992 0,-2.448 -1.7227,-3.80801 -1.7226,-1.26933 -6.7093,-1.632 -4.624,-0.36266 -8.16,-0.99733 -3.536,-0.72533 -6.256,-1.632 -2.6294,-0.99733 -4.5334,-2.176 -1.904,-1.17867 -3.0826,-2.35734 v -2.08533 l 9.7013,-9.97334 7.1627,2.72 -9.792,10.88001 3.264,-5.44 q 0.9066,0.36266 1.904,0.72533 0.9973,0.36267 2.448,0.72533 1.5413,0.36267 3.808,0.72534 2.3573,0.272 5.8933,0.63466 5.984,0.45334 9.792,2.08534 3.808,1.632 5.6214,4.44267 1.8133,2.81066 1.8133,6.89067 0,3.536 -2.2667,6.89067 -2.176,3.44533 -6.7093,5.62133 -4.5333,2.176 -11.6053,2.176 z m 0.091,-32.54934 q -5.712,0 -9.8827,-2.17601 -4.08,-2.176 -6.3466,-5.89333 -2.176,-3.71734 -2.176,-8.25067 0,-4.53334 2.176,-8.25067 2.2666,-3.71734 6.3466,-5.89334 4.1707,-2.26666 9.8827,-2.26666 5.712,0 9.792,2.26666 4.1707,2.176 6.3467,5.89334 2.176,3.71733 2.176,8.25067 0,4.53333 -2.176,8.25067 -2.176,3.71733 -6.3467,5.89333 -4.08,2.17601 -9.792,2.17601 z m -0.091,-8.88534 q 3.6266,0 5.8026,-1.81334 2.2667,-1.904 2.2667,-5.62133 0,-3.71734 -2.2667,-5.53067 -2.176,-1.904 -5.712,-1.904 -3.6266,0 -5.8933,1.904 -2.176,1.81333 -2.176,5.53067 0,3.71733 2.176,5.62133 2.2667,1.81334 5.8027,1.81334 z m 7.4346,-14.50667 -1.9946,-8.25067 h 18.8586 v 6.61867 z m 37.536,37.80801 q -5.3494,0 -8.8854,-1.81333 -3.4453,-1.81334 -5.0773,-4.896 -1.632,-3.08267 -1.632,-6.80001 0,-4.17067 2.0853,-7.344 2.176,-3.17333 6.528,-4.896 4.352,-1.81334 10.9707,-1.81334 h 11.3333 q 0,-3.35466 -0.9973,-5.53067 -0.9067,-2.176 -2.9013,-3.264 -1.904,-1.088 -4.896,-1.088 -3.536,0 -6.0747,1.632 -2.448,1.54134 -3.0827,4.89601 h -11.8773 q 0.544,-4.98667 3.264,-8.61334 2.8107,-3.62667 7.344,-5.62134 4.624,-1.99466 10.4267,-1.99466 6.528,0 11.2426,2.176 4.7147,2.08533 7.2534,6.256 2.5387,4.08 2.5387,9.97334 v 27.65334 h -10.1547 l -1.2694,-6.98134 h -0.3626 q -1.4507,1.99467 -3.1734,3.53601 -1.632,1.54133 -3.6266,2.53866 -1.9947,0.99734 -4.2614,1.45067 -2.2666,0.544 -4.7146,0.544 z m 3.9893,-9.42934 q 2.5387,0 4.352,-0.816 1.904,-0.90666 3.264,-2.35733 1.36,-1.45067 2.0853,-3.35467 0.816,-1.99467 1.088,-4.08 v 0 h -9.4293 q -2.8107,0 -4.624,0.72533 -1.7227,0.63467 -2.5387,1.904 -0.816,1.17867 -0.816,2.81067 0,1.632 0.816,2.81067 0.816,1.17867 2.3574,1.81333 1.5413,0.544 3.4453,0.544 z m 30.3733,8.34134 V 479.6296 h 10.6987 l 0.9973,7.52533 h 0.3627 q 2.0853,-4.26133 5.8027,-6.43733 3.7173,-2.176 8.6133,-2.176 3.3547,0 6.1653,0.90666 2.9014,0.90667 5.0774,2.90134 2.176,1.904 3.6266,5.07733 h 0.3627 q 2.5387,-4.17067 6.256,-6.528 3.808,-2.35733 9.6107,-2.35733 5.168,0 8.976,2.448 3.808,2.35733 5.8027,6.98133 2.0853,4.624 2.0853,11.42401 v 25.20534 h -12.1493 v -24.11734 q 0,-5.62134 -2.176,-8.61334 -2.176,-2.992 -6.8,-2.992 -3.0827,0 -5.2587,1.36 -2.176,1.26933 -3.4454,3.89867 -1.2693,2.53867 -1.2693,6.34667 v 24.11734 h -12.1493 v -24.11734 q 0,-5.62134 -2.176,-8.61334 -2.176,-2.992 -6.8907,-2.992 -2.72,0 -4.9867,1.54133 -2.2666,1.45067 -3.6266,4.26134 -1.2694,2.72 -1.2694,6.70933 v 23.21068 z m 82.6881,0 V 479.6296 h 12.24 v 44.97068 z m 6.1654,-50.68269 q -3.3547,0 -5.5307,-1.904 -2.0853,-1.99466 -2.0853,-4.98667 0,-2.992 2.0853,-4.98666 2.176,-1.99467 5.5307,-1.99467 3.3546,0 5.44,1.99467 2.0853,1.99466 2.0853,4.98666 0,2.90134 -2.0853,4.89601 -2.0854,1.99466 -5.44,1.99466 z m 14.7786,50.68269 V 479.6296 h 10.4267 l 1.088,7.344 h 0.3626 q 2.176,-3.98934 5.8934,-6.16534 3.7173,-2.26666 9.3387,-2.26666 5.6213,0 9.52,2.448 3.8986,2.35733 5.8933,6.98133 2.0853,4.624 2.0853,11.42401 v 25.20534 h -12.24 v -24.11734 q 0,-5.62134 -2.2666,-8.61334 -2.2667,-2.992 -7.1627,-2.992 -3.0827,0 -5.5307,1.54133 -2.448,1.45067 -3.808,4.26134 -1.36,2.72 -1.36,6.70933 v 23.21068 z m 72.5333,19.22134 q -6.4373,0 -11.3333,-1.54133 -4.8054,-1.54134 -7.5254,-4.624 -2.6293,-2.99201 -2.6293,-7.25334 0,-3.17333 1.632,-5.80267 1.632,-2.72 4.8053,-4.896 3.1734,-2.26667 7.7974,-3.89867 l 4.4426,6.07467 q -3.9893,1.36 -5.8026,3.264 -1.8134,1.904 -1.8134,4.352 0,1.81334 1.2694,3.08267 1.36,1.26933 3.7173,1.904 2.3573,0.72533 5.44,0.72533 3.0827,0 5.168,-0.72533 2.0853,-0.72533 3.1733,-2.08533 1.088,-1.26934 1.088,-2.992 0,-2.448 -1.7226,-3.80801 -1.7227,-1.26933 -6.7094,-1.632 -4.624,-0.36266 -8.16,-0.99733 -3.536,-0.72533 -6.256,-1.632 -2.6293,-0.99733 -4.5333,-2.176 -1.904,-1.17867 -3.0827,-2.35734 v -2.08533 l 9.7014,-9.97334 7.1626,2.72 -9.792,10.88001 3.264,-5.44 q 0.9067,0.36266 1.904,0.72533 0.9974,0.36267 2.448,0.72533 1.5414,0.36267 3.808,0.72534 2.3574,0.272 5.8934,0.63466 5.984,0.45334 9.792,2.08534 3.808,1.632 5.6213,4.44267 1.8134,2.81066 1.8134,6.89067 0,3.536 -2.2667,6.89067 -2.176,3.44533 -6.7094,5.62133 -4.5333,2.176 -11.6053,2.176 z m 0.091,-32.54934 q -5.712,0 -9.8827,-2.17601 -4.08,-2.176 -6.3467,-5.89333 -2.176,-3.71734 -2.176,-8.25067 0,-4.53334 2.176,-8.25067 2.2667,-3.71734 6.3467,-5.89334 4.1707,-2.26666 9.8827,-2.26666 5.712,0 9.792,2.26666 4.1706,2.176 6.3466,5.89334 2.1761,3.71733 2.1761,8.25067 0,4.53333 -2.1761,8.25067 -2.176,3.71733 -6.3466,5.89333 -4.08,2.17601 -9.792,2.17601 z m -0.091,-8.88534 q 3.6267,0 5.8027,-1.81334 2.2666,-1.904 2.2666,-5.62133 0,-3.71734 -2.2666,-5.53067 -2.176,-1.904 -5.712,-1.904 -3.6267,0 -5.8934,1.904 -2.176,1.81333 -2.176,5.53067 0,3.71733 2.176,5.62133 2.2667,1.81334 5.8027,1.81334 z m 7.4347,-14.50667 -1.9947,-8.25067 h 18.8587 v 6.61867 z"
     id="text1"
     aria-label="The next generation of Linux gaming" />
  <sodipodi:namedview
     id="namedview1"
     pagecolor="#ffffff"
     bordercolor="#000000"
     borderopacity="0.25"
     inkscape:showpageshadow="2"
     inkscape:pageopacity="0.0"
     inkscape:pagecheckerboard="0"
     inkscape:deskcolor="#d1d1d1"
     inkscape:zoom="0.7611968"
     inkscape:cx="1265.113"
     inkscape:cy="192.46008"
     inkscape:window-width="3440"
     inkscape:window-height="1374"
     inkscape:window-x="0"
     inkscape:window-y="0"
     inkscape:window-maximized="1"
     inkscape:current-layer="g15" />
  <g
     clip-path="url(#clip0_1019_206)"
     id="g15">
    <path
       d="M 0,81.6 C 0,36.5336 36.5336,0 81.6,0 H 204 c 112.666,0 204,91.3339 204,204 v 0 c 0,112.666 -91.334,204 -204,204 v 0 C 91.3339,408 0,316.666 0,204 Z"
       fill="url(#paint0_linear_1019_206)"
       id="path1"
       style="fill:url(#paint0_linear_1019_206)" />
    <path
       fill-rule="evenodd"
       clip-rule="evenodd"
       d="m 104.448,0 h 52.224 v 104.448 h 109.495 c 45.884,0 83.081,37.197 83.081,83.081 0,89.315 -72.404,161.719 -161.719,161.719 -45.884,0 -83.081,-37.197 -83.081,-83.081 V 156.672 H 0 L 2.28278e-6,104.448 H 104.448 Z m 52.224,156.672 v 109.495 c 0,17.042 13.815,30.857 30.857,30.857 60.472,0 109.495,-49.023 109.495,-109.495 0,-17.042 -13.815,-30.857 -30.857,-30.857 z"
       fill="#ffffff"
       fill-opacity="0.5"
       id="path2" />
    <path
       d="m 156.672,50.592 c 0,-14.4213 -11.69,-26.112 -26.112,-26.112 v 0 c -14.421,0 -26.112,11.6907 -26.112,26.112 v 53.856 H 50.5925 c -14.4213,0 -26.112,11.691 -26.112,26.112 v 0 c 0,14.421 11.6907,26.112 26.112,26.112 h 53.8555 v 53.856 c 0,14.421 11.691,26.112 26.112,26.112 v 0 c 14.422,0 26.112,-11.691 26.112,-26.112 v -53.856 h 53.856 c 14.422,0 26.112,-11.691 26.112,-26.112 v 0 c 0,-14.421 -11.69,-26.112 -26.112,-26.112 h -53.856 z"
       fill="#ffffff"
       fill-opacity="0.7"
       id="path3" />
    <path
       d="m 212.82,126.23 c 3.334,1.924 3.334,6.736 0,8.66 l -14.376,8.3 c -3.333,1.925 -7.5,-0.481 -7.5,-4.33 v -16.6 c 0,-3.849 4.167,-6.255 7.5,-4.33 z"
       fill="#ffffff"
       id="path4" />
    <path
       d="m 134.89,212.82 c -1.925,3.333 -6.736,3.333 -8.661,0 l -8.3,-14.376 c -1.924,-3.333 0.482,-7.5 4.331,-7.5 h 16.6 c 3.849,0 6.254,4.167 4.33,7.5 z"
       fill="#ffffff"
       id="path5" />
    <path
       d="m 126.229,48.3 c 1.925,-3.3333 6.736,-3.3333 8.661,0 l 8.3,14.376 c 1.924,3.3333 -0.481,7.5 -4.33,7.5 h -16.6 c -3.849,0 -6.255,-4.1667 -4.331,-7.5 z"
       fill="#ffffff"
       id="path6" />
    <path
       d="m 48.2998,134.89 c -3.3333,-1.924 -3.3333,-6.736 0,-8.66 l 14.376,-8.3 c 3.3333,-1.925 7.5,0.481 7.5,4.33 v 16.6 c 0,3.849 -4.1667,6.255 -7.5,4.33 z"
       fill="#ffffff"
       id="path7" />
    <path
       d="m 590.025,346.835 c -20.02,0 -37.73,-4.235 -53.13,-12.705 -15.4,-8.47 -27.463,-20.533 -36.19,-36.19 C 492.235,282.027 488,263.29 488,241.73 V 61.165 h 44.275 V 175.51 h 0.385 c 4.107,-6.93 9.497,-12.962 16.17,-18.095 6.673,-5.133 14.117,-9.112 22.33,-11.935 8.213,-2.823 16.94,-4.235 26.18,-4.235 18.737,0 35.163,4.235 49.28,12.705 14.373,8.213 25.538,19.763 33.495,34.65 8.213,14.887 12.32,32.34 12.32,52.36 0,15.657 -2.438,30.03 -7.315,43.12 -4.62,12.833 -11.422,23.998 -20.405,33.495 -8.727,9.497 -19.378,16.812 -31.955,21.945 -12.577,4.877 -26.822,7.315 -42.735,7.315 z m 0,-37.73 c 11.293,0 21.303,-2.695 30.03,-8.085 8.727,-5.647 15.528,-13.347 20.405,-23.1 4.877,-9.753 7.315,-21.047 7.315,-33.88 0,-12.577 -2.438,-23.742 -7.315,-33.495 -4.877,-9.753 -11.678,-17.453 -20.405,-23.1 -8.47,-5.647 -18.352,-8.47 -29.645,-8.47 -11.293,0 -21.303,2.823 -30.03,8.47 -8.727,5.39 -15.528,12.962 -20.405,22.715 -4.877,9.753 -7.315,21.047 -7.315,33.88 0,12.833 2.438,24.127 7.315,33.88 4.877,9.753 11.678,17.453 20.405,23.1 8.727,5.39 18.608,8.085 29.645,8.085 z"
       fill="#ffffff"
       id="path8"
       style="fill:#5835ce;fill-opacity:1" />
    <path
       d="m 802.446,346.835 c -18.737,0 -34.907,-4.62 -48.51,-13.86 -13.604,-9.24 -24.127,-21.56 -31.57,-36.96 -7.187,-15.657 -10.78,-32.853 -10.78,-51.59 0,-19.507 4.106,-36.96 12.32,-52.36 8.47,-15.657 20.405,-27.977 35.805,-36.96 15.656,-9.24 34.265,-13.86 55.825,-13.86 21.303,0 39.398,4.62 54.285,13.86 15.143,8.983 26.693,21.303 34.65,36.96 8.213,15.4 12.32,32.597 12.32,51.59 v 98.56 H 872.516 V 305.64 h -0.77 c -3.85,7.187 -8.855,13.988 -15.015,20.405 -6.16,6.16 -13.732,11.165 -22.715,15.015 -8.984,3.85 -19.507,5.775 -31.57,5.775 z m 11.935,-37.73 c 11.55,0 21.56,-2.823 30.03,-8.47 8.726,-5.903 15.4,-13.732 20.02,-23.485 4.876,-10.01 7.315,-21.175 7.315,-33.495 0,-12.32 -2.31,-23.228 -6.93,-32.725 -4.62,-9.753 -11.165,-17.453 -19.635,-23.1 -8.47,-5.903 -18.609,-8.855 -30.415,-8.855 -12.32,0 -22.844,2.952 -31.57,8.855 -8.727,5.647 -15.4,13.347 -20.02,23.1 -4.62,9.753 -6.93,20.79 -6.93,33.11 0,12.063 2.31,23.1 6.93,33.11 4.62,9.753 11.165,17.582 19.635,23.485 8.726,5.647 19.25,8.47 31.57,8.47 z"
       fill="#ffffff"
       id="path9"
       style="fill:#5835ce;fill-opacity:1" />
    <path
       d="m 990.172,342.215 c -8.47,0 -16.041,-2.053 -22.715,-6.16 -6.673,-4.107 -12.063,-9.625 -16.17,-16.555 -3.85,-6.93 -5.775,-14.502 -5.775,-22.715 0,-8.213 2.054,-15.657 6.16,-22.33 4.107,-6.673 9.754,-12.448 16.94,-17.325 l 85.468,-55.825 c 2.57,-1.283 4.11,-2.695 4.62,-4.235 0.77,-1.54 1.16,-3.08 1.16,-4.62 0,-2.31 -0.9,-4.363 -2.7,-6.16 -1.54,-1.797 -3.72,-2.695 -6.54,-2.695 h -95.483 v -37.73 h 108.573 c 8.47,0 15.91,2.053 22.33,6.16 6.67,4.107 11.93,9.625 15.78,16.555 4.11,6.93 6.16,14.502 6.16,22.715 0,8.213 -2.05,15.657 -6.16,22.33 -4.1,6.673 -9.75,12.448 -16.94,17.325 l -85.083,55.825 c -2.31,1.283 -3.978,2.695 -5.005,4.235 -0.77,1.54 -1.155,3.08 -1.155,4.62 0,2.31 0.899,4.363 2.695,6.16 1.797,1.797 4.108,2.695 6.928,2.695 h 100.87 v 37.73 z"
       fill="#ffffff"
       id="path10"
       style="fill:#5835ce;fill-opacity:1" />
    <path
       d="m 1174.13,342.215 c -8.47,0 -16.04,-2.053 -22.71,-6.16 -6.68,-4.107 -12.07,-9.625 -16.17,-16.555 -3.85,-6.93 -5.78,-14.502 -5.78,-22.715 0,-8.213 2.05,-15.657 6.16,-22.33 4.11,-6.673 9.75,-12.448 16.94,-17.325 l 85.47,-55.825 c 2.57,-1.283 4.11,-2.695 4.62,-4.235 0.77,-1.54 1.16,-3.08 1.16,-4.62 0,-2.31 -0.9,-4.363 -2.7,-6.16 -1.54,-1.797 -3.72,-2.695 -6.54,-2.695 h -95.48 v -37.73 h 108.57 c 8.47,0 15.91,2.053 22.33,6.16 6.67,4.107 11.93,9.625 15.78,16.555 4.11,6.93 6.16,14.502 6.16,22.715 0,8.213 -2.05,15.657 -6.16,22.33 -4.11,6.673 -9.75,12.448 -16.94,17.325 l -85.08,55.825 c -2.31,1.283 -3.98,2.695 -5.01,4.235 -0.77,1.54 -1.15,3.08 -1.15,4.62 0,2.31 0.89,4.363 2.69,6.16 1.8,1.797 4.11,2.695 6.93,2.695 h 100.87 v 37.73 z"
       fill="#ffffff"
       id="path11"
       style="fill:#5835ce;fill-opacity:1" />
    <path
       d="m 1337.68,342.215 v -196.35 h 44.28 v 196.35 z"
       fill="#ffffff"
       id="path12"
       style="fill:#5835ce;fill-opacity:1" />
    <path
       d="m 1502.82,342.215 c -17.45,0 -31.18,-5.005 -41.19,-15.015 C 1451.87,317.19 1447,303.587 1447,286.39 V 96.585 h 43.89 v 187.88 c 0,5.903 1.79,10.78 5.39,14.63 3.59,3.593 8.34,5.39 14.24,5.39 h 41.2 v 37.73 z m -89.7,-158.62 v -37.73 h 138.98 v 37.73 z"
       fill="#ffffff"
       id="path13"
       style="fill:#5835ce;fill-opacity:1" />
    <path
       d="m 1686.29,342.215 c -22.08,0 -41.46,-4.107 -58.14,-12.32 -16.43,-8.47 -29.26,-20.02 -38.5,-34.65 -9.24,-14.887 -13.86,-31.955 -13.86,-51.205 0,-20.277 4.11,-38.115 12.32,-53.515 8.21,-15.4 19.51,-27.463 33.88,-36.19 14.37,-8.727 30.93,-13.09 49.67,-13.09 21.04,0 38.37,4.492 51.97,13.475 13.6,8.983 23.61,21.047 30.03,36.19 6.67,15.143 10.01,32.083 10.01,50.82 0,2.567 -0.13,5.518 -0.38,8.855 -0.26,3.337 -0.65,5.903 -1.16,7.7 h -139.37 c 1.54,10.267 5.26,18.865 11.17,25.795 5.9,6.673 13.34,11.807 22.33,15.4 8.98,3.337 18.99,5.005 30.03,5.005 h 52.74 v 37.73 z m -63.91,-113.96 h 97.02 c -0.26,-4.877 -1.03,-9.753 -2.31,-14.63 -1.03,-4.877 -2.83,-9.497 -5.39,-13.86 -2.31,-4.363 -5.39,-8.085 -9.24,-11.165 -3.6,-3.337 -7.96,-5.903 -13.09,-7.7 -5.14,-2.053 -11.04,-3.08 -17.71,-3.08 -7.7,0 -14.51,1.54 -20.41,4.62 -5.9,2.823 -10.91,6.673 -15.01,11.55 -4.11,4.62 -7.32,10.01 -9.63,16.17 -2.05,5.903 -3.46,11.935 -4.23,18.095 z"
       fill="#ffffff"
       id="path14"
       style="fill:#5835ce;fill-opacity:1" />
    <path
       d="m 1339.61,110.06 c 5.64,5.647 12.32,8.47 20.02,8.47 7.95,0 14.63,-2.823 20.02,-8.47 5.64,-5.647 8.47,-12.32 8.47,-20.02 0,-7.7 -2.83,-14.3734 -8.47,-20.02 -5.39,-5.6467 -12.07,-8.47 -20.02,-8.47 -7.7,0 -14.38,2.8233 -20.02,8.47 -5.65,5.6466 -8.47,12.32 -8.47,20.02 0,7.7 2.82,14.373 8.47,20.02 z"
       fill="url(#paint1_linear_1019_206)"
       id="path15"
       style="fill:url(#paint1_linear_1019_206)" />
  </g>
  <rect
     x="142.45399"
     y="554.49597"
     width="1478.76"
     height="100.48"
     rx="50.240002"
     fill="url(#paint2_linear_1019_206)"
     id="rect38"
     style="fill:url(#paint2_linear_1019_206)" />
  <path
     d="m 312.454,625.896 7.872,-44.8 h 14.656 c 3.2,0 5.781,0.533 7.744,1.6 2.005,1.067 3.456,2.496 4.352,4.288 0.896,1.792 1.301,3.755 1.216,5.888 -0.128,2.987 -0.939,5.568 -2.432,7.744 -1.493,2.176 -3.563,3.861 -6.208,5.056 -2.645,1.195 -5.739,1.792 -9.28,1.792 h -9.28 l -3.264,18.432 z m 9.408,-22.976 h 9.152 c 3.712,0 6.549,-0.811 8.512,-2.432 1.963,-1.664 3.008,-4.096 3.136,-7.296 0.128,-2.261 -0.469,-4.096 -1.792,-5.504 -1.323,-1.408 -3.584,-2.112 -6.784,-2.112 h -9.152 z"
     fill="#ffffff"
     id="path39" />
  <path
     d="m 362.915,626.664 c -2.773,0 -5.205,-0.619 -7.296,-1.856 -2.048,-1.28 -3.605,-3.029 -4.672,-5.248 -1.067,-2.261 -1.536,-4.821 -1.408,-7.68 0.128,-2.731 0.683,-5.248 1.664,-7.552 1.024,-2.347 2.389,-4.352 4.096,-6.016 1.749,-1.707 3.733,-3.029 5.952,-3.968 2.261,-0.981 4.651,-1.472 7.168,-1.472 2.773,0 5.184,0.619 7.232,1.856 2.091,1.237 3.669,2.944 4.736,5.12 1.109,2.176 1.579,4.736 1.408,7.68 -0.128,2.773 -0.704,5.333 -1.728,7.68 -0.981,2.304 -2.347,4.309 -4.096,6.016 -1.707,1.707 -3.669,3.051 -5.888,4.032 -2.219,0.939 -4.608,1.408 -7.168,1.408 z m 0.704,-4.608 c 2.304,0 4.373,-0.597 6.208,-1.792 1.877,-1.195 3.392,-2.859 4.544,-4.992 1.152,-2.176 1.792,-4.651 1.92,-7.424 0.128,-2.261 -0.192,-4.139 -0.96,-5.632 -0.725,-1.536 -1.771,-2.709 -3.136,-3.52 -1.323,-0.811 -2.816,-1.216 -4.48,-1.216 -2.261,0 -4.309,0.619 -6.144,1.856 -1.835,1.195 -3.328,2.859 -4.48,4.992 -1.152,2.133 -1.792,4.608 -1.92,7.424 -0.128,2.176 0.171,4.032 0.896,5.568 0.725,1.536 1.749,2.709 3.072,3.52 1.365,0.811 2.859,1.216 4.48,1.216 z"
     fill="#ffffff"
     id="path40" />
  <path
     d="m 391.601,625.896 -3.84,-32.256 h 5.44 l 2.496,27.2 h -1.024 l 12.928,-27.2 h 6.08 l 3.264,27.136 -1.024,0.064 12.16,-27.2 h 5.376 l -15.104,32.256 h -5.504 l -3.392,-28.416 h 1.024 l -13.44,28.416 z"
     fill="#ffffff"
     id="path41" />
  <path
     d="m 447.277,626.664 c -2.688,0 -5.035,-0.597 -7.04,-1.792 -1.963,-1.195 -3.456,-2.88 -4.48,-5.056 -0.982,-2.176 -1.408,-4.715 -1.28,-7.616 0.128,-2.773 0.682,-5.312 1.664,-7.616 0.981,-2.347 2.304,-4.395 3.968,-6.144 1.706,-1.749 3.669,-3.115 5.888,-4.096 2.218,-0.981 4.629,-1.472 7.232,-1.472 2.901,0 5.29,0.597 7.168,1.792 1.92,1.195 3.328,2.795 4.224,4.8 0.896,1.963 1.28,4.139 1.152,6.528 -0.043,0.725 -0.15,1.557 -0.32,2.496 -0.128,0.896 -0.278,1.728 -0.448,2.496 h -26.368 l 0.704,-4.16 h 21.12 c 0.298,-2.005 0.128,-3.691 -0.512,-5.056 -0.64,-1.408 -1.6,-2.475 -2.88,-3.2 -1.28,-0.768 -2.816,-1.152 -4.608,-1.152 -1.835,0 -3.606,0.427 -5.312,1.28 -1.664,0.811 -3.115,2.027 -4.352,3.648 -1.238,1.579 -2.07,3.563 -2.496,5.952 l -0.32,1.792 c -0.47,2.389 -0.427,4.501 0.128,6.336 0.554,1.835 1.514,3.243 2.88,4.224 1.408,0.981 3.114,1.472 5.12,1.472 2.261,0 4.202,-0.491 5.824,-1.472 1.664,-1.024 2.965,-2.389 3.904,-4.096 h 5.312 c -0.896,1.92 -2.112,3.648 -3.648,5.184 -1.494,1.536 -3.286,2.752 -5.376,3.648 -2.048,0.853 -4.331,1.28 -6.848,1.28 z"
     fill="#ffffff"
     id="path42" />
  <path
     d="m 469.697,625.896 5.632,-32.256 h 4.928 l -0.64,5.76 c 0.981,-1.365 2.133,-2.517 3.456,-3.456 1.322,-0.981 2.837,-1.728 4.544,-2.24 1.706,-0.555 3.541,-0.832 5.504,-0.832 l -0.96,5.632 h -1.984 c -1.366,0 -2.71,0.171 -4.032,0.512 -1.28,0.341 -2.475,0.896 -3.584,1.664 -1.067,0.768 -1.984,1.792 -2.752,3.072 -0.768,1.237 -1.323,2.795 -1.664,4.672 l -3.072,17.472 z"
     fill="#ffffff"
     id="path43" />
  <path
     d="m 506.589,626.664 c -2.688,0 -5.035,-0.597 -7.04,-1.792 -1.963,-1.195 -3.456,-2.88 -4.48,-5.056 -0.981,-2.176 -1.408,-4.715 -1.28,-7.616 0.128,-2.773 0.683,-5.312 1.664,-7.616 0.981,-2.347 2.304,-4.395 3.968,-6.144 1.707,-1.749 3.669,-3.115 5.888,-4.096 2.219,-0.981 4.629,-1.472 7.232,-1.472 2.901,0 5.291,0.597 7.168,1.792 1.92,1.195 3.328,2.795 4.224,4.8 0.896,1.963 1.28,4.139 1.152,6.528 -0.043,0.725 -0.149,1.557 -0.32,2.496 -0.128,0.896 -0.277,1.728 -0.448,2.496 h -26.368 l 0.704,-4.16 h 21.12 c 0.299,-2.005 0.128,-3.691 -0.512,-5.056 -0.64,-1.408 -1.6,-2.475 -2.88,-3.2 -1.28,-0.768 -2.816,-1.152 -4.608,-1.152 -1.835,0 -3.605,0.427 -5.312,1.28 -1.664,0.811 -3.115,2.027 -4.352,3.648 -1.237,1.579 -2.069,3.563 -2.496,5.952 l -0.32,1.792 c -0.469,2.389 -0.427,4.501 0.128,6.336 0.555,1.835 1.515,3.243 2.88,4.224 1.408,0.981 3.115,1.472 5.12,1.472 2.261,0 4.203,-0.491 5.824,-1.472 1.664,-1.024 2.965,-2.389 3.904,-4.096 h 5.312 c -0.896,1.92 -2.112,3.648 -3.648,5.184 -1.493,1.536 -3.285,2.752 -5.376,3.648 -2.048,0.853 -4.331,1.28 -6.848,1.28 z"
     fill="#ffffff"
     id="path44" />
  <path
     d="m 543.089,626.664 c -2.773,0 -5.141,-0.661 -7.104,-1.984 -1.963,-1.323 -3.435,-3.115 -4.416,-5.376 -0.981,-2.304 -1.387,-4.821 -1.216,-7.552 0.128,-2.773 0.661,-5.291 1.6,-7.552 0.981,-2.304 2.283,-4.288 3.904,-5.952 1.664,-1.707 3.563,-3.029 5.696,-3.968 2.176,-0.939 4.48,-1.408 6.912,-1.408 2.773,0 5.035,0.555 6.784,1.664 1.792,1.109 3.115,2.581 3.968,4.416 l 3.392,-19.136 h 5.376 l -8.128,46.08 h -4.928 l 0.448,-5.312 c -0.811,1.067 -1.813,2.069 -3.008,3.008 -1.152,0.896 -2.496,1.643 -4.032,2.24 -1.536,0.555 -3.285,0.832 -5.248,0.832 z m 1.536,-4.672 c 2.389,0 4.501,-0.619 6.336,-1.856 1.877,-1.28 3.371,-2.987 4.48,-5.12 1.109,-2.176 1.728,-4.608 1.856,-7.296 0.128,-2.048 -0.149,-3.819 -0.832,-5.312 -0.64,-1.536 -1.643,-2.731 -3.008,-3.584 -1.323,-0.853 -2.944,-1.28 -4.864,-1.28 -2.304,0 -4.395,0.597 -6.272,1.792 -1.877,1.152 -3.392,2.773 -4.544,4.864 -1.109,2.091 -1.728,4.48 -1.856,7.168 -0.128,2.048 0.149,3.883 0.832,5.504 0.683,1.621 1.685,2.88 3.008,3.776 1.365,0.896 2.987,1.344 4.864,1.344 z"
     fill="#ffffff"
     id="path45" />
  <path
     d="m 603.652,626.664 c -1.792,0 -3.413,-0.299 -4.864,-0.896 -1.408,-0.597 -2.603,-1.365 -3.584,-2.304 -0.939,-0.939 -1.643,-1.899 -2.112,-2.88 l -1.408,5.312 h -4.864 l 8.128,-46.08 h 5.376 l -3.328,18.88 c 1.323,-1.621 2.987,-2.987 4.992,-4.096 2.005,-1.152 4.395,-1.728 7.168,-1.728 2.816,0 5.205,0.64 7.168,1.92 1.963,1.28 3.435,3.029 4.416,5.248 0.981,2.176 1.408,4.672 1.28,7.488 -0.128,2.688 -0.683,5.205 -1.664,7.552 -0.939,2.347 -2.24,4.395 -3.904,6.144 -1.664,1.707 -3.584,3.051 -5.76,4.032 -2.176,0.939 -4.523,1.408 -7.04,1.408 z m 0.256,-4.672 c 2.304,0 4.373,-0.597 6.208,-1.792 1.877,-1.195 3.371,-2.837 4.48,-4.928 1.109,-2.091 1.728,-4.48 1.856,-7.168 0.128,-2.048 -0.149,-3.861 -0.832,-5.44 -0.683,-1.621 -1.707,-2.88 -3.072,-3.776 -1.323,-0.896 -2.923,-1.344 -4.8,-1.344 -2.347,0 -4.459,0.619 -6.336,1.856 -1.835,1.237 -3.328,2.923 -4.48,5.056 -1.152,2.091 -1.771,4.48 -1.856,7.168 -0.128,2.091 0.149,3.925 0.832,5.504 0.683,1.536 1.707,2.731 3.072,3.584 1.365,0.853 3.008,1.28 4.928,1.28 z"
     fill="#ffffff"
     id="path46" />
  <path
     d="m 625.347,639.976 10.752,-17.28 h -1.792 l -7.552,-29.056 h 5.568 l 6.336,25.088 15.488,-25.088 h 5.632 l -28.864,46.336 z"
     fill="#ffffff"
     id="path47" />
  <path
     d="m 678.267,625.896 7.872,-44.8 h 26.816 l -0.768,4.352 h -21.44 l -2.752,15.872 h 18.048 l -0.768,4.224 h -18.048 l -3.584,20.352 z"
     fill="#ffffff"
     id="path48" />
  <path
     d="m 724.402,626.664 c -2.688,0 -5.035,-0.597 -7.04,-1.792 -1.963,-1.195 -3.456,-2.88 -4.48,-5.056 -0.982,-2.176 -1.408,-4.715 -1.28,-7.616 0.128,-2.773 0.682,-5.312 1.664,-7.616 0.981,-2.347 2.304,-4.395 3.968,-6.144 1.706,-1.749 3.669,-3.115 5.888,-4.096 2.218,-0.981 4.629,-1.472 7.232,-1.472 2.901,0 5.29,0.597 7.168,1.792 1.92,1.195 3.328,2.795 4.224,4.8 0.896,1.963 1.28,4.139 1.152,6.528 -0.043,0.725 -0.15,1.557 -0.32,2.496 -0.128,0.896 -0.278,1.728 -0.448,2.496 h -26.368 l 0.704,-4.16 h 21.12 c 0.298,-2.005 0.128,-3.691 -0.512,-5.056 -0.64,-1.408 -1.6,-2.475 -2.88,-3.2 -1.28,-0.768 -2.816,-1.152 -4.608,-1.152 -1.835,0 -3.606,0.427 -5.312,1.28 -1.664,0.811 -3.115,2.027 -4.352,3.648 -1.238,1.579 -2.07,3.563 -2.496,5.952 l -0.32,1.792 c -0.47,2.389 -0.427,4.501 0.128,6.336 0.554,1.835 1.514,3.243 2.88,4.224 1.408,0.981 3.114,1.472 5.12,1.472 2.261,0 4.202,-0.491 5.824,-1.472 1.664,-1.024 2.965,-2.389 3.904,-4.096 h 5.312 c -0.896,1.92 -2.112,3.648 -3.648,5.184 -1.494,1.536 -3.286,2.752 -5.376,3.648 -2.048,0.853 -4.331,1.28 -6.848,1.28 z"
     fill="#ffffff"
     id="path49" />
  <path
     d="m 760.902,626.664 c -2.774,0 -5.142,-0.661 -7.104,-1.984 -1.963,-1.323 -3.435,-3.115 -4.416,-5.376 -0.982,-2.304 -1.387,-4.821 -1.216,-7.552 0.128,-2.773 0.661,-5.291 1.6,-7.552 0.981,-2.304 2.282,-4.288 3.904,-5.952 1.664,-1.707 3.562,-3.029 5.696,-3.968 2.176,-0.939 4.48,-1.408 6.912,-1.408 2.773,0 5.034,0.555 6.784,1.664 1.792,1.109 3.114,2.581 3.968,4.416 l 3.392,-19.136 h 5.376 l -8.128,46.08 h -4.928 l 0.448,-5.312 c -0.811,1.067 -1.814,2.069 -3.008,3.008 -1.152,0.896 -2.496,1.643 -4.032,2.24 -1.536,0.555 -3.286,0.832 -5.248,0.832 z m 1.536,-4.672 c 2.389,0 4.501,-0.619 6.336,-1.856 1.877,-1.28 3.37,-2.987 4.48,-5.12 1.109,-2.176 1.728,-4.608 1.856,-7.296 0.128,-2.048 -0.15,-3.819 -0.832,-5.312 -0.64,-1.536 -1.643,-2.731 -3.008,-3.584 -1.323,-0.853 -2.944,-1.28 -4.864,-1.28 -2.304,0 -4.395,0.597 -6.272,1.792 -1.878,1.152 -3.392,2.773 -4.544,4.864 -1.11,2.091 -1.728,4.48 -1.856,7.168 -0.128,2.048 0.149,3.883 0.832,5.504 0.682,1.621 1.685,2.88 3.008,3.776 1.365,0.896 2.986,1.344 4.864,1.344 z"
     fill="#ffffff"
     id="path50" />
  <path
     d="m 801.29,626.664 c -2.773,0 -5.205,-0.619 -7.296,-1.856 -2.048,-1.28 -3.605,-3.029 -4.672,-5.248 -1.067,-2.261 -1.536,-4.821 -1.408,-7.68 0.128,-2.731 0.683,-5.248 1.664,-7.552 1.024,-2.347 2.389,-4.352 4.096,-6.016 1.749,-1.707 3.733,-3.029 5.952,-3.968 2.261,-0.981 4.651,-1.472 7.168,-1.472 2.773,0 5.184,0.619 7.232,1.856 2.091,1.237 3.669,2.944 4.736,5.12 1.109,2.176 1.579,4.736 1.408,7.68 -0.128,2.773 -0.704,5.333 -1.728,7.68 -0.981,2.304 -2.347,4.309 -4.096,6.016 -1.707,1.707 -3.669,3.051 -5.888,4.032 -2.219,0.939 -4.608,1.408 -7.168,1.408 z m 0.704,-4.608 c 2.304,0 4.373,-0.597 6.208,-1.792 1.877,-1.195 3.392,-2.859 4.544,-4.992 1.152,-2.176 1.792,-4.651 1.92,-7.424 0.128,-2.261 -0.192,-4.139 -0.96,-5.632 -0.725,-1.536 -1.771,-2.709 -3.136,-3.52 -1.323,-0.811 -2.816,-1.216 -4.48,-1.216 -2.261,0 -4.309,0.619 -6.144,1.856 -1.835,1.195 -3.328,2.859 -4.48,4.992 -1.152,2.133 -1.792,4.608 -1.92,7.424 -0.128,2.176 0.171,4.032 0.896,5.568 0.725,1.536 1.749,2.709 3.072,3.52 1.365,0.811 2.859,1.216 4.48,1.216 z"
     fill="#ffffff"
     id="path51" />
  <path
     d="m 824.759,625.896 5.632,-32.256 h 4.928 l -0.64,5.76 c 0.981,-1.365 2.133,-2.517 3.456,-3.456 1.323,-0.981 2.837,-1.728 4.544,-2.24 1.707,-0.555 3.541,-0.832 5.504,-0.832 l -0.96,5.632 h -1.984 c -1.365,0 -2.709,0.171 -4.032,0.512 -1.28,0.341 -2.475,0.896 -3.584,1.664 -1.067,0.768 -1.984,1.792 -2.752,3.072 -0.768,1.237 -1.323,2.795 -1.664,4.672 l -3.072,17.472 z"
     fill="#ffffff"
     id="path52" />
  <path
     d="m 858.749,626.664 c -2.389,0 -4.352,-0.405 -5.888,-1.216 -1.493,-0.853 -2.581,-1.963 -3.264,-3.328 -0.683,-1.408 -0.981,-2.901 -0.896,-4.48 0.085,-2.304 0.789,-4.288 2.112,-5.952 1.323,-1.664 3.157,-2.944 5.504,-3.84 2.347,-0.896 5.035,-1.344 8.064,-1.344 h 8.512 c 0.341,-2.048 0.32,-3.733 -0.064,-5.056 -0.341,-1.365 -1.045,-2.368 -2.112,-3.008 -1.067,-0.683 -2.453,-1.024 -4.16,-1.024 -2.048,0 -3.904,0.512 -5.568,1.536 -1.664,1.024 -2.859,2.539 -3.584,4.544 h -5.568 c 0.683,-2.304 1.792,-4.224 3.328,-5.76 1.579,-1.579 3.413,-2.773 5.504,-3.584 2.091,-0.853 4.288,-1.28 6.592,-1.28 2.901,0 5.248,0.555 7.04,1.664 1.835,1.067 3.072,2.581 3.712,4.544 0.683,1.92 0.789,4.203 0.32,6.848 l -3.456,19.968 h -4.864 l 0.704,-5.696 c -0.597,0.896 -1.301,1.749 -2.112,2.56 -0.768,0.768 -1.643,1.451 -2.624,2.048 -0.981,0.597 -2.069,1.045 -3.264,1.344 -1.195,0.341 -2.517,0.512 -3.968,0.512 z m 1.6,-4.544 c 1.493,0 2.923,-0.299 4.288,-0.896 1.408,-0.64 2.645,-1.493 3.712,-2.56 1.109,-1.067 1.984,-2.261 2.624,-3.584 0.683,-1.323 1.045,-2.709 1.088,-4.16 l 0.064,-0.256 h -8.064 c -2.005,0 -3.733,0.277 -5.184,0.832 -1.408,0.512 -2.496,1.259 -3.264,2.24 -0.725,0.939 -1.131,2.069 -1.216,3.392 -0.085,1.536 0.384,2.752 1.408,3.648 1.024,0.896 2.539,1.344 4.544,1.344 z"
     fill="#ffffff"
     id="path53" />
  <path
     d="m 912.124,626.664 c -2.389,0 -4.352,-0.405 -5.888,-1.216 -1.493,-0.853 -2.581,-1.963 -3.264,-3.328 -0.683,-1.408 -0.981,-2.901 -0.896,-4.48 0.085,-2.304 0.789,-4.288 2.112,-5.952 1.323,-1.664 3.157,-2.944 5.504,-3.84 2.347,-0.896 5.035,-1.344 8.064,-1.344 h 8.512 c 0.341,-2.048 0.32,-3.733 -0.064,-5.056 -0.341,-1.365 -1.045,-2.368 -2.112,-3.008 -1.067,-0.683 -2.453,-1.024 -4.16,-1.024 -2.048,0 -3.904,0.512 -5.568,1.536 -1.664,1.024 -2.859,2.539 -3.584,4.544 h -5.568 c 0.683,-2.304 1.792,-4.224 3.328,-5.76 1.579,-1.579 3.413,-2.773 5.504,-3.584 2.091,-0.853 4.288,-1.28 6.592,-1.28 2.901,0 5.248,0.555 7.04,1.664 1.835,1.067 3.072,2.581 3.712,4.544 0.683,1.92 0.789,4.203 0.32,6.848 l -3.456,19.968 h -4.864 l 0.704,-5.696 c -0.597,0.896 -1.301,1.749 -2.112,2.56 -0.768,0.768 -1.643,1.451 -2.624,2.048 -0.981,0.597 -2.069,1.045 -3.264,1.344 -1.195,0.341 -2.517,0.512 -3.968,0.512 z m 1.6,-4.544 c 1.493,0 2.923,-0.299 4.288,-0.896 1.408,-0.64 2.645,-1.493 3.712,-2.56 1.109,-1.067 1.984,-2.261 2.624,-3.584 0.683,-1.323 1.045,-2.709 1.088,-4.16 l 0.064,-0.256 h -8.064 c -2.005,0 -3.733,0.277 -5.184,0.832 -1.408,0.512 -2.496,1.259 -3.264,2.24 -0.725,0.939 -1.131,2.069 -1.216,3.392 -0.085,1.536 0.384,2.752 1.408,3.648 1.024,0.896 2.539,1.344 4.544,1.344 z"
     fill="#ffffff"
     id="path54" />
  <path
     d="m 937.197,625.896 5.632,-32.256 h 4.864 l -0.64,5.632 c 1.365,-2.005 3.093,-3.563 5.184,-4.672 2.09,-1.152 4.352,-1.728 6.784,-1.728 2.645,0 4.778,0.576 6.4,1.728 1.664,1.109 2.794,2.688 3.392,4.736 0.597,2.048 0.64,4.48 0.128,7.296 l -3.392,19.264 h -5.376 l 3.264,-18.688 c 0.554,-3.115 0.298,-5.504 -0.768,-7.168 -1.067,-1.707 -2.944,-2.56 -5.632,-2.56 -1.75,0 -3.414,0.427 -4.992,1.28 -1.536,0.853 -2.859,2.069 -3.968,3.648 -1.11,1.579 -1.92,3.52 -2.432,5.824 l -3.072,17.664 z"
     fill="#ffffff"
     id="path55" />
  <path
     d="m 988.027,626.664 c -2.774,0 -5.142,-0.661 -7.104,-1.984 -1.963,-1.323 -3.435,-3.115 -4.416,-5.376 -0.982,-2.304 -1.387,-4.821 -1.216,-7.552 0.128,-2.773 0.661,-5.291 1.6,-7.552 0.981,-2.304 2.282,-4.288 3.904,-5.952 1.664,-1.707 3.562,-3.029 5.696,-3.968 2.176,-0.939 4.48,-1.408 6.912,-1.408 2.773,0 5.034,0.555 6.787,1.664 1.79,1.109 3.11,2.581 3.96,4.416 l 3.4,-19.136 h 5.37 l -8.13,46.08 h -4.923 l 0.443,-5.312 c -0.806,1.067 -1.809,2.069 -3.003,3.008 -1.152,0.896 -2.496,1.643 -4.032,2.24 -1.536,0.555 -3.286,0.832 -5.248,0.832 z m 1.536,-4.672 c 2.389,0 4.501,-0.619 6.336,-1.856 1.877,-1.28 3.37,-2.987 4.481,-5.12 1.11,-2.176 1.73,-4.608 1.85,-7.296 0.13,-2.048 -0.14,-3.819 -0.83,-5.312 -0.64,-1.536 -1.64,-2.731 -3.005,-3.584 -1.323,-0.853 -2.944,-1.28 -4.864,-1.28 -2.304,0 -4.395,0.597 -6.272,1.792 -1.878,1.152 -3.392,2.773 -4.544,4.864 -1.11,2.091 -1.728,4.48 -1.856,7.168 -0.128,2.048 0.149,3.883 0.832,5.504 0.682,1.621 1.685,2.88 3.008,3.776 1.365,0.896 2.986,1.344 4.864,1.344 z"
     fill="#ffffff"
     id="path56" />
  <path
     d="m 1048.14,626.664 c -3.41,0 -6.25,-0.661 -8.51,-1.984 -2.22,-1.365 -3.78,-3.328 -4.67,-5.888 -0.9,-2.603 -1.03,-5.739 -0.39,-9.408 l 5.06,-28.288 h 5.38 l -5.06,28.288 c -0.47,2.645 -0.45,4.907 0.06,6.784 0.56,1.835 1.58,3.243 3.08,4.224 1.49,0.939 3.47,1.408 5.95,1.408 2.26,0 4.29,-0.427 6.08,-1.28 1.83,-0.853 3.37,-2.197 4.61,-4.032 1.28,-1.835 2.17,-4.203 2.68,-7.104 l 5.06,-28.288 h 5.38 l -5,28.288 c -0.68,3.968 -2,7.232 -3.96,9.792 -1.92,2.517 -4.25,4.395 -6.98,5.632 -2.73,1.237 -5.65,1.856 -8.77,1.856 z"
     fill="#ffffff"
     id="path57" />
  <path
     d="m 1073.76,625.896 5.63,-32.256 h 4.87 l -0.64,5.632 c 1.36,-2.005 3.09,-3.563 5.18,-4.672 2.09,-1.152 4.35,-1.728 6.78,-1.728 2.65,0 4.78,0.576 6.4,1.728 1.67,1.109 2.8,2.688 3.4,4.736 0.59,2.048 0.64,4.48 0.12,7.296 l -3.39,19.264 h -5.37 l 3.26,-18.688 c 0.55,-3.115 0.3,-5.504 -0.77,-7.168 -1.07,-1.707 -2.94,-2.56 -5.63,-2.56 -1.75,0 -3.41,0.427 -4.99,1.28 -1.54,0.853 -2.86,2.069 -3.97,3.648 -1.11,1.579 -1.92,3.52 -2.43,5.824 l -3.07,17.664 z"
     fill="#ffffff"
     id="path58" />
  <path
     d="m 1111.02,625.896 5.7,-32.256 h 5.37 l -5.69,32.256 z m 10.24,-39.104 c -1.07,0 -1.94,-0.341 -2.62,-1.024 -0.69,-0.683 -1.05,-1.557 -1.09,-2.624 0,-1.067 0.34,-1.941 1.02,-2.624 0.73,-0.683 1.62,-1.024 2.69,-1.024 1.03,0 1.9,0.341 2.63,1.024 0.72,0.64 1.08,1.515 1.08,2.624 0.05,1.067 -0.32,1.941 -1.08,2.624 -0.73,0.683 -1.6,1.024 -2.63,1.024 z"
     fill="#ffffff"
     id="path59" />
  <path
     d="m 1135.61,625.896 -6.91,-32.256 h 5.57 l 5.37,27.136 14.91,-27.136 h 5.64 l -18.31,32.256 z"
     fill="#ffffff"
     id="path60" />
  <path
     d="m 1173.53,626.664 c -2.69,0 -5.04,-0.597 -7.04,-1.792 -1.97,-1.195 -3.46,-2.88 -4.48,-5.056 -0.98,-2.176 -1.41,-4.715 -1.28,-7.616 0.12,-2.773 0.68,-5.312 1.66,-7.616 0.98,-2.347 2.3,-4.395 3.97,-6.144 1.71,-1.749 3.67,-3.115 5.89,-4.096 2.22,-0.981 4.63,-1.472 7.23,-1.472 2.9,0 5.29,0.597 7.17,1.792 1.92,1.195 3.32,2.795 4.22,4.8 0.9,1.963 1.28,4.139 1.15,6.528 -0.04,0.725 -0.15,1.557 -0.32,2.496 -0.13,0.896 -0.27,1.728 -0.45,2.496 h -26.36 l 0.7,-4.16 h 21.12 c 0.3,-2.005 0.13,-3.691 -0.51,-5.056 -0.64,-1.408 -1.6,-2.475 -2.88,-3.2 -1.28,-0.768 -2.82,-1.152 -4.61,-1.152 -1.83,0 -3.6,0.427 -5.31,1.28 -1.67,0.811 -3.12,2.027 -4.35,3.648 -1.24,1.579 -2.07,3.563 -2.5,5.952 l -0.32,1.792 c -0.47,2.389 -0.43,4.501 0.13,6.336 0.55,1.835 1.51,3.243 2.88,4.224 1.41,0.981 3.11,1.472 5.12,1.472 2.26,0 4.2,-0.491 5.82,-1.472 1.67,-1.024 2.97,-2.389 3.91,-4.096 h 5.31 c -0.9,1.92 -2.11,3.648 -3.65,5.184 -1.49,1.536 -3.28,2.752 -5.38,3.648 -2.04,0.853 -4.33,1.28 -6.84,1.28 z"
     fill="#ffffff"
     id="path61" />
  <path
     d="m 1195.95,625.896 5.63,-32.256 h 4.93 l -0.64,5.76 c 0.98,-1.365 2.13,-2.517 3.45,-3.456 1.33,-0.981 2.84,-1.728 4.55,-2.24 1.7,-0.555 3.54,-0.832 5.5,-0.832 l -0.96,5.632 h -1.98 c -1.37,0 -2.71,0.171 -4.04,0.512 -1.28,0.341 -2.47,0.896 -3.58,1.664 -1.07,0.768 -1.98,1.792 -2.75,3.072 -0.77,1.237 -1.32,2.795 -1.67,4.672 l -3.07,17.472 z"
     fill="#ffffff"
     id="path62" />
  <path
     d="m 1231.86,626.664 c -2.73,0 -5.04,-0.448 -6.92,-1.344 -1.87,-0.939 -3.26,-2.24 -4.16,-3.904 -0.85,-1.664 -1.19,-3.648 -1.02,-5.952 h 5.44 c -0.04,1.195 0.17,2.304 0.64,3.328 0.47,0.981 1.26,1.792 2.37,2.432 1.11,0.597 2.58,0.896 4.41,0.896 1.54,0 2.86,-0.235 3.97,-0.704 1.11,-0.469 1.97,-1.109 2.56,-1.92 0.64,-0.811 1.01,-1.813 1.09,-3.008 0.04,-1.067 -0.21,-1.899 -0.77,-2.496 -0.51,-0.64 -1.3,-1.152 -2.37,-1.536 -1.06,-0.384 -2.34,-0.704 -3.84,-0.96 -1.32,-0.256 -2.6,-0.597 -3.84,-1.024 -1.19,-0.427 -2.26,-0.96 -3.2,-1.6 -0.93,-0.683 -1.66,-1.515 -2.17,-2.496 -0.51,-1.024 -0.73,-2.219 -0.64,-3.584 0.08,-1.877 0.68,-3.563 1.79,-5.056 1.15,-1.493 2.69,-2.667 4.61,-3.52 1.96,-0.896 4.18,-1.344 6.65,-1.344 3.46,0 6.17,0.853 8.13,2.56 2.01,1.664 2.93,4.053 2.75,7.168 h -5.37 c 0.08,-1.621 -0.41,-2.88 -1.47,-3.776 -1.07,-0.939 -2.63,-1.408 -4.68,-1.408 -2,0 -3.64,0.448 -4.92,1.344 -1.24,0.896 -1.88,2.005 -1.92,3.328 -0.05,0.896 0.17,1.664 0.64,2.304 0.51,0.597 1.28,1.109 2.3,1.536 1.02,0.384 2.3,0.725 3.84,1.024 1.45,0.299 2.8,0.661 4.03,1.088 1.24,0.427 2.33,0.981 3.27,1.664 0.94,0.64 1.64,1.472 2.11,2.496 0.51,0.981 0.72,2.197 0.64,3.648 -0.09,2.219 -0.75,4.139 -1.99,5.76 -1.19,1.621 -2.83,2.88 -4.92,3.776 -2.05,0.853 -4.4,1.28 -7.04,1.28 z"
     fill="#ffffff"
     id="path63" />
  <path
     d="m 1262.25,626.664 c -2.39,0 -4.35,-0.405 -5.89,-1.216 -1.49,-0.853 -2.58,-1.963 -3.26,-3.328 -0.69,-1.408 -0.98,-2.901 -0.9,-4.48 0.09,-2.304 0.79,-4.288 2.11,-5.952 1.33,-1.664 3.16,-2.944 5.51,-3.84 2.34,-0.896 5.03,-1.344 8.06,-1.344 h 8.51 c 0.34,-2.048 0.32,-3.733 -0.06,-5.056 -0.34,-1.365 -1.05,-2.368 -2.11,-3.008 -1.07,-0.683 -2.46,-1.024 -4.16,-1.024 -2.05,0 -3.91,0.512 -5.57,1.536 -1.66,1.024 -2.86,2.539 -3.58,4.544 h -5.57 c 0.68,-2.304 1.79,-4.224 3.33,-5.76 1.57,-1.579 3.41,-2.773 5.5,-3.584 2.09,-0.853 4.29,-1.28 6.59,-1.28 2.9,0 5.25,0.555 7.04,1.664 1.84,1.067 3.07,2.581 3.71,4.544 0.69,1.92 0.79,4.203 0.32,6.848 l -3.45,19.968 h -4.87 l 0.71,-5.696 c -0.6,0.896 -1.3,1.749 -2.11,2.56 -0.77,0.768 -1.65,1.451 -2.63,2.048 -0.98,0.597 -2.07,1.045 -3.26,1.344 -1.2,0.341 -2.52,0.512 -3.97,0.512 z m 1.6,-4.544 c 1.49,0 2.92,-0.299 4.29,-0.896 1.41,-0.64 2.64,-1.493 3.71,-2.56 1.11,-1.067 1.98,-2.261 2.62,-3.584 0.69,-1.323 1.05,-2.709 1.09,-4.16 l 0.07,-0.256 h -8.07 c -2,0 -3.73,0.277 -5.18,0.832 -1.41,0.512 -2.5,1.259 -3.27,2.24 -0.72,0.939 -1.13,2.069 -1.21,3.392 -0.09,1.536 0.38,2.752 1.41,3.648 1.02,0.896 2.53,1.344 4.54,1.344 z"
     fill="#ffffff"
     id="path64" />
  <path
     d="m 1287.26,625.896 8.19,-46.08 h 5.38 l -8.2,46.08 z"
     fill="#ffffff"
     id="path65" />
  <path
     d="m 1320.02,625.896 7.87,-44.8 h 15.81 c 2.86,0 5.18,0.448 6.97,1.344 1.84,0.853 3.18,2.048 4.03,3.584 0.86,1.493 1.22,3.179 1.09,5.056 -0.08,2.347 -0.7,4.395 -1.85,6.144 -1.11,1.749 -2.61,3.136 -4.48,4.16 -1.84,1.024 -3.89,1.643 -6.15,1.856 l 0.96,-0.64 c 1.75,0.043 3.31,0.491 4.67,1.344 1.37,0.811 2.42,1.941 3.14,3.392 0.77,1.408 1.09,3.029 0.96,4.864 -0.08,2.688 -0.87,5.056 -2.37,7.104 -1.49,2.048 -3.5,3.669 -6.01,4.864 -2.48,1.152 -5.27,1.728 -8.39,1.728 z m 6.14,-4.416 h 10.3 c 2.22,0 4.14,-0.384 5.76,-1.152 1.67,-0.768 2.97,-1.856 3.91,-3.264 0.98,-1.451 1.51,-3.115 1.6,-4.992 0.13,-2.176 -0.58,-3.904 -2.11,-5.184 -1.5,-1.28 -3.63,-1.92 -6.4,-1.92 h -10.18 z m 3.71,-20.736 h 9.92 c 3.07,0 5.55,-0.789 7.43,-2.368 1.87,-1.621 2.86,-3.776 2.94,-6.464 0.09,-1.323 -0.15,-2.475 -0.7,-3.456 -0.56,-0.981 -1.43,-1.728 -2.63,-2.24 -1.15,-0.512 -2.66,-0.768 -4.54,-0.768 h -9.79 z"
     fill="#ffffff"
     id="path66" />
  <path
     d="m 1358.26,625.896 8.19,-46.08 h 5.38 l -8.2,46.08 z"
     fill="#ffffff"
     id="path67" />
  <path
     d="m 1386.01,626.664 c -4.44,0 -7.68,-1.195 -9.73,-3.584 -2.05,-2.432 -2.64,-6.08 -1.79,-10.944 l 3.26,-18.496 h 5.38 l -3.2,18.112 c -0.43,2.261 -0.49,4.16 -0.19,5.696 0.3,1.536 1.02,2.688 2.17,3.456 1.16,0.768 2.8,1.152 4.93,1.152 1.96,0 3.65,-0.384 5.06,-1.152 1.41,-0.768 2.56,-1.92 3.45,-3.456 0.94,-1.536 1.6,-3.435 1.99,-5.696 l 3.2,-18.112 h 5.37 l -3.26,18.496 c -0.85,4.864 -2.73,8.512 -5.63,10.944 -2.86,2.389 -6.53,3.584 -11.01,3.584 z"
     fill="#ffffff"
     id="path68" />
  <path
     d="m 1422.65,626.664 c -2.69,0 -5.03,-0.597 -7.04,-1.792 -1.96,-1.195 -3.45,-2.88 -4.48,-5.056 -0.98,-2.176 -1.41,-4.715 -1.28,-7.616 0.13,-2.773 0.68,-5.312 1.67,-7.616 0.98,-2.347 2.3,-4.395 3.96,-6.144 1.71,-1.749 3.67,-3.115 5.89,-4.096 2.22,-0.981 4.63,-1.472 7.23,-1.472 2.9,0 5.29,0.597 7.17,1.792 1.92,1.195 3.33,2.795 4.23,4.8 0.89,1.963 1.28,4.139 1.15,6.528 -0.05,0.725 -0.15,1.557 -0.32,2.496 -0.13,0.896 -0.28,1.728 -0.45,2.496 h -26.37 l 0.71,-4.16 h 21.12 c 0.29,-2.005 0.12,-3.691 -0.52,-5.056 -0.64,-1.408 -1.6,-2.475 -2.88,-3.2 -1.28,-0.768 -2.81,-1.152 -4.6,-1.152 -1.84,0 -3.61,0.427 -5.32,1.28 -1.66,0.811 -3.11,2.027 -4.35,3.648 -1.24,1.579 -2.07,3.563 -2.49,5.952 l -0.32,1.792 c -0.47,2.389 -0.43,4.501 0.12,6.336 0.56,1.835 1.52,3.243 2.88,4.224 1.41,0.981 3.12,1.472 5.12,1.472 2.26,0 4.21,-0.491 5.83,-1.472 1.66,-1.024 2.96,-2.389 3.9,-4.096 h 5.31 c -0.89,1.92 -2.11,3.648 -3.64,5.184 -1.5,1.536 -3.29,2.752 -5.38,3.648 -2.05,0.853 -4.33,1.28 -6.85,1.28 z"
     fill="#ffffff"
     id="path69" />
  <defs
     id="defs75">
    <linearGradient
       id="paint0_linear_1019_206"
       x1="0"
       y1="0"
       x2="408"
       y2="408"
       gradientUnits="userSpaceOnUse">
      <stop
         offset="0.0684898"
         stop-color="#0047AB"
         id="stop70" />
      <stop
         offset="0.741212"
         stop-color="#8A2BE2"
         id="stop71" />
    </linearGradient>
    <linearGradient
       id="paint1_linear_1019_206"
       x1="1359.63"
       y1="61.549999"
       x2="1359.63"
       y2="118.53"
       gradientUnits="userSpaceOnUse">
      <stop
         stop-color="#59CAFD"
         id="stop72" />
      <stop
         offset="1"
         stop-color="#2B50EF"
         id="stop73" />
    </linearGradient>
    <linearGradient
       id="paint2_linear_1019_206"
       x1="142.629"
       y1="606.495"
       x2="1621.0699"
       y2="711.54498"
       gradientUnits="userSpaceOnUse"
       gradientTransform="translate(0,-52)">
      <stop
         stop-color="#0546AD"
         id="stop74" />
      <stop
         offset="1"
         stop-color="#8A2BE2"
         id="stop75" />
    </linearGradient>
    <clipPath
       id="clip0_1019_206">
      <rect
         width="1763.67"
         height="408"
         fill="#ffffff"
         id="rect75"
         x="0"
         y="0" />
    </clipPath>
  </defs>
</svg>
