<?xml version="1.0" encoding="UTF-8" standalone="no"?>
<svg
   width="1764"
   height="707"
   viewBox="0 0 1764 707"
   fill="none"
   version="1.1"
   id="svg75"
   sodipodi:docname="Bazzite_Tagline_Dark_BG.svg"
   inkscape:version="1.3 (0e150ed6c4, 2023-07-21)"
   xmlns:inkscape="http://www.inkscape.org/namespaces/inkscape"
   xmlns:sodipodi="http://sodipodi.sourceforge.net/DTD/sodipodi-0.dtd"
   xmlns="http://www.w3.org/2000/svg"
   xmlns:svg="http://www.w3.org/2000/svg">
  <sodipodi:namedview
     id="namedview75"
     pagecolor="#ffffff"
     bordercolor="#000000"
     borderopacity="0.25"
     inkscape:showpageshadow="2"
     inkscape:pageopacity="0.0"
     inkscape:pagecheckerboard="0"
     inkscape:deskcolor="#d1d1d1"
     inkscape:zoom="0.40008503"
     inkscape:cx="637.36451"
     inkscape:cy="481.14771"
     inkscape:window-width="1509"
     inkscape:window-height="1288"
     inkscape:window-x="26"
     inkscape:window-y="23"
     inkscape:window-maximized="0"
     inkscape:current-layer="svg75" />
  <g
     clip-path="url(#clip0_1019_206)"
     id="g15">
    <path
       d="M0 81.6C0 36.5336 36.5336 0 81.6 0H204C316.666 0 408 91.3339 408 204V204C408 316.666 316.666 408 204 408V408C91.3339 408 0 316.666 0 204V81.6Z"
       fill="url(#paint0_linear_1019_206)"
       id="path1" />
    <path
       fill-rule="evenodd"
       clip-rule="evenodd"
       d="M104.448 0H156.672V104.448H266.167C312.051 104.448 349.248 141.645 349.248 187.529C349.248 276.844 276.844 349.248 187.529 349.248C141.645 349.248 104.448 312.051 104.448 266.167V156.672H0L2.28278e-06 104.448L104.448 104.448V0ZM156.672 156.672V266.167C156.672 283.209 170.487 297.024 187.529 297.024C248.001 297.024 297.024 248.001 297.024 187.529C297.024 170.487 283.209 156.672 266.167 156.672H156.672Z"
       fill="white"
       fill-opacity="0.5"
       id="path2" />
    <path
       d="M156.672 50.592C156.672 36.1707 144.982 24.48 130.56 24.48V24.48C116.139 24.48 104.448 36.1707 104.448 50.592L104.448 104.448H50.5925C36.1712 104.448 24.4805 116.139 24.4805 130.56V130.56C24.4805 144.981 36.1712 156.672 50.5925 156.672H104.448V210.528C104.448 224.949 116.139 236.64 130.56 236.64V236.64C144.982 236.64 156.672 224.949 156.672 210.528V156.672L210.528 156.672C224.95 156.672 236.64 144.981 236.64 130.56V130.56C236.64 116.139 224.95 104.448 210.528 104.448H156.672L156.672 50.592Z"
       fill="white"
       fill-opacity="0.7"
       id="path3" />
    <path
       d="M212.82 126.23C216.154 128.154 216.154 132.966 212.82 134.89L198.444 143.19C195.111 145.115 190.944 142.709 190.944 138.86L190.944 122.26C190.944 118.411 195.111 116.005 198.444 117.93L212.82 126.23Z"
       fill="white"
       id="path4" />
    <path
       d="M134.89 212.82C132.965 216.153 128.154 216.153 126.229 212.82L117.929 198.444C116.005 195.111 118.411 190.944 122.26 190.944L138.86 190.944C142.709 190.944 145.114 195.111 143.19 198.444L134.89 212.82Z"
       fill="white"
       id="path5" />
    <path
       d="M126.229 48.3C128.154 44.9667 132.965 44.9667 134.89 48.3L143.19 62.676C145.114 66.0093 142.709 70.176 138.86 70.176H122.26C118.411 70.176 116.005 66.0093 117.929 62.676L126.229 48.3Z"
       fill="white"
       id="path6" />
    <path
       d="M48.2998 134.89C44.9665 132.966 44.9665 128.154 48.2998 126.23L62.6758 117.93C66.0091 116.005 70.1758 118.411 70.1758 122.26L70.1758 138.86C70.1758 142.709 66.0091 145.115 62.6758 143.19L48.2998 134.89Z"
       fill="white"
       id="path7" />
    <path
       d="M590.025 346.835C570.005 346.835 552.295 342.6 536.895 334.13C521.495 325.66 509.432 313.597 500.705 297.94C492.235 282.027 488 263.29 488 241.73V61.165H532.275V175.51H532.66C536.767 168.58 542.157 162.548 548.83 157.415C555.503 152.282 562.947 148.303 571.16 145.48C579.373 142.657 588.1 141.245 597.34 141.245C616.077 141.245 632.503 145.48 646.62 153.95C660.993 162.163 672.158 173.713 680.115 188.6C688.328 203.487 692.435 220.94 692.435 240.96C692.435 256.617 689.997 270.99 685.12 284.08C680.5 296.913 673.698 308.078 664.715 317.575C655.988 327.072 645.337 334.387 632.76 339.52C620.183 344.397 605.938 346.835 590.025 346.835ZM590.025 309.105C601.318 309.105 611.328 306.41 620.055 301.02C628.782 295.373 635.583 287.673 640.46 277.92C645.337 268.167 647.775 256.873 647.775 244.04C647.775 231.463 645.337 220.298 640.46 210.545C635.583 200.792 628.782 193.092 620.055 187.445C611.585 181.798 601.703 178.975 590.41 178.975C579.117 178.975 569.107 181.798 560.38 187.445C551.653 192.835 544.852 200.407 539.975 210.16C535.098 219.913 532.66 231.207 532.66 244.04C532.66 256.873 535.098 268.167 539.975 277.92C544.852 287.673 551.653 295.373 560.38 301.02C569.107 306.41 578.988 309.105 590.025 309.105Z"
       fill="white"
       id="path8"
       style="fill:#5835ce;fill-opacity:1" />
    <path
       d="M802.446 346.835C783.709 346.835 767.539 342.215 753.936 332.975C740.332 323.735 729.809 311.415 722.366 296.015C715.179 280.358 711.586 263.162 711.586 244.425C711.586 224.918 715.692 207.465 723.906 192.065C732.376 176.408 744.311 164.088 759.711 155.105C775.367 145.865 793.976 141.245 815.536 141.245C836.839 141.245 854.934 145.865 869.821 155.105C884.964 164.088 896.514 176.408 904.471 192.065C912.684 207.465 916.791 224.662 916.791 243.655V342.215H872.516V305.64H871.746C867.896 312.827 862.891 319.628 856.731 326.045C850.571 332.205 842.999 337.21 834.016 341.06C825.032 344.91 814.509 346.835 802.446 346.835ZM814.381 309.105C825.931 309.105 835.941 306.282 844.411 300.635C853.137 294.732 859.811 286.903 864.431 277.15C869.307 267.14 871.746 255.975 871.746 243.655C871.746 231.335 869.436 220.427 864.816 210.93C860.196 201.177 853.651 193.477 845.181 187.83C836.711 181.927 826.572 178.975 814.766 178.975C802.446 178.975 791.922 181.927 783.196 187.83C774.469 193.477 767.796 201.177 763.176 210.93C758.556 220.683 756.246 231.72 756.246 244.04C756.246 256.103 758.556 267.14 763.176 277.15C767.796 286.903 774.341 294.732 782.811 300.635C791.537 306.282 802.061 309.105 814.381 309.105Z"
       fill="white"
       id="path9"
       style="fill:#5835ce;fill-opacity:1" />
    <path
       d="M990.172 342.215C981.702 342.215 974.131 340.162 967.457 336.055C960.784 331.948 955.394 326.43 951.287 319.5C947.437 312.57 945.512 304.998 945.512 296.785C945.512 288.572 947.566 281.128 951.672 274.455C955.779 267.782 961.426 262.007 968.612 257.13L1054.08 201.305C1056.65 200.022 1058.19 198.61 1058.7 197.07C1059.47 195.53 1059.86 193.99 1059.86 192.45C1059.86 190.14 1058.96 188.087 1057.16 186.29C1055.62 184.493 1053.44 183.595 1050.62 183.595H955.137V145.865H1063.71C1072.18 145.865 1079.62 147.918 1086.04 152.025C1092.71 156.132 1097.97 161.65 1101.82 168.58C1105.93 175.51 1107.98 183.082 1107.98 191.295C1107.98 199.508 1105.93 206.952 1101.82 213.625C1097.72 220.298 1092.07 226.073 1084.88 230.95L999.797 286.775C997.487 288.058 995.819 289.47 994.792 291.01C994.022 292.55 993.637 294.09 993.637 295.63C993.637 297.94 994.536 299.993 996.332 301.79C998.129 303.587 1000.44 304.485 1003.26 304.485H1104.13V342.215H990.172Z"
       fill="white"
       id="path10"
       style="fill:#5835ce;fill-opacity:1" />
    <path
       d="M1174.13 342.215C1165.66 342.215 1158.09 340.162 1151.42 336.055C1144.74 331.948 1139.35 326.43 1135.25 319.5C1131.4 312.57 1129.47 304.998 1129.47 296.785C1129.47 288.572 1131.52 281.128 1135.63 274.455C1139.74 267.782 1145.38 262.007 1152.57 257.13L1238.04 201.305C1240.61 200.022 1242.15 198.61 1242.66 197.07C1243.43 195.53 1243.82 193.99 1243.82 192.45C1243.82 190.14 1242.92 188.087 1241.12 186.29C1239.58 184.493 1237.4 183.595 1234.58 183.595H1139.1V145.865H1247.67C1256.14 145.865 1263.58 147.918 1270 152.025C1276.67 156.132 1281.93 161.65 1285.78 168.58C1289.89 175.51 1291.94 183.082 1291.94 191.295C1291.94 199.508 1289.89 206.952 1285.78 213.625C1281.67 220.298 1276.03 226.073 1268.84 230.95L1183.76 286.775C1181.45 288.058 1179.78 289.47 1178.75 291.01C1177.98 292.55 1177.6 294.09 1177.6 295.63C1177.6 297.94 1178.49 299.993 1180.29 301.79C1182.09 303.587 1184.4 304.485 1187.22 304.485H1288.09V342.215H1174.13Z"
       fill="white"
       id="path11"
       style="fill:#5835ce;fill-opacity:1" />
    <path
       d="M1337.68 342.215V145.865H1381.96V342.215H1337.68Z"
       fill="white"
       id="path12"
       style="fill:#5835ce;fill-opacity:1" />
    <path
       d="M1502.82 342.215C1485.37 342.215 1471.64 337.21 1461.63 327.2C1451.87 317.19 1447 303.587 1447 286.39V96.585H1490.89V284.465C1490.89 290.368 1492.68 295.245 1496.28 299.095C1499.87 302.688 1504.62 304.485 1510.52 304.485H1551.72V342.215H1502.82ZM1413.12 183.595V145.865H1552.1V183.595H1413.12Z"
       fill="white"
       id="path13"
       style="fill:#5835ce;fill-opacity:1" />
    <path
       d="M1686.29 342.215C1664.21 342.215 1644.83 338.108 1628.15 329.895C1611.72 321.425 1598.89 309.875 1589.65 295.245C1580.41 280.358 1575.79 263.29 1575.79 244.04C1575.79 223.763 1579.9 205.925 1588.11 190.525C1596.32 175.125 1607.62 163.062 1621.99 154.335C1636.36 145.608 1652.92 141.245 1671.66 141.245C1692.7 141.245 1710.03 145.737 1723.63 154.72C1737.23 163.703 1747.24 175.767 1753.66 190.91C1760.33 206.053 1763.67 222.993 1763.67 241.73C1763.67 244.297 1763.54 247.248 1763.29 250.585C1763.03 253.922 1762.64 256.488 1762.13 258.285H1622.76C1624.3 268.552 1628.02 277.15 1633.93 284.08C1639.83 290.753 1647.27 295.887 1656.26 299.48C1665.24 302.817 1675.25 304.485 1686.29 304.485H1739.03V342.215H1686.29ZM1622.38 228.255H1719.4C1719.14 223.378 1718.37 218.502 1717.09 213.625C1716.06 208.748 1714.26 204.128 1711.7 199.765C1709.39 195.402 1706.31 191.68 1702.46 188.6C1698.86 185.263 1694.5 182.697 1689.37 180.9C1684.23 178.847 1678.33 177.82 1671.66 177.82C1663.96 177.82 1657.15 179.36 1651.25 182.44C1645.35 185.263 1640.34 189.113 1636.24 193.99C1632.13 198.61 1628.92 204 1626.61 210.16C1624.56 216.063 1623.15 222.095 1622.38 228.255Z"
       fill="white"
       id="path14"
       style="fill:#5835ce;fill-opacity:1" />
    <path
       d="M1339.61 110.06C1345.25 115.707 1351.93 118.53 1359.63 118.53C1367.58 118.53 1374.26 115.707 1379.65 110.06C1385.29 104.413 1388.12 97.74 1388.12 90.04C1388.12 82.34 1385.29 75.6666 1379.65 70.02C1374.26 64.3733 1367.58 61.55 1359.63 61.55C1351.93 61.55 1345.25 64.3733 1339.61 70.02C1333.96 75.6666 1331.14 82.34 1331.14 90.04C1331.14 97.74 1333.96 104.413 1339.61 110.06Z"
       fill="url(#paint1_linear_1019_206)"
       id="path15" />
  </g>
  <path
     d="M189.626 566.336C180.752 566.336 173.071 564.416 166.586 560.576C160.186 556.651 155.237 551.232 151.738 544.32C148.325 537.323 146.618 529.259 146.618 520.128C146.618 510.912 148.325 502.848 151.738 495.936C155.237 488.939 160.186 483.477 166.586 479.552C173.071 475.627 180.752 473.664 189.626 473.664C200.293 473.664 208.997 476.309 215.738 481.6C222.479 486.805 226.746 494.187 228.538 503.744H211.642C210.447 498.709 208.015 494.741 204.346 491.84C200.677 488.939 195.727 487.488 189.498 487.488C183.866 487.488 179.002 488.811 174.906 491.456C170.895 494.016 167.781 497.771 165.562 502.72C163.429 507.584 162.362 513.387 162.362 520.128C162.362 526.869 163.429 532.672 165.562 537.536C167.781 542.315 170.895 546.027 174.906 548.672C179.002 551.232 183.866 552.512 189.498 552.512C195.727 552.512 200.677 551.189 204.346 548.544C208.015 545.813 210.447 542.059 211.642 537.28H228.538C226.831 546.325 222.565 553.451 215.738 558.656C208.997 563.776 200.293 566.336 189.626 566.336Z"
     fill="white"
     id="path16"
     style="fill:#5835ce;fill-opacity:1" />
  <path
     d="M268.016 566.336C261.872 566.336 256.325 564.928 251.376 562.112C246.512 559.211 242.672 555.243 239.856 550.208C237.125 545.088 235.76 539.243 235.76 532.672C235.76 525.931 237.168 520.043 239.984 515.008C242.8 509.888 246.64 505.92 251.504 503.104C256.453 500.203 262 498.752 268.144 498.752C274.288 498.752 279.792 500.203 284.656 503.104C289.605 505.92 293.445 509.845 296.176 514.88C298.992 519.915 300.4 525.803 300.4 532.544C300.4 539.285 298.992 545.173 296.176 550.208C293.36 555.243 289.478 559.211 284.528 562.112C279.664 564.928 274.16 566.336 268.016 566.336ZM268.016 553.152C271.088 553.152 273.862 552.384 276.336 550.848C278.896 549.312 280.944 547.008 282.48 543.936C284.016 540.864 284.784 537.067 284.784 532.544C284.784 528.021 284.016 524.267 282.48 521.28C281.029 518.208 279.024 515.904 276.464 514.368C273.99 512.832 271.216 512.064 268.144 512.064C265.157 512.064 262.384 512.832 259.824 514.368C257.264 515.904 255.216 518.208 253.68 521.28C252.144 524.267 251.376 528.021 251.376 532.544C251.376 537.067 252.144 540.864 253.68 543.936C255.216 547.008 257.221 549.312 259.696 550.848C262.256 552.384 265.029 553.152 268.016 553.152Z"
     fill="white"
     id="path17"
     style="fill:#5835ce;fill-opacity:1" />
  <path
     d="M310.316 564.8V500.288H323.884L325.036 511.04C326.999 507.285 329.815 504.299 333.484 502.08C337.153 499.861 341.505 498.752 346.54 498.752C351.745 498.752 356.183 499.861 359.852 502.08C363.521 504.213 366.338 507.371 368.3 511.552C370.348 515.733 371.372 520.939 371.372 527.168V564.8H356.012V528.576C356.012 523.2 354.817 519.061 352.428 516.16C350.039 513.259 346.498 511.808 341.804 511.808C338.732 511.808 335.959 512.533 333.484 513.984C331.095 515.435 329.175 517.568 327.724 520.384C326.359 523.115 325.676 526.443 325.676 530.368V564.8H310.316Z"
     fill="white"
     id="path18"
     style="fill:#5835ce;fill-opacity:1" />
  <path
     d="M410.478 564.8C406.126 564.8 402.329 564.117 399.086 562.752C395.929 561.387 393.454 559.125 391.662 555.968C389.87 552.811 388.974 548.544 388.974 543.168V513.216H377.966V500.288H388.974L390.766 483.264H404.334V500.288H421.87V513.216H404.334V543.168C404.334 546.411 405.017 548.672 406.382 549.952C407.833 551.147 410.222 551.744 413.55 551.744H421.486V564.8H410.478Z"
     fill="white"
     id="path19"
     style="fill:#5835ce;fill-opacity:1" />
  <path
     d="M452.705 566.336C447.414 566.336 443.02 565.44 439.521 563.648C436.022 561.856 433.42 559.467 431.713 556.48C430.006 553.493 429.153 550.251 429.153 546.752C429.153 542.656 430.177 539.115 432.225 536.128C434.358 533.141 437.473 530.837 441.569 529.216C445.665 527.509 450.7 526.656 456.673 526.656H472.929C472.929 523.243 472.46 520.427 471.521 518.208C470.582 515.904 469.132 514.197 467.169 513.088C465.206 511.979 462.689 511.424 459.617 511.424C456.118 511.424 453.132 512.235 450.657 513.856C448.182 515.392 446.646 517.781 446.049 521.024H430.945C431.457 516.416 432.993 512.491 435.553 509.248C438.113 505.92 441.484 503.36 445.665 501.568C449.932 499.691 454.582 498.752 459.617 498.752C465.676 498.752 470.838 499.819 475.105 501.952C479.372 504 482.614 506.987 484.833 510.912C487.137 514.752 488.289 519.403 488.289 524.864V564.8H475.233L473.697 554.432C472.844 556.139 471.734 557.717 470.369 559.168C469.089 560.619 467.596 561.899 465.889 563.008C464.182 564.032 462.22 564.843 460.001 565.44C457.868 566.037 455.436 566.336 452.705 566.336ZM456.161 554.176C458.636 554.176 460.812 553.749 462.689 552.896C464.652 551.957 466.316 550.677 467.681 549.056C469.132 547.349 470.241 545.472 471.009 543.424C471.777 541.376 472.289 539.2 472.545 536.896V536.64H458.337C455.35 536.64 452.876 537.024 450.913 537.792C448.95 538.475 447.542 539.499 446.689 540.864C445.836 542.229 445.409 543.808 445.409 545.6C445.409 547.392 445.836 548.928 446.689 550.208C447.542 551.488 448.78 552.469 450.401 553.152C452.022 553.835 453.942 554.176 456.161 554.176Z"
     fill="white"
     id="path20"
     style="fill:#5835ce;fill-opacity:1" />
  <path
     d="M500.221 564.8V500.288H515.581V564.8H500.221ZM507.901 490.048C505.085 490.048 502.738 489.195 500.861 487.488C499.069 485.696 498.173 483.52 498.173 480.96C498.173 478.315 499.069 476.181 500.861 474.56C502.738 472.853 505.085 472 507.901 472C510.717 472 513.021 472.853 514.813 474.56C516.691 476.181 517.629 478.315 517.629 480.96C517.629 483.52 516.691 485.696 514.813 487.488C513.021 489.195 510.717 490.048 507.901 490.048Z"
     fill="white"
     id="path21"
     style="fill:#5835ce;fill-opacity:1" />
  <path
     d="M528.211 564.8V500.288H541.779L542.931 511.04C544.894 507.285 547.71 504.299 551.379 502.08C555.048 499.861 559.401 498.752 564.435 498.752C569.641 498.752 574.078 499.861 577.747 502.08C581.416 504.213 584.232 507.371 586.195 511.552C588.243 515.733 589.267 520.939 589.267 527.168V564.8H573.907V528.576C573.907 523.2 572.713 519.061 570.323 516.16C567.934 513.259 564.392 511.808 559.699 511.808C556.627 511.808 553.854 512.533 551.379 513.984C548.99 515.435 547.07 517.568 545.619 520.384C544.254 523.115 543.571 526.443 543.571 530.368V564.8H528.211Z"
     fill="white"
     id="path22"
     style="fill:#5835ce;fill-opacity:1" />
  <path
     d="M630.549 566.336C624.149 566.336 618.517 564.971 613.653 562.24C608.789 559.424 604.992 555.499 602.261 550.464C599.531 545.429 598.165 539.627 598.165 533.056C598.165 526.229 599.488 520.256 602.133 515.136C604.864 510.016 608.661 506.005 613.525 503.104C618.475 500.203 624.192 498.752 630.677 498.752C636.992 498.752 642.496 500.16 647.189 502.976C651.883 505.792 655.509 509.589 658.069 514.368C660.629 519.061 661.909 524.352 661.909 530.24C661.909 531.093 661.909 532.032 661.909 533.056C661.909 534.08 661.824 535.147 661.653 536.256H609.173V526.4H646.421C646.251 521.707 644.672 518.037 641.685 515.392C638.699 512.661 634.986 511.296 630.549 511.296C627.392 511.296 624.49 512.021 621.845 513.472C619.2 514.923 617.109 517.099 615.573 520C614.037 522.816 613.269 526.4 613.269 530.752V534.464C613.269 538.475 613.994 541.931 615.445 544.832C616.981 547.733 619.029 549.952 621.589 551.488C624.235 552.939 627.179 553.664 630.421 553.664C634.005 553.664 636.949 552.896 639.253 551.36C641.643 549.824 643.392 547.776 644.501 545.216H660.117C658.923 549.227 656.96 552.853 654.229 556.096C651.499 559.253 648.128 561.771 644.117 563.648C640.106 565.44 635.584 566.336 630.549 566.336Z"
     fill="white"
     id="path23"
     style="fill:#5835ce;fill-opacity:1" />
  <path
     d="M670.971 564.8V500.288H684.667L686.075 512.32C687.611 509.504 689.531 507.115 691.835 505.152C694.139 503.104 696.827 501.525 699.899 500.416C703.057 499.307 706.512 498.752 710.267 498.752V515.008H704.891C702.331 515.008 699.899 515.349 697.595 516.032C695.291 516.629 693.286 517.653 691.579 519.104C689.958 520.469 688.678 522.389 687.739 524.864C686.8 527.253 686.331 530.283 686.331 533.952V564.8H670.971Z"
     fill="white"
     id="path24"
     style="fill:#5835ce;fill-opacity:1" />
  <path
     d="M717.75 533.44V520.64H770.742V533.44H717.75Z"
     fill="white"
     id="path25"
     style="fill:#5835ce;fill-opacity:1" />
  <path
     d="M783.981 564.8V500.288H797.549L798.701 511.04C800.664 507.285 803.48 504.299 807.149 502.08C810.819 499.861 815.17 498.752 820.205 498.752C825.41 498.752 829.848 499.861 833.517 502.08C837.186 504.213 840.002 507.371 841.965 511.552C844.013 515.733 845.037 520.939 845.037 527.168V564.8H829.677V528.576C829.677 523.2 828.482 519.061 826.093 516.16C823.704 513.259 820.163 511.808 815.469 511.808C812.397 511.808 809.624 512.533 807.149 513.984C804.76 515.435 802.84 517.568 801.389 520.384C800.024 523.115 799.341 526.443 799.341 530.368V564.8H783.981Z"
     fill="white"
     id="path26"
     style="fill:#5835ce;fill-opacity:1" />
  <path
     d="M877.615 566.336C872.325 566.336 867.93 565.44 864.431 563.648C860.932 561.856 858.33 559.467 856.623 556.48C854.917 553.493 854.063 550.251 854.063 546.752C854.063 542.656 855.087 539.115 857.135 536.128C859.268 533.141 862.383 530.837 866.479 529.216C870.575 527.509 875.61 526.656 881.583 526.656H897.839C897.839 523.243 897.37 520.427 896.431 518.208C895.492 515.904 894.042 514.197 892.079 513.088C890.116 511.979 887.599 511.424 884.527 511.424C881.028 511.424 878.042 512.235 875.567 513.856C873.092 515.392 871.557 517.781 870.959 521.024H855.855C856.367 516.416 857.903 512.491 860.463 509.248C863.023 505.92 866.394 503.36 870.575 501.568C874.842 499.691 879.492 498.752 884.527 498.752C890.586 498.752 895.748 499.819 900.015 501.952C904.282 504 907.524 506.987 909.743 510.912C912.047 514.752 913.199 519.403 913.199 524.864V564.8H900.143L898.607 554.432C897.754 556.139 896.645 557.717 895.279 559.168C893.999 560.619 892.506 561.899 890.799 563.008C889.092 564.032 887.13 564.843 884.911 565.44C882.778 566.037 880.346 566.336 877.615 566.336ZM881.071 554.176C883.546 554.176 885.722 553.749 887.599 552.896C889.562 551.957 891.226 550.677 892.591 549.056C894.042 547.349 895.151 545.472 895.919 543.424C896.687 541.376 897.199 539.2 897.455 536.896V536.64H883.247C880.26 536.64 877.786 537.024 875.823 537.792C873.861 538.475 872.453 539.499 871.599 540.864C870.746 542.229 870.319 543.808 870.319 545.6C870.319 547.392 870.746 548.928 871.599 550.208C872.453 551.488 873.69 552.469 875.311 553.152C876.932 553.835 878.852 554.176 881.071 554.176Z"
     fill="white"
     id="path27"
     style="fill:#5835ce;fill-opacity:1" />
  <path
     d="M951.523 564.8C947.171 564.8 943.374 564.117 940.131 562.752C936.974 561.387 934.499 559.125 932.707 555.968C930.915 552.811 930.019 548.544 930.019 543.168V513.216H919.011V500.288H930.019L931.811 483.264H945.379V500.288H962.915V513.216H945.379V543.168C945.379 546.411 946.062 548.672 947.427 549.952C948.878 551.147 951.267 551.744 954.595 551.744H962.531V564.8H951.523Z"
     fill="white"
     id="path28"
     style="fill:#5835ce;fill-opacity:1" />
  <path
     d="M972.886 564.8V500.288H988.246V564.8H972.886ZM980.566 490.048C977.75 490.048 975.404 489.195 973.526 487.488C971.734 485.696 970.838 483.52 970.838 480.96C970.838 478.315 971.734 476.181 973.526 474.56C975.404 472.853 977.75 472 980.566 472C983.382 472 985.686 472.853 987.478 474.56C989.355 476.181 990.294 478.315 990.294 480.96C990.294 483.52 989.355 485.696 987.478 487.488C985.686 489.195 983.382 490.048 980.566 490.048Z"
     fill="white"
     id="path29"
     style="fill:#5835ce;fill-opacity:1" />
  <path
     d="M1018.54 564.8L994.732 500.288H1010.86L1027.88 550.208L1044.91 500.288H1060.78L1036.97 564.8H1018.54Z"
     fill="white"
     id="path30"
     style="fill:#5835ce;fill-opacity:1" />
  <path
     d="M1093.71 566.336C1087.31 566.336 1081.68 564.971 1076.82 562.24C1071.95 559.424 1068.16 555.499 1065.43 550.464C1062.7 545.429 1061.33 539.627 1061.33 533.056C1061.33 526.229 1062.65 520.256 1065.3 515.136C1068.03 510.016 1071.83 506.005 1076.69 503.104C1081.64 500.203 1087.36 498.752 1093.84 498.752C1100.16 498.752 1105.66 500.16 1110.35 502.976C1115.05 505.792 1118.67 509.589 1121.23 514.368C1123.79 519.061 1125.07 524.352 1125.07 530.24C1125.07 531.093 1125.07 532.032 1125.07 533.056C1125.07 534.08 1124.99 535.147 1124.82 536.256H1072.34V526.4H1109.59C1109.42 521.707 1107.84 518.037 1104.85 515.392C1101.86 512.661 1098.15 511.296 1093.71 511.296C1090.56 511.296 1087.66 512.021 1085.01 513.472C1082.36 514.923 1080.27 517.099 1078.74 520C1077.2 522.816 1076.43 526.4 1076.43 530.752V534.464C1076.43 538.475 1077.16 541.931 1078.61 544.832C1080.15 547.733 1082.19 549.952 1084.75 551.488C1087.4 552.939 1090.34 553.664 1093.59 553.664C1097.17 553.664 1100.11 552.896 1102.42 551.36C1104.81 549.824 1106.56 547.776 1107.67 545.216H1123.28C1122.09 549.227 1120.12 552.853 1117.39 556.096C1114.66 559.253 1111.29 561.771 1107.28 563.648C1103.27 565.44 1098.75 566.336 1093.71 566.336Z"
     fill="white"
     id="path31"
     style="fill:#5835ce;fill-opacity:1" />
  <path
     d="M1193.67 594.496C1189.58 594.496 1185.65 593.984 1181.9 592.96C1178.14 592.021 1174.69 590.485 1171.53 588.352C1168.46 586.304 1165.9 583.701 1163.85 580.544C1161.89 577.472 1160.61 573.76 1160.01 569.408H1175.24C1175.84 571.797 1176.95 573.845 1178.57 575.552C1180.28 577.344 1182.37 578.709 1184.84 579.648C1187.4 580.672 1190.22 581.184 1193.29 581.184C1196.79 581.184 1199.9 580.459 1202.63 579.008C1205.45 577.643 1207.67 575.509 1209.29 572.608C1211 569.707 1211.85 566.037 1211.85 561.6V553.408C1210.57 555.541 1208.91 557.504 1206.86 559.296C1204.81 561.003 1202.34 562.411 1199.43 563.52C1196.62 564.544 1193.38 565.056 1189.71 565.056C1183.65 565.056 1178.23 563.605 1173.45 560.704C1168.67 557.803 1164.92 553.877 1162.19 548.928C1159.46 543.893 1158.09 538.219 1158.09 531.904C1158.09 525.504 1159.46 519.829 1162.19 514.88C1164.92 509.931 1168.67 506.005 1173.45 503.104C1178.31 500.203 1183.73 498.752 1189.71 498.752C1193.03 498.752 1196.11 499.264 1198.92 500.288C1201.74 501.227 1204.21 502.507 1206.35 504.128C1208.56 505.749 1210.4 507.584 1211.85 509.632L1213.39 500.288H1227.21V560.96C1227.21 566.421 1226.31 571.243 1224.52 575.424C1222.82 579.605 1220.43 583.104 1217.35 585.92C1214.37 588.736 1210.83 590.869 1206.73 592.32C1202.72 593.771 1198.37 594.496 1193.67 594.496ZM1192.65 551.744C1196.4 551.744 1199.69 550.891 1202.51 549.184C1205.41 547.392 1207.63 545.003 1209.16 542.016C1210.78 539.029 1211.59 535.659 1211.59 531.904C1211.59 528.064 1210.78 524.651 1209.16 521.664C1207.63 518.677 1205.41 516.373 1202.51 514.752C1199.69 513.045 1196.4 512.192 1192.65 512.192C1188.98 512.192 1185.7 513.045 1182.79 514.752C1179.89 516.373 1177.63 518.677 1176.01 521.664C1174.47 524.565 1173.71 527.979 1173.71 531.904C1173.71 535.659 1174.47 539.029 1176.01 542.016C1177.63 545.003 1179.89 547.392 1182.79 549.184C1185.7 550.891 1188.98 551.744 1192.65 551.744Z"
     fill="white"
     id="path32"
     style="fill:#5835ce;fill-opacity:1" />
  <path
     d="M1260.78 566.336C1255.48 566.336 1251.09 565.44 1247.59 563.648C1244.09 561.856 1241.49 559.467 1239.78 556.48C1238.08 553.493 1237.22 550.251 1237.22 546.752C1237.22 542.656 1238.25 539.115 1240.3 536.128C1242.43 533.141 1245.54 530.837 1249.64 529.216C1253.74 527.509 1258.77 526.656 1264.74 526.656H1281C1281 523.243 1280.53 520.427 1279.59 518.208C1278.65 515.904 1277.2 514.197 1275.24 513.088C1273.28 511.979 1270.76 511.424 1267.69 511.424C1264.19 511.424 1261.2 512.235 1258.73 513.856C1256.25 515.392 1254.72 517.781 1254.12 521.024H1239.02C1239.53 516.416 1241.06 512.491 1243.62 509.248C1246.18 505.92 1249.55 503.36 1253.74 501.568C1258 499.691 1262.65 498.752 1267.69 498.752C1273.75 498.752 1278.91 499.819 1283.18 501.952C1287.44 504 1290.68 506.987 1292.9 510.912C1295.21 514.752 1296.36 519.403 1296.36 524.864V564.8H1283.3L1281.77 554.432C1280.91 556.139 1279.8 557.717 1278.44 559.168C1277.16 560.619 1275.67 561.899 1273.96 563.008C1272.25 564.032 1270.29 564.843 1268.07 565.44C1265.94 566.037 1263.51 566.336 1260.78 566.336ZM1264.23 554.176C1266.71 554.176 1268.88 553.749 1270.76 552.896C1272.72 551.957 1274.39 550.677 1275.75 549.056C1277.2 547.349 1278.31 545.472 1279.08 543.424C1279.85 541.376 1280.36 539.2 1280.62 536.896V536.64H1266.41C1263.42 536.64 1260.95 537.024 1258.98 537.792C1257.02 538.475 1255.61 539.499 1254.76 540.864C1253.91 542.229 1253.48 543.808 1253.48 545.6C1253.48 547.392 1253.91 548.928 1254.76 550.208C1255.61 551.488 1256.85 552.469 1258.47 553.152C1260.09 553.835 1262.01 554.176 1264.23 554.176Z"
     fill="white"
     id="path33"
     style="fill:#5835ce;fill-opacity:1" />
  <path
     d="M1307.65 564.8V500.288H1321.22L1322.5 509.12C1324.55 505.877 1327.24 503.36 1330.56 501.568C1333.98 499.691 1337.86 498.752 1342.21 498.752C1345.45 498.752 1348.36 499.179 1350.92 500.032C1353.56 500.885 1355.86 502.165 1357.83 503.872C1359.88 505.579 1361.54 507.712 1362.82 510.272C1365.21 506.688 1368.32 503.872 1372.16 501.824C1376 499.776 1380.18 498.752 1384.71 498.752C1390.08 498.752 1394.65 499.861 1398.4 502.08C1402.16 504.213 1405.02 507.413 1406.98 511.68C1408.94 515.861 1409.92 521.024 1409.92 527.168V564.8H1394.69V528.704C1394.69 523.243 1393.58 519.061 1391.36 516.16C1389.14 513.259 1385.86 511.808 1381.51 511.808C1378.52 511.808 1375.88 512.533 1373.57 513.984C1371.35 515.435 1369.6 517.568 1368.32 520.384C1367.04 523.115 1366.4 526.485 1366.4 530.496V564.8H1351.17V528.704C1351.17 523.243 1350.06 519.061 1347.84 516.16C1345.62 513.259 1342.3 511.808 1337.86 511.808C1335.04 511.808 1332.48 512.533 1330.18 513.984C1327.96 515.435 1326.21 517.568 1324.93 520.384C1323.65 523.115 1323.01 526.485 1323.01 530.496V564.8H1307.65Z"
     fill="white"
     id="path34"
     style="fill:#5835ce;fill-opacity:1" />
  <path
     d="M1421.67 564.8V500.288H1437.03V564.8H1421.67ZM1429.35 490.048C1426.54 490.048 1424.19 489.195 1422.31 487.488C1420.52 485.696 1419.62 483.52 1419.62 480.96C1419.62 478.315 1420.52 476.181 1422.31 474.56C1424.19 472.853 1426.54 472 1429.35 472C1432.17 472 1434.47 472.853 1436.26 474.56C1438.14 476.181 1439.08 478.315 1439.08 480.96C1439.08 483.52 1438.14 485.696 1436.26 487.488C1434.47 489.195 1432.17 490.048 1429.35 490.048Z"
     fill="white"
     id="path35"
     style="fill:#5835ce;fill-opacity:1" />
  <path
     d="M1449.66 564.8V500.288H1463.23L1464.38 511.04C1466.34 507.285 1469.16 504.299 1472.83 502.08C1476.5 499.861 1480.85 498.752 1485.89 498.752C1491.09 498.752 1495.53 499.861 1499.2 502.08C1502.87 504.213 1505.68 507.371 1507.65 511.552C1509.69 515.733 1510.72 520.939 1510.72 527.168V564.8H1495.36V528.576C1495.36 523.2 1494.16 519.061 1491.77 516.16C1489.38 513.259 1485.84 511.808 1481.15 511.808C1478.08 511.808 1475.3 512.533 1472.83 513.984C1470.44 515.435 1468.52 517.568 1467.07 520.384C1465.7 523.115 1465.02 526.443 1465.02 530.368V564.8H1449.66Z"
     fill="white"
     id="path36"
     style="fill:#5835ce;fill-opacity:1" />
  <path
     d="M1555.2 594.496C1551.1 594.496 1547.18 593.984 1543.42 592.96C1539.67 592.021 1536.21 590.485 1533.06 588.352C1529.98 586.304 1527.42 583.701 1525.38 580.544C1523.41 577.472 1522.13 573.76 1521.54 569.408H1536.77C1537.36 571.797 1538.47 573.845 1540.1 575.552C1541.8 577.344 1543.89 578.709 1546.37 579.648C1548.93 580.672 1551.74 581.184 1554.82 581.184C1558.31 581.184 1561.43 580.459 1564.16 579.008C1566.98 577.643 1569.19 575.509 1570.82 572.608C1572.52 569.707 1573.38 566.037 1573.38 561.6V553.408C1572.1 555.541 1570.43 557.504 1568.38 559.296C1566.34 561.003 1563.86 562.411 1560.96 563.52C1558.14 564.544 1554.9 565.056 1551.23 565.056C1545.17 565.056 1539.75 563.605 1534.98 560.704C1530.2 557.803 1526.44 553.877 1523.71 548.928C1520.98 543.893 1519.62 538.219 1519.62 531.904C1519.62 525.504 1520.98 519.829 1523.71 514.88C1526.44 509.931 1530.2 506.005 1534.98 503.104C1539.84 500.203 1545.26 498.752 1551.23 498.752C1554.56 498.752 1557.63 499.264 1560.45 500.288C1563.26 501.227 1565.74 502.507 1567.87 504.128C1570.09 505.749 1571.92 507.584 1573.38 509.632L1574.91 500.288H1588.74V560.96C1588.74 566.421 1587.84 571.243 1586.05 575.424C1584.34 579.605 1581.95 583.104 1578.88 585.92C1575.89 588.736 1572.35 590.869 1568.26 592.32C1564.24 593.771 1559.89 594.496 1555.2 594.496ZM1554.18 551.744C1557.93 551.744 1561.22 550.891 1564.03 549.184C1566.93 547.392 1569.15 545.003 1570.69 542.016C1572.31 539.029 1573.12 535.659 1573.12 531.904C1573.12 528.064 1572.31 524.651 1570.69 521.664C1569.15 518.677 1566.93 516.373 1564.03 514.752C1561.22 513.045 1557.93 512.192 1554.18 512.192C1550.51 512.192 1547.22 513.045 1544.32 514.752C1541.42 516.373 1539.16 518.677 1537.54 521.664C1536 524.565 1535.23 527.979 1535.23 531.904C1535.23 535.659 1536 539.029 1537.54 542.016C1539.16 545.003 1541.42 547.392 1544.32 549.184C1547.22 550.891 1550.51 551.744 1554.18 551.744Z"
     fill="white"
     id="path37"
     style="fill:#5835ce;fill-opacity:1" />
  <path
     d="M1607.45 565.44C1604.55 565.44 1602.2 564.544 1600.41 562.752C1598.62 560.96 1597.72 558.827 1597.72 556.352C1597.72 553.707 1598.62 551.488 1600.41 549.696C1602.2 547.904 1604.55 547.008 1607.45 547.008C1610.27 547.008 1612.57 547.904 1614.36 549.696C1616.16 551.488 1617.05 553.707 1617.05 556.352C1617.05 558.827 1616.16 560.96 1614.36 562.752C1612.57 564.544 1610.27 565.44 1607.45 565.44Z"
     fill="white"
     id="path38"
     style="fill:#5835ce;fill-opacity:1" />
  <rect
     x="142.454"
     y="606.496"
     width="1478.76"
     height="100.48"
     rx="50.24"
     fill="url(#paint2_linear_1019_206)"
     id="rect38" />
  <path
     d="M312.454 677.896L320.326 633.096H334.982C338.182 633.096 340.763 633.629 342.726 634.696C344.731 635.763 346.182 637.192 347.078 638.984C347.974 640.776 348.379 642.739 348.294 644.872C348.166 647.859 347.355 650.44 345.862 652.616C344.369 654.792 342.299 656.477 339.654 657.672C337.009 658.867 333.915 659.464 330.374 659.464H321.094L317.83 677.896H312.454ZM321.862 654.92H331.014C334.726 654.92 337.563 654.109 339.526 652.488C341.489 650.824 342.534 648.392 342.662 645.192C342.79 642.931 342.193 641.096 340.87 639.688C339.547 638.28 337.286 637.576 334.086 637.576H324.934L321.862 654.92Z"
     fill="white"
     id="path39" />
  <path
     d="M362.915 678.664C360.142 678.664 357.71 678.045 355.619 676.808C353.571 675.528 352.014 673.779 350.947 671.56C349.88 669.299 349.411 666.739 349.539 663.88C349.667 661.149 350.222 658.632 351.203 656.328C352.227 653.981 353.592 651.976 355.299 650.312C357.048 648.605 359.032 647.283 361.251 646.344C363.512 645.363 365.902 644.872 368.419 644.872C371.192 644.872 373.603 645.491 375.651 646.728C377.742 647.965 379.32 649.672 380.387 651.848C381.496 654.024 381.966 656.584 381.795 659.528C381.667 662.301 381.091 664.861 380.067 667.208C379.086 669.512 377.72 671.517 375.971 673.224C374.264 674.931 372.302 676.275 370.083 677.256C367.864 678.195 365.475 678.664 362.915 678.664ZM363.619 674.056C365.923 674.056 367.992 673.459 369.827 672.264C371.704 671.069 373.219 669.405 374.371 667.272C375.523 665.096 376.163 662.621 376.291 659.848C376.419 657.587 376.099 655.709 375.331 654.216C374.606 652.68 373.56 651.507 372.195 650.696C370.872 649.885 369.379 649.48 367.715 649.48C365.454 649.48 363.406 650.099 361.571 651.336C359.736 652.531 358.243 654.195 357.091 656.328C355.939 658.461 355.299 660.936 355.171 663.752C355.043 665.928 355.342 667.784 356.067 669.32C356.792 670.856 357.816 672.029 359.139 672.84C360.504 673.651 361.998 674.056 363.619 674.056Z"
     fill="white"
     id="path40" />
  <path
     d="M391.601 677.896L387.761 645.64H393.201L395.697 672.84H394.673L407.601 645.64H413.681L416.945 672.776L415.921 672.84L428.081 645.64H433.457L418.353 677.896H412.849L409.457 649.48H410.481L397.041 677.896H391.601Z"
     fill="white"
     id="path41" />
  <path
     d="M447.277 678.664C444.589 678.664 442.242 678.067 440.237 676.872C438.274 675.677 436.781 673.992 435.757 671.816C434.775 669.64 434.349 667.101 434.477 664.2C434.605 661.427 435.159 658.888 436.141 656.584C437.122 654.237 438.445 652.189 440.109 650.44C441.815 648.691 443.778 647.325 445.997 646.344C448.215 645.363 450.626 644.872 453.229 644.872C456.13 644.872 458.519 645.469 460.397 646.664C462.317 647.859 463.725 649.459 464.621 651.464C465.517 653.427 465.901 655.603 465.773 657.992C465.73 658.717 465.623 659.549 465.453 660.488C465.325 661.384 465.175 662.216 465.005 662.984H438.637L439.341 658.824H460.461C460.759 656.819 460.589 655.133 459.949 653.768C459.309 652.36 458.349 651.293 457.069 650.568C455.789 649.8 454.253 649.416 452.461 649.416C450.626 649.416 448.855 649.843 447.149 650.696C445.485 651.507 444.034 652.723 442.797 654.344C441.559 655.923 440.727 657.907 440.301 660.296L439.981 662.088C439.511 664.477 439.554 666.589 440.109 668.424C440.663 670.259 441.623 671.667 442.989 672.648C444.397 673.629 446.103 674.12 448.109 674.12C450.37 674.12 452.311 673.629 453.933 672.648C455.597 671.624 456.898 670.259 457.837 668.552H463.149C462.253 670.472 461.037 672.2 459.501 673.736C458.007 675.272 456.215 676.488 454.125 677.384C452.077 678.237 449.794 678.664 447.277 678.664Z"
     fill="white"
     id="path42" />
  <path
     d="M469.697 677.896L475.329 645.64H480.257L479.617 651.4C480.598 650.035 481.75 648.883 483.073 647.944C484.395 646.963 485.91 646.216 487.617 645.704C489.323 645.149 491.158 644.872 493.121 644.872L492.161 650.504H490.177C488.811 650.504 487.467 650.675 486.145 651.016C484.865 651.357 483.67 651.912 482.561 652.68C481.494 653.448 480.577 654.472 479.809 655.752C479.041 656.989 478.486 658.547 478.145 660.424L475.073 677.896H469.697Z"
     fill="white"
     id="path43" />
  <path
     d="M506.589 678.664C503.901 678.664 501.554 678.067 499.549 676.872C497.586 675.677 496.093 673.992 495.069 671.816C494.088 669.64 493.661 667.101 493.789 664.2C493.917 661.427 494.472 658.888 495.453 656.584C496.434 654.237 497.757 652.189 499.421 650.44C501.128 648.691 503.09 647.325 505.309 646.344C507.528 645.363 509.938 644.872 512.541 644.872C515.442 644.872 517.832 645.469 519.709 646.664C521.629 647.859 523.037 649.459 523.933 651.464C524.829 653.427 525.213 655.603 525.085 657.992C525.042 658.717 524.936 659.549 524.765 660.488C524.637 661.384 524.488 662.216 524.317 662.984H497.949L498.653 658.824H519.773C520.072 656.819 519.901 655.133 519.261 653.768C518.621 652.36 517.661 651.293 516.381 650.568C515.101 649.8 513.565 649.416 511.773 649.416C509.938 649.416 508.168 649.843 506.461 650.696C504.797 651.507 503.346 652.723 502.109 654.344C500.872 655.923 500.04 657.907 499.613 660.296L499.293 662.088C498.824 664.477 498.866 666.589 499.421 668.424C499.976 670.259 500.936 671.667 502.301 672.648C503.709 673.629 505.416 674.12 507.421 674.12C509.682 674.12 511.624 673.629 513.245 672.648C514.909 671.624 516.21 670.259 517.149 668.552H522.461C521.565 670.472 520.349 672.2 518.813 673.736C517.32 675.272 515.528 676.488 513.437 677.384C511.389 678.237 509.106 678.664 506.589 678.664Z"
     fill="white"
     id="path44" />
  <path
     d="M543.089 678.664C540.316 678.664 537.948 678.003 535.985 676.68C534.022 675.357 532.55 673.565 531.569 671.304C530.588 669 530.182 666.483 530.353 663.752C530.481 660.979 531.014 658.461 531.953 656.2C532.934 653.896 534.236 651.912 535.857 650.248C537.521 648.541 539.42 647.219 541.553 646.28C543.729 645.341 546.033 644.872 548.465 644.872C551.238 644.872 553.5 645.427 555.249 646.536C557.041 647.645 558.364 649.117 559.217 650.952L562.609 631.816H567.985L559.857 677.896H554.929L555.377 672.584C554.566 673.651 553.564 674.653 552.369 675.592C551.217 676.488 549.873 677.235 548.337 677.832C546.801 678.387 545.052 678.664 543.089 678.664ZM544.625 673.992C547.014 673.992 549.126 673.373 550.961 672.136C552.838 670.856 554.332 669.149 555.441 667.016C556.55 664.84 557.169 662.408 557.297 659.72C557.425 657.672 557.148 655.901 556.465 654.408C555.825 652.872 554.822 651.677 553.457 650.824C552.134 649.971 550.513 649.544 548.593 649.544C546.289 649.544 544.198 650.141 542.321 651.336C540.444 652.488 538.929 654.109 537.777 656.2C536.668 658.291 536.049 660.68 535.921 663.368C535.793 665.416 536.07 667.251 536.753 668.872C537.436 670.493 538.438 671.752 539.761 672.648C541.126 673.544 542.748 673.992 544.625 673.992Z"
     fill="white"
     id="path45" />
  <path
     d="M603.652 678.664C601.86 678.664 600.239 678.365 598.788 677.768C597.38 677.171 596.185 676.403 595.204 675.464C594.265 674.525 593.561 673.565 593.092 672.584L591.684 677.896H586.82L594.948 631.816H600.324L596.996 650.696C598.319 649.075 599.983 647.709 601.988 646.6C603.993 645.448 606.383 644.872 609.156 644.872C611.972 644.872 614.361 645.512 616.324 646.792C618.287 648.072 619.759 649.821 620.74 652.04C621.721 654.216 622.148 656.712 622.02 659.528C621.892 662.216 621.337 664.733 620.356 667.08C619.417 669.427 618.116 671.475 616.452 673.224C614.788 674.931 612.868 676.275 610.692 677.256C608.516 678.195 606.169 678.664 603.652 678.664ZM603.908 673.992C606.212 673.992 608.281 673.395 610.116 672.2C611.993 671.005 613.487 669.363 614.596 667.272C615.705 665.181 616.324 662.792 616.452 660.104C616.58 658.056 616.303 656.243 615.62 654.664C614.937 653.043 613.913 651.784 612.548 650.888C611.225 649.992 609.625 649.544 607.748 649.544C605.401 649.544 603.289 650.163 601.412 651.4C599.577 652.637 598.084 654.323 596.932 656.456C595.78 658.547 595.161 660.936 595.076 663.624C594.948 665.715 595.225 667.549 595.908 669.128C596.591 670.664 597.615 671.859 598.98 672.712C600.345 673.565 601.988 673.992 603.908 673.992Z"
     fill="white"
     id="path46" />
  <path
     d="M625.347 691.976L636.099 674.696H634.307L626.755 645.64H632.323L638.659 670.728L654.147 645.64H659.779L630.915 691.976H625.347Z"
     fill="white"
     id="path47" />
  <path
     d="M678.267 677.896L686.139 633.096H712.955L712.187 637.448H690.747L687.995 653.32H706.043L705.275 657.544H687.227L683.643 677.896H678.267Z"
     fill="white"
     id="path48" />
  <path
     d="M724.402 678.664C721.714 678.664 719.367 678.067 717.362 676.872C715.399 675.677 713.906 673.992 712.882 671.816C711.9 669.64 711.474 667.101 711.602 664.2C711.73 661.427 712.284 658.888 713.266 656.584C714.247 654.237 715.57 652.189 717.234 650.44C718.94 648.691 720.903 647.325 723.122 646.344C725.34 645.363 727.751 644.872 730.354 644.872C733.255 644.872 735.644 645.469 737.522 646.664C739.442 647.859 740.85 649.459 741.746 651.464C742.642 653.427 743.026 655.603 742.898 657.992C742.855 658.717 742.748 659.549 742.578 660.488C742.45 661.384 742.3 662.216 742.13 662.984H715.762L716.466 658.824H737.586C737.884 656.819 737.714 655.133 737.074 653.768C736.434 652.36 735.474 651.293 734.194 650.568C732.914 649.8 731.378 649.416 729.586 649.416C727.751 649.416 725.98 649.843 724.274 650.696C722.61 651.507 721.159 652.723 719.922 654.344C718.684 655.923 717.852 657.907 717.426 660.296L717.106 662.088C716.636 664.477 716.679 666.589 717.234 668.424C717.788 670.259 718.748 671.667 720.114 672.648C721.522 673.629 723.228 674.12 725.234 674.12C727.495 674.12 729.436 673.629 731.058 672.648C732.722 671.624 734.023 670.259 734.962 668.552H740.274C739.378 670.472 738.162 672.2 736.626 673.736C735.132 675.272 733.34 676.488 731.25 677.384C729.202 678.237 726.919 678.664 724.402 678.664Z"
     fill="white"
     id="path49" />
  <path
     d="M760.902 678.664C758.128 678.664 755.76 678.003 753.798 676.68C751.835 675.357 750.363 673.565 749.382 671.304C748.4 669 747.995 666.483 748.166 663.752C748.294 660.979 748.827 658.461 749.766 656.2C750.747 653.896 752.048 651.912 753.67 650.248C755.334 648.541 757.232 647.219 759.366 646.28C761.542 645.341 763.846 644.872 766.278 644.872C769.051 644.872 771.312 645.427 773.062 646.536C774.854 647.645 776.176 649.117 777.03 650.952L780.422 631.816H785.798L777.67 677.896H772.742L773.19 672.584C772.379 673.651 771.376 674.653 770.182 675.592C769.03 676.488 767.686 677.235 766.15 677.832C764.614 678.387 762.864 678.664 760.902 678.664ZM762.438 673.992C764.827 673.992 766.939 673.373 768.774 672.136C770.651 670.856 772.144 669.149 773.254 667.016C774.363 664.84 774.982 662.408 775.11 659.72C775.238 657.672 774.96 655.901 774.278 654.408C773.638 652.872 772.635 651.677 771.27 650.824C769.947 649.971 768.326 649.544 766.406 649.544C764.102 649.544 762.011 650.141 760.134 651.336C758.256 652.488 756.742 654.109 755.59 656.2C754.48 658.291 753.862 660.68 753.734 663.368C753.606 665.416 753.883 667.251 754.566 668.872C755.248 670.493 756.251 671.752 757.574 672.648C758.939 673.544 760.56 673.992 762.438 673.992Z"
     fill="white"
     id="path50" />
  <path
     d="M801.29 678.664C798.517 678.664 796.085 678.045 793.994 676.808C791.946 675.528 790.389 673.779 789.322 671.56C788.255 669.299 787.786 666.739 787.914 663.88C788.042 661.149 788.597 658.632 789.578 656.328C790.602 653.981 791.967 651.976 793.674 650.312C795.423 648.605 797.407 647.283 799.626 646.344C801.887 645.363 804.277 644.872 806.794 644.872C809.567 644.872 811.978 645.491 814.026 646.728C816.117 647.965 817.695 649.672 818.762 651.848C819.871 654.024 820.341 656.584 820.17 659.528C820.042 662.301 819.466 664.861 818.442 667.208C817.461 669.512 816.095 671.517 814.346 673.224C812.639 674.931 810.677 676.275 808.458 677.256C806.239 678.195 803.85 678.664 801.29 678.664ZM801.994 674.056C804.298 674.056 806.367 673.459 808.202 672.264C810.079 671.069 811.594 669.405 812.746 667.272C813.898 665.096 814.538 662.621 814.666 659.848C814.794 657.587 814.474 655.709 813.706 654.216C812.981 652.68 811.935 651.507 810.57 650.696C809.247 649.885 807.754 649.48 806.09 649.48C803.829 649.48 801.781 650.099 799.946 651.336C798.111 652.531 796.618 654.195 795.466 656.328C794.314 658.461 793.674 660.936 793.546 663.752C793.418 665.928 793.717 667.784 794.442 669.32C795.167 670.856 796.191 672.029 797.514 672.84C798.879 673.651 800.373 674.056 801.994 674.056Z"
     fill="white"
     id="path51" />
  <path
     d="M824.759 677.896L830.391 645.64H835.319L834.679 651.4C835.66 650.035 836.812 648.883 838.135 647.944C839.458 646.963 840.972 646.216 842.679 645.704C844.386 645.149 846.22 644.872 848.183 644.872L847.223 650.504H845.239C843.874 650.504 842.53 650.675 841.207 651.016C839.927 651.357 838.732 651.912 837.623 652.68C836.556 653.448 835.639 654.472 834.871 655.752C834.103 656.989 833.548 658.547 833.207 660.424L830.135 677.896H824.759Z"
     fill="white"
     id="path52" />
  <path
     d="M858.749 678.664C856.36 678.664 854.397 678.259 852.861 677.448C851.368 676.595 850.28 675.485 849.597 674.12C848.914 672.712 848.616 671.219 848.701 669.64C848.786 667.336 849.49 665.352 850.813 663.688C852.136 662.024 853.97 660.744 856.317 659.848C858.664 658.952 861.352 658.504 864.381 658.504H872.893C873.234 656.456 873.213 654.771 872.829 653.448C872.488 652.083 871.784 651.08 870.717 650.44C869.65 649.757 868.264 649.416 866.557 649.416C864.509 649.416 862.653 649.928 860.989 650.952C859.325 651.976 858.13 653.491 857.405 655.496H851.837C852.52 653.192 853.629 651.272 855.165 649.736C856.744 648.157 858.578 646.963 860.669 646.152C862.76 645.299 864.957 644.872 867.261 644.872C870.162 644.872 872.509 645.427 874.301 646.536C876.136 647.603 877.373 649.117 878.013 651.08C878.696 653 878.802 655.283 878.333 657.928L874.877 677.896H870.013L870.717 672.2C870.12 673.096 869.416 673.949 868.605 674.76C867.837 675.528 866.962 676.211 865.981 676.808C865 677.405 863.912 677.853 862.717 678.152C861.522 678.493 860.2 678.664 858.749 678.664ZM860.349 674.12C861.842 674.12 863.272 673.821 864.637 673.224C866.045 672.584 867.282 671.731 868.349 670.664C869.458 669.597 870.333 668.403 870.973 667.08C871.656 665.757 872.018 664.371 872.061 662.92L872.125 662.664H864.061C862.056 662.664 860.328 662.941 858.877 663.496C857.469 664.008 856.381 664.755 855.613 665.736C854.888 666.675 854.482 667.805 854.397 669.128C854.312 670.664 854.781 671.88 855.805 672.776C856.829 673.672 858.344 674.12 860.349 674.12Z"
     fill="white"
     id="path53" />
  <path
     d="M912.124 678.664C909.735 678.664 907.772 678.259 906.236 677.448C904.743 676.595 903.655 675.485 902.972 674.12C902.289 672.712 901.991 671.219 902.076 669.64C902.161 667.336 902.865 665.352 904.188 663.688C905.511 662.024 907.345 660.744 909.692 659.848C912.039 658.952 914.727 658.504 917.756 658.504H926.268C926.609 656.456 926.588 654.771 926.204 653.448C925.863 652.083 925.159 651.08 924.092 650.44C923.025 649.757 921.639 649.416 919.932 649.416C917.884 649.416 916.028 649.928 914.364 650.952C912.7 651.976 911.505 653.491 910.78 655.496H905.212C905.895 653.192 907.004 651.272 908.54 649.736C910.119 648.157 911.953 646.963 914.044 646.152C916.135 645.299 918.332 644.872 920.636 644.872C923.537 644.872 925.884 645.427 927.676 646.536C929.511 647.603 930.748 649.117 931.388 651.08C932.071 653 932.177 655.283 931.708 657.928L928.252 677.896H923.388L924.092 672.2C923.495 673.096 922.791 673.949 921.98 674.76C921.212 675.528 920.337 676.211 919.356 676.808C918.375 677.405 917.287 677.853 916.092 678.152C914.897 678.493 913.575 678.664 912.124 678.664ZM913.724 674.12C915.217 674.12 916.647 673.821 918.012 673.224C919.42 672.584 920.657 671.731 921.724 670.664C922.833 669.597 923.708 668.403 924.348 667.08C925.031 665.757 925.393 664.371 925.436 662.92L925.5 662.664H917.436C915.431 662.664 913.703 662.941 912.252 663.496C910.844 664.008 909.756 664.755 908.988 665.736C908.263 666.675 907.857 667.805 907.772 669.128C907.687 670.664 908.156 671.88 909.18 672.776C910.204 673.672 911.719 674.12 913.724 674.12Z"
     fill="white"
     id="path54" />
  <path
     d="M937.197 677.896L942.829 645.64H947.693L947.053 651.272C948.418 649.267 950.146 647.709 952.237 646.6C954.327 645.448 956.589 644.872 959.021 644.872C961.666 644.872 963.799 645.448 965.421 646.6C967.085 647.709 968.215 649.288 968.813 651.336C969.41 653.384 969.453 655.816 968.941 658.632L965.549 677.896H960.173L963.437 659.208C963.991 656.093 963.735 653.704 962.669 652.04C961.602 650.333 959.725 649.48 957.037 649.48C955.287 649.48 953.623 649.907 952.045 650.76C950.509 651.613 949.186 652.829 948.077 654.408C946.967 655.987 946.157 657.928 945.645 660.232L942.573 677.896H937.197Z"
     fill="white"
     id="path55" />
  <path
     d="M988.027 678.664C985.253 678.664 982.885 678.003 980.923 676.68C978.96 675.357 977.488 673.565 976.507 671.304C975.525 669 975.12 666.483 975.291 663.752C975.419 660.979 975.952 658.461 976.891 656.2C977.872 653.896 979.173 651.912 980.795 650.248C982.459 648.541 984.357 647.219 986.491 646.28C988.667 645.341 990.971 644.872 993.403 644.872C996.176 644.872 998.437 645.427 1000.19 646.536C1001.98 647.645 1003.3 649.117 1004.15 650.952L1007.55 631.816H1012.92L1004.79 677.896H999.867L1000.31 672.584C999.504 673.651 998.501 674.653 997.307 675.592C996.155 676.488 994.811 677.235 993.275 677.832C991.739 678.387 989.989 678.664 988.027 678.664ZM989.563 673.992C991.952 673.992 994.064 673.373 995.899 672.136C997.776 670.856 999.269 669.149 1000.38 667.016C1001.49 664.84 1002.11 662.408 1002.23 659.72C1002.36 657.672 1002.09 655.901 1001.4 654.408C1000.76 652.872 999.76 651.677 998.395 650.824C997.072 649.971 995.451 649.544 993.531 649.544C991.227 649.544 989.136 650.141 987.259 651.336C985.381 652.488 983.867 654.109 982.715 656.2C981.605 658.291 980.987 660.68 980.859 663.368C980.731 665.416 981.008 667.251 981.691 668.872C982.373 670.493 983.376 671.752 984.699 672.648C986.064 673.544 987.685 673.992 989.563 673.992Z"
     fill="white"
     id="path56" />
  <path
     d="M1048.14 678.664C1044.73 678.664 1041.89 678.003 1039.63 676.68C1037.41 675.315 1035.85 673.352 1034.96 670.792C1034.06 668.189 1033.93 665.053 1034.57 661.384L1039.63 633.096H1045.01L1039.95 661.384C1039.48 664.029 1039.5 666.291 1040.01 668.168C1040.57 670.003 1041.59 671.411 1043.09 672.392C1044.58 673.331 1046.56 673.8 1049.04 673.8C1051.3 673.8 1053.33 673.373 1055.12 672.52C1056.95 671.667 1058.49 670.323 1059.73 668.488C1061.01 666.653 1061.9 664.285 1062.41 661.384L1067.47 633.096H1072.85L1067.85 661.384C1067.17 665.352 1065.85 668.616 1063.89 671.176C1061.97 673.693 1059.64 675.571 1056.91 676.808C1054.18 678.045 1051.26 678.664 1048.14 678.664Z"
     fill="white"
     id="path57" />
  <path
     d="M1073.76 677.896L1079.39 645.64H1084.26L1083.62 651.272C1084.98 649.267 1086.71 647.709 1088.8 646.6C1090.89 645.448 1093.15 644.872 1095.58 644.872C1098.23 644.872 1100.36 645.448 1101.98 646.6C1103.65 647.709 1104.78 649.288 1105.38 651.336C1105.97 653.384 1106.02 655.816 1105.5 658.632L1102.11 677.896H1096.74L1100 659.208C1100.55 656.093 1100.3 653.704 1099.23 652.04C1098.16 650.333 1096.29 649.48 1093.6 649.48C1091.85 649.48 1090.19 649.907 1088.61 650.76C1087.07 651.613 1085.75 652.829 1084.64 654.408C1083.53 655.987 1082.72 657.928 1082.21 660.232L1079.14 677.896H1073.76Z"
     fill="white"
     id="path58" />
  <path
     d="M1111.02 677.896L1116.72 645.64H1122.09L1116.4 677.896H1111.02ZM1121.26 638.792C1120.19 638.792 1119.32 638.451 1118.64 637.768C1117.95 637.085 1117.59 636.211 1117.55 635.144C1117.55 634.077 1117.89 633.203 1118.57 632.52C1119.3 631.837 1120.19 631.496 1121.26 631.496C1122.29 631.496 1123.16 631.837 1123.89 632.52C1124.61 633.16 1124.97 634.035 1124.97 635.144C1125.02 636.211 1124.65 637.085 1123.89 637.768C1123.16 638.451 1122.29 638.792 1121.26 638.792Z"
     fill="white"
     id="path59" />
  <path
     d="M1135.61 677.896L1128.7 645.64H1134.27L1139.64 672.776L1154.55 645.64H1160.19L1141.88 677.896H1135.61Z"
     fill="white"
     id="path60" />
  <path
     d="M1173.53 678.664C1170.84 678.664 1168.49 678.067 1166.49 676.872C1164.52 675.677 1163.03 673.992 1162.01 671.816C1161.03 669.64 1160.6 667.101 1160.73 664.2C1160.85 661.427 1161.41 658.888 1162.39 656.584C1163.37 654.237 1164.69 652.189 1166.36 650.44C1168.07 648.691 1170.03 647.325 1172.25 646.344C1174.47 645.363 1176.88 644.872 1179.48 644.872C1182.38 644.872 1184.77 645.469 1186.65 646.664C1188.57 647.859 1189.97 649.459 1190.87 651.464C1191.77 653.427 1192.15 655.603 1192.02 657.992C1191.98 658.717 1191.87 659.549 1191.7 660.488C1191.57 661.384 1191.43 662.216 1191.25 662.984H1164.89L1165.59 658.824H1186.71C1187.01 656.819 1186.84 655.133 1186.2 653.768C1185.56 652.36 1184.6 651.293 1183.32 650.568C1182.04 649.8 1180.5 649.416 1178.71 649.416C1176.88 649.416 1175.11 649.843 1173.4 650.696C1171.73 651.507 1170.28 652.723 1169.05 654.344C1167.81 655.923 1166.98 657.907 1166.55 660.296L1166.23 662.088C1165.76 664.477 1165.8 666.589 1166.36 668.424C1166.91 670.259 1167.87 671.667 1169.24 672.648C1170.65 673.629 1172.35 674.12 1174.36 674.12C1176.62 674.12 1178.56 673.629 1180.18 672.648C1181.85 671.624 1183.15 670.259 1184.09 668.552H1189.4C1188.5 670.472 1187.29 672.2 1185.75 673.736C1184.26 675.272 1182.47 676.488 1180.37 677.384C1178.33 678.237 1176.04 678.664 1173.53 678.664Z"
     fill="white"
     id="path61" />
  <path
     d="M1195.95 677.896L1201.58 645.64H1206.51L1205.87 651.4C1206.85 650.035 1208 648.883 1209.32 647.944C1210.65 646.963 1212.16 646.216 1213.87 645.704C1215.57 645.149 1217.41 644.872 1219.37 644.872L1218.41 650.504H1216.43C1215.06 650.504 1213.72 650.675 1212.39 651.016C1211.11 651.357 1209.92 651.912 1208.81 652.68C1207.74 653.448 1206.83 654.472 1206.06 655.752C1205.29 656.989 1204.74 658.547 1204.39 660.424L1201.32 677.896H1195.95Z"
     fill="white"
     id="path62" />
  <path
     d="M1231.86 678.664C1229.13 678.664 1226.82 678.216 1224.94 677.32C1223.07 676.381 1221.68 675.08 1220.78 673.416C1219.93 671.752 1219.59 669.768 1219.76 667.464H1225.2C1225.16 668.659 1225.37 669.768 1225.84 670.792C1226.31 671.773 1227.1 672.584 1228.21 673.224C1229.32 673.821 1230.79 674.12 1232.62 674.12C1234.16 674.12 1235.48 673.885 1236.59 673.416C1237.7 672.947 1238.56 672.307 1239.15 671.496C1239.79 670.685 1240.16 669.683 1240.24 668.488C1240.28 667.421 1240.03 666.589 1239.47 665.992C1238.96 665.352 1238.17 664.84 1237.1 664.456C1236.04 664.072 1234.76 663.752 1233.26 663.496C1231.94 663.24 1230.66 662.899 1229.42 662.472C1228.23 662.045 1227.16 661.512 1226.22 660.872C1225.29 660.189 1224.56 659.357 1224.05 658.376C1223.54 657.352 1223.32 656.157 1223.41 654.792C1223.49 652.915 1224.09 651.229 1225.2 649.736C1226.35 648.243 1227.89 647.069 1229.81 646.216C1231.77 645.32 1233.99 644.872 1236.46 644.872C1239.92 644.872 1242.63 645.725 1244.59 647.432C1246.6 649.096 1247.52 651.485 1247.34 654.6H1241.97C1242.05 652.979 1241.56 651.72 1240.5 650.824C1239.43 649.885 1237.87 649.416 1235.82 649.416C1233.82 649.416 1232.18 649.864 1230.9 650.76C1229.66 651.656 1229.02 652.765 1228.98 654.088C1228.93 654.984 1229.15 655.752 1229.62 656.392C1230.13 656.989 1230.9 657.501 1231.92 657.928C1232.94 658.312 1234.22 658.653 1235.76 658.952C1237.21 659.251 1238.56 659.613 1239.79 660.04C1241.03 660.467 1242.12 661.021 1243.06 661.704C1244 662.344 1244.7 663.176 1245.17 664.2C1245.68 665.181 1245.89 666.397 1245.81 667.848C1245.72 670.067 1245.06 671.987 1243.82 673.608C1242.63 675.229 1240.99 676.488 1238.9 677.384C1236.85 678.237 1234.5 678.664 1231.86 678.664Z"
     fill="white"
     id="path63" />
  <path
     d="M1262.25 678.664C1259.86 678.664 1257.9 678.259 1256.36 677.448C1254.87 676.595 1253.78 675.485 1253.1 674.12C1252.41 672.712 1252.12 671.219 1252.2 669.64C1252.29 667.336 1252.99 665.352 1254.31 663.688C1255.64 662.024 1257.47 660.744 1259.82 659.848C1262.16 658.952 1264.85 658.504 1267.88 658.504H1276.39C1276.73 656.456 1276.71 654.771 1276.33 653.448C1275.99 652.083 1275.28 651.08 1274.22 650.44C1273.15 649.757 1271.76 649.416 1270.06 649.416C1268.01 649.416 1266.15 649.928 1264.49 650.952C1262.83 651.976 1261.63 653.491 1260.91 655.496H1255.34C1256.02 653.192 1257.13 651.272 1258.67 649.736C1260.24 648.157 1262.08 646.963 1264.17 646.152C1266.26 645.299 1268.46 644.872 1270.76 644.872C1273.66 644.872 1276.01 645.427 1277.8 646.536C1279.64 647.603 1280.87 649.117 1281.51 651.08C1282.2 653 1282.3 655.283 1281.83 657.928L1278.38 677.896H1273.51L1274.22 672.2C1273.62 673.096 1272.92 673.949 1272.11 674.76C1271.34 675.528 1270.46 676.211 1269.48 676.808C1268.5 677.405 1267.41 677.853 1266.22 678.152C1265.02 678.493 1263.7 678.664 1262.25 678.664ZM1263.85 674.12C1265.34 674.12 1266.77 673.821 1268.14 673.224C1269.55 672.584 1270.78 671.731 1271.85 670.664C1272.96 669.597 1273.83 668.403 1274.47 667.08C1275.16 665.757 1275.52 664.371 1275.56 662.92L1275.63 662.664H1267.56C1265.56 662.664 1263.83 662.941 1262.38 663.496C1260.97 664.008 1259.88 664.755 1259.11 665.736C1258.39 666.675 1257.98 667.805 1257.9 669.128C1257.81 670.664 1258.28 671.88 1259.31 672.776C1260.33 673.672 1261.84 674.12 1263.85 674.12Z"
     fill="white"
     id="path64" />
  <path
     d="M1287.26 677.896L1295.45 631.816H1300.83L1292.63 677.896H1287.26Z"
     fill="white"
     id="path65" />
  <path
     d="M1320.02 677.896L1327.89 633.096H1343.7C1346.56 633.096 1348.88 633.544 1350.67 634.44C1352.51 635.293 1353.85 636.488 1354.7 638.024C1355.56 639.517 1355.92 641.203 1355.79 643.08C1355.71 645.427 1355.09 647.475 1353.94 649.224C1352.83 650.973 1351.33 652.36 1349.46 653.384C1347.62 654.408 1345.57 655.027 1343.31 655.24L1344.27 654.6C1346.02 654.643 1347.58 655.091 1348.94 655.944C1350.31 656.755 1351.36 657.885 1352.08 659.336C1352.85 660.744 1353.17 662.365 1353.04 664.2C1352.96 666.888 1352.17 669.256 1350.67 671.304C1349.18 673.352 1347.17 674.973 1344.66 676.168C1342.18 677.32 1339.39 677.896 1336.27 677.896H1320.02ZM1326.16 673.48H1336.46C1338.68 673.48 1340.6 673.096 1342.22 672.328C1343.89 671.56 1345.19 670.472 1346.13 669.064C1347.11 667.613 1347.64 665.949 1347.73 664.072C1347.86 661.896 1347.15 660.168 1345.62 658.888C1344.12 657.608 1341.99 656.968 1339.22 656.968H1329.04L1326.16 673.48ZM1329.87 652.744H1339.79C1342.86 652.744 1345.34 651.955 1347.22 650.376C1349.09 648.755 1350.08 646.6 1350.16 643.912C1350.25 642.589 1350.01 641.437 1349.46 640.456C1348.9 639.475 1348.03 638.728 1346.83 638.216C1345.68 637.704 1344.17 637.448 1342.29 637.448H1332.5L1329.87 652.744Z"
     fill="white"
     id="path66" />
  <path
     d="M1358.26 677.896L1366.45 631.816H1371.83L1363.63 677.896H1358.26Z"
     fill="white"
     id="path67" />
  <path
     d="M1386.01 678.664C1381.57 678.664 1378.33 677.469 1376.28 675.08C1374.23 672.648 1373.64 669 1374.49 664.136L1377.75 645.64H1383.13L1379.93 663.752C1379.5 666.013 1379.44 667.912 1379.74 669.448C1380.04 670.984 1380.76 672.136 1381.91 672.904C1383.07 673.672 1384.71 674.056 1386.84 674.056C1388.8 674.056 1390.49 673.672 1391.9 672.904C1393.31 672.136 1394.46 670.984 1395.35 669.448C1396.29 667.912 1396.95 666.013 1397.34 663.752L1400.54 645.64H1405.91L1402.65 664.136C1401.8 669 1399.92 672.648 1397.02 675.08C1394.16 677.469 1390.49 678.664 1386.01 678.664Z"
     fill="white"
     id="path68" />
  <path
     d="M1422.65 678.664C1419.96 678.664 1417.62 678.067 1415.61 676.872C1413.65 675.677 1412.16 673.992 1411.13 671.816C1410.15 669.64 1409.72 667.101 1409.85 664.2C1409.98 661.427 1410.53 658.888 1411.52 656.584C1412.5 654.237 1413.82 652.189 1415.48 650.44C1417.19 648.691 1419.15 647.325 1421.37 646.344C1423.59 645.363 1426 644.872 1428.6 644.872C1431.5 644.872 1433.89 645.469 1435.77 646.664C1437.69 647.859 1439.1 649.459 1440 651.464C1440.89 653.427 1441.28 655.603 1441.15 657.992C1441.1 658.717 1441 659.549 1440.83 660.488C1440.7 661.384 1440.55 662.216 1440.38 662.984H1414.01L1414.72 658.824H1435.84C1436.13 656.819 1435.96 655.133 1435.32 653.768C1434.68 652.36 1433.72 651.293 1432.44 650.568C1431.16 649.8 1429.63 649.416 1427.84 649.416C1426 649.416 1424.23 649.843 1422.52 650.696C1420.86 651.507 1419.41 652.723 1418.17 654.344C1416.93 655.923 1416.1 657.907 1415.68 660.296L1415.36 662.088C1414.89 664.477 1414.93 666.589 1415.48 668.424C1416.04 670.259 1417 671.667 1418.36 672.648C1419.77 673.629 1421.48 674.12 1423.48 674.12C1425.74 674.12 1427.69 673.629 1429.31 672.648C1430.97 671.624 1432.27 670.259 1433.21 668.552H1438.52C1437.63 670.472 1436.41 672.2 1434.88 673.736C1433.38 675.272 1431.59 676.488 1429.5 677.384C1427.45 678.237 1425.17 678.664 1422.65 678.664Z"
     fill="white"
     id="path69" />
  <path
     d="M1447.57 678.216C1446.5 678.216 1445.6 677.875 1444.88 677.192C1444.2 676.467 1443.86 675.592 1443.86 674.568C1443.86 673.544 1444.2 672.691 1444.88 672.008C1445.6 671.283 1446.5 670.92 1447.57 670.92C1448.63 670.92 1449.51 671.283 1450.19 672.008C1450.87 672.691 1451.22 673.544 1451.22 674.568C1451.22 675.592 1450.87 676.467 1450.19 677.192C1449.51 677.875 1448.63 678.216 1447.57 678.216Z"
     fill="white"
     id="path70" />
  <defs
     id="defs75">
    <linearGradient
       id="paint0_linear_1019_206"
       x1="0"
       y1="0"
       x2="408"
       y2="408"
       gradientUnits="userSpaceOnUse">
      <stop
         offset="0.0684898"
         stop-color="#0047AB"
         id="stop70" />
      <stop
         offset="0.741212"
         stop-color="#8A2BE2"
         id="stop71" />
    </linearGradient>
    <linearGradient
       id="paint1_linear_1019_206"
       x1="1359.63"
       y1="61.55"
       x2="1359.63"
       y2="118.53"
       gradientUnits="userSpaceOnUse">
      <stop
         stop-color="#59CAFD"
         id="stop72" />
      <stop
         offset="1"
         stop-color="#2B50EF"
         id="stop73" />
    </linearGradient>
    <linearGradient
       id="paint2_linear_1019_206"
       x1="142.629"
       y1="606.495"
       x2="1621.07"
       y2="711.545"
       gradientUnits="userSpaceOnUse">
      <stop
         stop-color="#0546AD"
         id="stop74" />
      <stop
         offset="1"
         stop-color="#8A2BE2"
         id="stop75" />
    </linearGradient>
    <clipPath
       id="clip0_1019_206">
      <rect
         width="1763.67"
         height="408"
         fill="white"
         id="rect75" />
    </clipPath>
  </defs>
</svg>
