<?xml version="1.0" encoding="UTF-8" standalone="no"?>
<svg
   width="380"
   height="380"
   viewBox="0 0 380 380"
   fill="none"
   version="1.1"
   id="svg11"
   sodipodi:docname="discourse.svg"
   inkscape:version="1.3.2 (091e20ef0f, 2023-11-25)"
   xmlns:inkscape="http://www.inkscape.org/namespaces/inkscape"
   xmlns:sodipodi="http://sodipodi.sourceforge.net/DTD/sodipodi-0.dtd"
   xmlns="http://www.w3.org/2000/svg"
   xmlns:svg="http://www.w3.org/2000/svg">
  <sodipodi:namedview
     id="namedview11"
     pagecolor="#ffffff"
     bordercolor="#000000"
     borderopacity="0.25"
     inkscape:showpageshadow="2"
     inkscape:pageopacity="0.0"
     inkscape:pagecheckerboard="0"
     inkscape:deskcolor="#d1d1d1"
     inkscape:zoom="1.9847973"
     inkscape:cx="76.582128"
     inkscape:cy="185.15745"
     inkscape:window-width="3440"
     inkscape:window-height="1374"
     inkscape:window-x="0"
     inkscape:window-y="0"
     inkscape:window-maximized="1"
     inkscape:current-layer="svg11" />
  <path
     d="M 160,338 H 336 V 72 C 336,55.4315 322.569,42 306,42 H 70 C 53.4315,42 40,55.4315 40,72 v 146 c 0,66.274 53.7258,120 120,120 z"
     fill="url(#paint0_linear_1268_533)"
     id="path1"
     style="fill:url(#paint0_linear_1268_533);filter:url(#filter17)" />
  <defs
     id="defs11">
    <filter
       id="filter0_b_1268_533"
       x="15.7"
       y="15.7"
       width="263.60001"
       height="263.60001"
       filterUnits="userSpaceOnUse"
       color-interpolation-filters="sRGB">
      <feFlood
         flood-opacity="0"
         result="BackgroundImageFix"
         id="feFlood6" />
      <feGaussianBlur
         in="BackgroundImageFix"
         stdDeviation="19.65"
         id="feGaussianBlur6" />
      <feComposite
         in2="SourceAlpha"
         operator="in"
         result="effect1_backgroundBlur_1268_533"
         id="feComposite6" />
      <feBlend
         mode="normal"
         in="SourceGraphic"
         in2="effect1_backgroundBlur_1268_533"
         result="shape"
         id="feBlend6" />
    </filter>
    <filter
       id="filter1_b_1268_533"
       x="200"
       y="15"
       width="90"
       height="265"
       filterUnits="userSpaceOnUse"
       color-interpolation-filters="sRGB">
      <feFlood
         flood-opacity="0"
         result="BackgroundImageFix"
         id="feFlood7" />
      <feGaussianBlur
         in="BackgroundImageFix"
         stdDeviation="20"
         id="feGaussianBlur7" />
      <feComposite
         in2="SourceAlpha"
         operator="in"
         result="effect1_backgroundBlur_1268_533"
         id="feComposite7" />
      <feBlend
         mode="normal"
         in="SourceGraphic"
         in2="effect1_backgroundBlur_1268_533"
         result="shape"
         id="feBlend7" />
    </filter>
    <filter
       id="filter2_b_1268_533"
       x="210"
       y="15"
       width="90"
       height="265"
       filterUnits="userSpaceOnUse"
       color-interpolation-filters="sRGB">
      <feFlood
         flood-opacity="0"
         result="BackgroundImageFix"
         id="feFlood8" />
      <feGaussianBlur
         in="BackgroundImageFix"
         stdDeviation="20"
         id="feGaussianBlur8" />
      <feComposite
         in2="SourceAlpha"
         operator="in"
         result="effect1_backgroundBlur_1268_533"
         id="feComposite8" />
      <feBlend
         mode="normal"
         in="SourceGraphic"
         in2="effect1_backgroundBlur_1268_533"
         result="shape"
         id="feBlend8" />
    </filter>
    <filter
       id="filter3_b_1268_533"
       x="67.000198"
       y="15"
       width="213"
       height="265"
       filterUnits="userSpaceOnUse"
       color-interpolation-filters="sRGB">
      <feFlood
         flood-opacity="0"
         result="BackgroundImageFix"
         id="feFlood9" />
      <feGaussianBlur
         in="BackgroundImageFix"
         stdDeviation="20"
         id="feGaussianBlur9" />
      <feComposite
         in2="SourceAlpha"
         operator="in"
         result="effect1_backgroundBlur_1268_533"
         id="feComposite9" />
      <feBlend
         mode="normal"
         in="SourceGraphic"
         in2="effect1_backgroundBlur_1268_533"
         result="shape"
         id="feBlend9" />
    </filter>
    <filter
       id="filter4_b_1268_533"
       x="41.000198"
       y="15"
       width="239"
       height="265"
       filterUnits="userSpaceOnUse"
       color-interpolation-filters="sRGB">
      <feFlood
         flood-opacity="0"
         result="BackgroundImageFix"
         id="feFlood10" />
      <feGaussianBlur
         in="BackgroundImageFix"
         stdDeviation="20"
         id="feGaussianBlur10" />
      <feComposite
         in2="SourceAlpha"
         operator="in"
         result="effect1_backgroundBlur_1268_533"
         id="feComposite10" />
      <feBlend
         mode="normal"
         in="SourceGraphic"
         in2="effect1_backgroundBlur_1268_533"
         result="shape"
         id="feBlend10" />
    </filter>
    <linearGradient
       id="paint0_linear_1268_533"
       x1="279"
       y1="296"
       x2="-39.5205"
       y2="51.480999"
       gradientUnits="userSpaceOnUse"
       gradientTransform="translate(40,42)">
      <stop
         offset="0.18594"
         stop-color="#3550EC"
         id="stop10" />
      <stop
         offset="0.795405"
         stop-color="#252B4B"
         id="stop11" />
    </linearGradient>
    <filter
       style="color-interpolation-filters:sRGB;"
       inkscape:label="Drop Shadow"
       id="filter17"
       x="0"
       y="0"
       width="1"
       height="1.0371622">
      <feFlood
         result="flood"
         in="SourceGraphic"
         flood-opacity="0.286275"
         flood-color="rgb(0,0,0)"
         id="feFlood16" />
      <feGaussianBlur
         result="blur"
         in="SourceGraphic"
         stdDeviation="0.000000"
         id="feGaussianBlur16" />
      <feOffset
         result="offset"
         in="blur"
         dx="0.000000"
         dy="6.000000"
         id="feOffset16" />
      <feComposite
         result="comp1"
         operator="in"
         in="flood"
         in2="offset"
         id="feComposite16" />
      <feComposite
         result="fbSourceGraphic"
         operator="over"
         in="SourceGraphic"
         in2="comp1"
         id="feComposite17" />
      <feColorMatrix
         result="fbSourceGraphicAlpha"
         in="fbSourceGraphic"
         values="0 0 0 -1 0 0 0 0 -1 0 0 0 0 -1 0 0 0 0 1 0"
         id="feColorMatrix4" />
      <feFlood
         id="feFlood4"
         result="flood"
         in="fbSourceGraphic"
         flood-opacity="0.286275"
         flood-color="rgb(255,255,255)" />
      <feGaussianBlur
         id="feGaussianBlur4"
         result="blur"
         in="fbSourceGraphic"
         stdDeviation="0.000000" />
      <feOffset
         id="feOffset4"
         result="offset"
         in="blur"
         dx="0.000000"
         dy="5.000000" />
      <feComposite
         id="feComposite4"
         result="comp1"
         operator="out"
         in="flood"
         in2="offset" />
      <feComposite
         id="feComposite5"
         result="comp2"
         operator="atop"
         in="comp1"
         in2="fbSourceGraphic" />
    </filter>
    <filter
       style="color-interpolation-filters:sRGB;"
       inkscape:label="Drop Shadow"
       id="filter23"
       x="0"
       y="0"
       width="1.0166016"
       height="1.016276">
      <feFlood
         result="flood"
         in="SourceGraphic"
         flood-opacity="0.286275"
         flood-color="rgb(255,255,255)"
         id="feFlood22" />
      <feGaussianBlur
         result="blur"
         in="SourceGraphic"
         stdDeviation="0.000000"
         id="feGaussianBlur22" />
      <feOffset
         result="offset"
         in="blur"
         dx="2.000000"
         dy="2.000000"
         id="feOffset22" />
      <feComposite
         result="comp1"
         operator="in"
         in="flood"
         in2="offset"
         id="feComposite22" />
      <feComposite
         result="comp2"
         operator="over"
         in="SourceGraphic"
         in2="comp1"
         id="feComposite23" />
    </filter>
  </defs>
  <g
     id="g2"
     style="opacity:0.901;fill:#ffffff;filter:url(#filter23)"
     transform="matrix(1.5287105,0,0,1.5287105,96.38942,102.54727)">
    <path
       class="st0"
       d="m 17.2,0 h 62.29 c 4.73,0 9.03,1.93 12.15,5.05 3.12,3.12 5.05,7.42 5.05,12.15 v 38.35 c 0,4.73 -1.93,9.03 -5.05,12.15 -3.12,3.12 -7.42,5.05 -12.15,5.05 H 46.92 L 20.81,95.2 c -1.21,1.04 -3.04,0.9 -4.08,-0.32 -0.51,-0.6 -0.74,-1.34 -0.69,-2.07 L 17.43,72.74 H 17.2 C 12.47,72.74 8.17,70.81 5.05,67.69 1.93,64.58 0,60.28 0,55.55 V 17.2 C 0,12.47 1.93,8.17 5.05,5.05 8.16,1.93 12.46,0 17.2,0 Z m 45.92,29.37 c 4.48,0 8.11,3.63 8.11,8.11 0,4.48 -3.63,8.11 -8.11,8.11 -4.48,0 -8.11,-3.63 -8.11,-8.11 0,-4.48 3.63,-8.11 8.11,-8.11 z m -29.43,0 c 4.48,0 8.11,3.63 8.11,8.11 0,4.48 -3.63,8.11 -8.11,8.11 -4.48,0 -8.11,-3.63 -8.11,-8.11 0,-4.48 3.63,-8.11 8.11,-8.11 z m 73.1,-1.39 c 3.37,0.65 6.39,2.31 8.73,4.65 3.05,3.05 4.95,7.26 4.95,11.9 v 38.35 c 0,4.64 -1.89,8.85 -4.95,11.9 -3.05,3.05 -7.26,4.95 -11.9,4.95 h -0.61 l 1.42,20.44 v 0 c 0.04,0.64 -0.15,1.3 -0.6,1.82 -0.91,1.07 -2.52,1.19 -3.58,0.28 L 74.04,99.07 H 39.49 L 56.5,81.77 h 36.04 c 7.86,0 14.3,-6.43 14.3,-14.3 V 29.11 c -0.01,-0.38 -0.02,-0.76 -0.05,-1.13 z M 79.48,5.8 H 17.2 C 14.07,5.8 11.22,7.08 9.15,9.15 7.08,11.22 5.8,14.06 5.8,17.2 v 38.35 c 0,3.13 1.28,5.98 3.35,8.05 2.07,2.07 4.92,3.35 8.05,3.35 h 3.34 v 0.01 l 0.19,0.01 c 1.59,0.11 2.8,1.49 2.69,3.08 L 22.29,86.31 43.83,67.79 c 0.52,-0.52 1.24,-0.84 2.04,-0.84 h 33.61 c 3.13,0 5.98,-1.28 8.05,-3.35 2.07,-2.07 3.35,-4.92 3.35,-8.05 V 17.2 C 90.88,14.07 89.6,11.22 87.53,9.15 85.46,7.08 82.61,5.8 79.48,5.8 Z"
       id="path1-6"
       style="clip-rule:evenodd;fill:#ffffff;fill-rule:evenodd" />
  </g>
</svg>
