<?xml version="1.0" encoding="UTF-8" standalone="no"?>
<svg
   width="24"
   height="24"
   version="1"
   id="svg7"
   sodipodi:docname="documentation.svg"
   inkscape:version="1.3.2 (091e20ef0f, 2023-11-25)"
   xmlns:inkscape="http://www.inkscape.org/namespaces/inkscape"
   xmlns:sodipodi="http://sodipodi.sourceforge.net/DTD/sodipodi-0.dtd"
   xmlns:xlink="http://www.w3.org/1999/xlink"
   xmlns="http://www.w3.org/2000/svg"
   xmlns:svg="http://www.w3.org/2000/svg">
  <defs
     id="defs1">
    <linearGradient
       id="linearGradient3"
       inkscape:collect="always">
      <stop
         style="stop-color:#0047ab;stop-opacity:1;"
         offset="0"
         id="stop3" />
      <stop
         style="stop-color:#8a2be2;stop-opacity:1;"
         offset="1"
         id="stop4" />
    </linearGradient>
    <linearGradient
       id="linearGradient1"
       inkscape:collect="always">
      <stop
         style="stop-color:#8a2be2;stop-opacity:1;"
         offset="0"
         id="stop1" />
      <stop
         style="stop-color:#0047ab;stop-opacity:1;"
         offset="1"
         id="stop2" />
    </linearGradient>
    <linearGradient
       inkscape:collect="always"
       xlink:href="#linearGradient1"
       id="linearGradient2"
       x1="22.807846"
       y1="25.008402"
       x2="-39.347679"
       y2="-44.29372"
       gradientUnits="userSpaceOnUse" />
    <linearGradient
       inkscape:collect="always"
       xlink:href="#linearGradient3"
       id="linearGradient4"
       x1="-7.3583031"
       y1="24.616745"
       x2="34.335659"
       y2="-10.171739"
       gradientUnits="userSpaceOnUse" />
  </defs>
  <sodipodi:namedview
     id="namedview1"
     pagecolor="#ffffff"
     bordercolor="#000000"
     borderopacity="0.25"
     inkscape:showpageshadow="2"
     inkscape:pageopacity="0.0"
     inkscape:pagecheckerboard="0"
     inkscape:deskcolor="#d1d1d1"
     inkscape:zoom="24.479167"
     inkscape:cx="2.2059574"
     inkscape:cy="13.62383"
     inkscape:window-width="3440"
     inkscape:window-height="1374"
     inkscape:window-x="0"
     inkscape:window-y="0"
     inkscape:window-maximized="1"
     inkscape:current-layer="svg7" />
  <path
     style="opacity:0.2"
     d="m 5,2.5 c -0.554,0 -1,0.446 -1,1 v 18 c 0,0.554 0.446,1 1,1 h 14 c 0.554,0 1,-0.446 1,-1 V 8.5 L 14.5,8 14,2.5 Z"
     id="path1" />
  <path
     fill="#c03630"
     d="m5 2c-0.554 0-1 0.446-1 1v18c0 0.554 0.446 1 1 1h14c0.554 0 1-0.446 1-1v-13l-5.5-0.5-0.5-5.5z"
     id="path2"
     style="fill:url(#linearGradient2);fill-opacity:1" />
  <path
     fill="#fff"
     style="opacity:0.2"
     d="m5 2c-0.554 0-1 0.446-1 1v0.5c0-0.554 0.446-1 1-1h9l5.5 5.5h0.5l-6-6z"
     id="path3" />
  <path
     style="opacity:0.2"
     d="m 14,2.5 v 5 c 0,0.5523 0.44772,1 1,1 h 5 z"
     id="path4" />
  <path
     fill="#f36961"
     d="m14 2v5c0 0.5523 0.44772 1 1 1h5l-6-6z"
     id="path5"
     style="fill:url(#linearGradient4);fill-opacity:1;opacity:1" />
  <g
     id="g1"
     transform="translate(0.44180605)"
     sodipodi:insensitive="true"
     style="opacity:0.9;mix-blend-mode:lighten;image-rendering:auto">
    <path
       fill-rule="evenodd"
       clip-rule="evenodd"
       d="m 8.9241554,9.8288292 c -0.9698425,0 -1.7560542,0.7862118 -1.7560542,1.7560538 v 1.615573 1.018511 c 0,2.424604 1.9655353,4.390139 4.3901388,4.390139 2.424603,0 4.390138,-1.965535 4.390138,-4.390139 0,-2.424603 -1.965535,-4.3901378 -4.390138,-4.3901378 h -1.018512 v 2.2477498 h 2.356363 c 0.987447,0 1.787926,0.80048 1.787926,1.787929 0,1.922072 -1.558147,3.480237 -3.480236,3.480237 -0.98745,0 -1.7879293,-0.800479 -1.7879293,-1.787926 V 13.200456 H 7.1681012 V 12.076579 H 9.4158517 V 9.8288292 Z m 1.6155726,5.7279898 v -2.356363 h 2.356363 c 0.366751,0 0.664053,0.297299 0.664053,0.664052 0,1.301376 -1.054988,2.356363 -2.356363,2.356363 -0.366754,0 -0.664053,-0.297302 -0.664053,-0.664052 z"
       fill="#ffffff"
       id="path1-2"
       style="stroke-width:0.0175605" />
    <path
       d="m 9.4158517,10.092238 h -0.263409 v 0.263406 1.457526 H 7.694916 7.4315099 v 0.263409 1.123877 0.263406 H 7.694916 9.1524427 v 1.457527 0.263409 h 0.263409 1.1238763 0.263406 v -0.263409 -1.457527 h 1.457527 0.263409 V 13.200456 12.076579 11.81317 h -0.263409 -1.457527 v -1.457526 -0.263406 h -0.263406 z"
       stroke="#ffffff"
       stroke-width="0.526818"
       id="path2-9"
       style="mix-blend-mode:lighten;stroke-width:0.527;stroke-dasharray:none" />
    <path
       d="m 11.777746,12.562481 c 0.05853,0.03379 0.05853,0.118288 0,0.152073 l -0.368772,0.212905 c -0.05853,0.0338 -0.131703,-0.0085 -0.131703,-0.07604 V 12.42561 c 0,-0.06759 0.07317,-0.109841 0.131703,-0.07604 z"
       fill="#ffffff"
       id="path3-1"
       style="stroke-width:0.0175605" />
    <path
       d="m 10.053826,14.438473 c -0.03378,0.05853 -0.118287,0.05853 -0.1520724,0 L 9.6888492,14.069702 c -0.033806,-0.05853 0.00846,-0.131703 0.076035,-0.131703 h 0.4258088 c 0.06759,0 0.109841,0.07317 0.07604,0.131703 z"
       fill="#ffffff"
       id="path4-2"
       style="stroke-width:0.0175605" />
    <path
       d="m 9.9017536,10.838559 c 0.033785,-0.05853 0.1182874,-0.05853 0.1520724,0 l 0.212905,0.368774 c 0.0338,0.05853 -0.0085,0.131704 -0.07604,0.131704 H 9.7648841 c -0.067589,0 -0.1098412,-0.07317 -0.076035,-0.131704 z"
       fill="#ffffff"
       id="path5-7"
       style="stroke-width:0.0175605" />
    <path
       d="m 8.1778313,12.714554 c -0.058529,-0.03378 -0.058529,-0.118287 0,-0.152073 l 0.3687745,-0.212904 c 0.058529,-0.03381 0.131703,0.0085 0.131703,0.07604 v 0.425809 c 0,0.06759 -0.073174,0.109841 -0.131703,0.07604 z"
       fill="#ffffff"
       id="path6-0"
       style="stroke-width:0.0175605" />
  </g>
</svg>
