<?xml version="1.0" encoding="UTF-8" standalone="no"?>
<!-- Uploaded to: SVG Repo, www.svgrepo.com, Generator: SVG Repo Mixer Tools -->

<svg
   fill="#000000"
   width="800"
   height="800"
   viewBox="-1.7 0 20.4 20.4"
   class="cf-icon-svg"
   version="1.1"
   id="svg1"
   sodipodi:docname="download3.svg"
   xml:space="preserve"
   inkscape:version="1.3.2 (091e20ef0f, 2023-11-25)"
   xmlns:inkscape="http://www.inkscape.org/namespaces/inkscape"
   xmlns:sodipodi="http://sodipodi.sourceforge.net/DTD/sodipodi-0.dtd"
   xmlns:xlink="http://www.w3.org/1999/xlink"
   xmlns="http://www.w3.org/2000/svg"
   xmlns:svg="http://www.w3.org/2000/svg"><sodipodi:namedview
     id="namedview1"
     pagecolor="#ffffff"
     bordercolor="#000000"
     borderopacity="0.25"
     inkscape:showpageshadow="2"
     inkscape:pageopacity="0.0"
     inkscape:pagecheckerboard="0"
     inkscape:deskcolor="#d1d1d1"
     inkscape:zoom="0.734375"
     inkscape:cx="147.06383"
     inkscape:cy="392.85106"
     inkscape:window-width="1457"
     inkscape:window-height="1212"
     inkscape:window-x="26"
     inkscape:window-y="23"
     inkscape:window-maximized="0"
     inkscape:current-layer="svg1" /><defs
     id="defs1"><linearGradient
       id="linearGradient10"><stop
         style="stop-color:#ffffff;stop-opacity:1;"
         offset="0"
         id="stop10" /><stop
         style="stop-color:#f1e3fe;stop-opacity:1;"
         offset="1"
         id="stop11" /></linearGradient><linearGradient
       id="linearGradient6"><stop
         style="stop-color:#294528;stop-opacity:1;"
         offset="0"
         id="stop6" /><stop
         style="stop-color:#000000;stop-opacity:1;"
         offset="1"
         id="stop7" /></linearGradient><linearGradient
       id="linearGradient1"><stop
         style="stop-color:#0047ab;stop-opacity:1;"
         offset="0"
         id="stop1" /><stop
         style="stop-color:#8a2be2;stop-opacity:1;"
         offset="1"
         id="stop2" /></linearGradient><linearGradient
       xlink:href="#linearGradient1"
       id="linearGradient2"
       x1="2.8567808"
       y1="4.882319"
       x2="12.167582"
       y2="13.969824"
       gradientUnits="userSpaceOnUse" /><linearGradient
       xlink:href="#linearGradient6"
       id="linearGradient7"
       x1="1.7610795"
       y1="3.842427"
       x2="15.253079"
       y2="16.473698"
       gradientUnits="userSpaceOnUse" /><linearGradient
       xlink:href="#linearGradient10"
       id="linearGradient11"
       x1="1.7153908"
       y1="10.156913"
       x2="15.387341"
       y2="10.156913"
       gradientUnits="userSpaceOnUse" /><filter
       style="color-interpolation-filters:sRGB;"
       inkscape:label="Drop Shadow"
       id="filter12"
       x="0"
       y="0"
       width="1"
       height="1.0378929"><feFlood
         result="flood"
         in="SourceGraphic"
         flood-opacity="0.286275"
         flood-color="rgb(255,255,255)"
         id="feFlood11" /><feGaussianBlur
         result="blur"
         in="SourceGraphic"
         stdDeviation="0.000000"
         id="feGaussianBlur11" /><feOffset
         result="offset"
         in="blur"
         dx="0.000000"
         dy="0.300000"
         id="feOffset11" /><feComposite
         result="comp1"
         operator="out"
         in="flood"
         in2="offset"
         id="feComposite11" /><feComposite
         result="fbSourceGraphic"
         operator="atop"
         in="comp1"
         in2="SourceGraphic"
         id="feComposite12" /><feColorMatrix
         result="fbSourceGraphicAlpha"
         in="fbSourceGraphic"
         values="0 0 0 -1 0 0 0 0 -1 0 0 0 0 -1 0 0 0 0 1 0"
         id="feColorMatrix12" /><feFlood
         id="feFlood12"
         result="flood"
         in="fbSourceGraphic"
         flood-opacity="0.286275"
         flood-color="rgb(0,0,0)" /><feGaussianBlur
         id="feGaussianBlur12"
         result="blur"
         in="fbSourceGraphic"
         stdDeviation="0.000000" /><feOffset
         id="feOffset12"
         result="offset"
         in="blur"
         dx="0.000000"
         dy="0.300000" /><feComposite
         id="feComposite13"
         result="comp1"
         operator="in"
         in="flood"
         in2="offset" /><feComposite
         id="feComposite14"
         result="comp2"
         operator="over"
         in="fbSourceGraphic"
         in2="comp1" /></filter></defs><ellipse
     style="display:inline;fill:url(#linearGradient11);stroke:url(#linearGradient7);stroke-width:0.0255"
     id="path2"
     ry="6.3601246"
     rx="6.823225"
     cy="10.156913"
     cx="8.5513659"
     mask="none" /><path
     id="path4"
     style="display:inline;fill:url(#linearGradient2);filter:url(#filter12)"
     d="M 8.5 2.3660215 C 5.2977954 2.3656198 2.4106263 4.2942758 1.1849863 7.2525586 C -0.040651012 10.210835 0.63660944 13.616141 2.9007578 15.880573 C 5.1649061 18.145007 8.5700933 18.822706 11.528523 17.59744 C 14.48696 16.372174 16.416006 13.485229 16.416007 10.283024 C 16.416561 5.910758 12.872268 2.3660177 8.5 2.3660215 z M 8.5 4.5703271 C 8.857503 4.5703271 9.1463154 4.8591395 9.1463154 5.2166426 L 9.1463154 10.118719 L 10.626859 8.6361826 C 10.879334 8.3837084 11.289349 8.3837084 11.541821 8.6361826 C 11.794296 8.8886566 11.794296 9.2986708 11.541821 9.5511445 L 8.95646 12.136456 C 8.703986 12.38893 8.293972 12.38893 8.041498 12.136456 L 5.4561865 9.5511445 C 5.2037126 9.2986708 5.2037126 8.8886566 5.4561865 8.6361826 C 5.7086605 8.3837084 6.1186745 8.3837084 6.3711484 8.6361826 L 7.8536846 10.118719 L 7.8536846 5.2166426 C 7.8536846 4.8591395 8.142497 4.5703271 8.5 4.5703271 z M 4.6220078 11.679996 L 6.6720684 11.679996 L 7.5850381 12.594958 C 8.089986 13.099906 8.9080219 13.099906 9.4129697 12.594958 L 10.327932 11.679996 L 12.377992 11.679996 C 13.090979 11.679996 13.670673 12.25969 13.670673 12.972677 L 13.670673 13.618992 C 13.670673 14.331979 13.090979 14.911673 12.377992 14.911673 L 4.6220078 14.911673 C 3.9090215 14.911673 3.3293271 14.331979 3.3293271 13.618992 L 3.3293271 12.972677 C 3.3293271 12.25969 3.9090215 11.679996 4.6220078 11.679996 z M 12.054859 12.81111 A 0.48475075 0.48475075 0 1 0 12.054859 13.780608 A 0.48475075 0.48475075 0 1 0 12.054859 12.81111 z " /></svg>
