<?xml version="1.0" encoding="UTF-8" standalone="no"?>
<svg
   width="90"
   height="22"
   viewBox="0 0 89.999998 22"
   fill="none"
   version="1.1"
   id="svg18"
   sodipodi:docname="fedora_whitelogo.svg"
   inkscape:version="1.3.1 (91b66b0783, 2023-11-16)"
   xmlns:inkscape="http://www.inkscape.org/namespaces/inkscape"
   xmlns:sodipodi="http://sodipodi.sourceforge.net/DTD/sodipodi-0.dtd"
   xmlns="http://www.w3.org/2000/svg"
   xmlns:svg="http://www.w3.org/2000/svg">
  <sodipodi:namedview
     id="namedview1"
     pagecolor="#ffffff"
     bordercolor="#000000"
     borderopacity="0.25"
     inkscape:showpageshadow="2"
     inkscape:pageopacity="0.0"
     inkscape:pagecheckerboard="0"
     inkscape:deskcolor="#d1d1d1"
     inkscape:zoom="6.7873915"
     inkscape:cx="18.269169"
     inkscape:cy="3.3149701"
     inkscape:window-width="3440"
     inkscape:window-height="1374"
     inkscape:window-x="0"
     inkscape:window-y="0"
     inkscape:window-maximized="1"
     inkscape:current-layer="svg18" />
  <g
     id="g1"
     transform="matrix(1.1422913,0,0,1.1422913,2.2867623,1.1188993)">
    <path
       d="M 0,3.4600983 C 0,1.5491572 1.5491572,0 3.4600983,0 h 5.1901474 c 4.7773953,0 8.6502463,3.8728507 8.6502463,8.6502457 0,4.7773953 -3.872851,8.6502463 -8.6502463,8.6502463 C 3.8728507,17.300492 0,13.427641 0,8.6502457 Z"
       fill="url(#paint0_linear_1016_57)"
       id="path1"
       style="fill:url(#paint0_linear_1016_57);stroke-width:0.0424031" />
    <path
       fill-rule="evenodd"
       clip-rule="evenodd"
       d="m 4.4289259,0 h 2.214463 v 4.4289259 h 4.6429351 c 1.945627,0 3.522897,1.5772706 3.522897,3.5228975 0,3.7872386 -3.070159,6.8573976 -6.8573976,6.8573976 -1.9456269,0 -3.5228975,-1.57727 -3.5228975,-3.522897 V 6.6433889 H 0 v -2.214463 h 4.4289259 z m 2.214463,6.6433889 v 4.6429351 c 0,0.722634 0.5857998,1.308434 1.3084345,1.308434 2.5642036,0 4.6429346,-2.078731 4.6429346,-4.6429346 0,-0.7226347 -0.5858,-1.3084345 -1.308434,-1.3084345 z"
       fill="#ffffff"
       fill-opacity="0.5"
       id="path2"
       style="stroke-width:0.0424031" />
    <path
       d="m 6.6433889,2.145261 c 0,-0.6114961 -0.4957355,-1.1072315 -1.1072313,-1.1072315 -0.6114964,0 -1.1072317,0.4957354 -1.1072317,1.1072315 V 4.4289259 H 2.145261 c -0.6114961,0 -1.1072315,0.4957353 -1.1072315,1.1072317 0,0.6114958 0.4957354,1.1072313 1.1072315,1.1072313 h 2.2836649 v 2.283665 c 0,0.6114959 0.4957353,1.1072311 1.1072317,1.1072311 0.6114958,0 1.1072313,-0.4957352 1.1072313,-1.1072311 v -2.283665 h 2.283665 c 0.6114959,0 1.1072311,-0.4957355 1.1072311,-1.1072313 0,-0.6114964 -0.4957352,-1.1072317 -1.1072311,-1.1072317 h -2.283665 z"
       fill="#ffffff"
       fill-opacity="0.7"
       id="path3"
       style="stroke-width:0.0424031" />
    <path
       d="m 9.0242419,5.3525517 c 0.1413297,0.081584 0.1413297,0.2856275 0,0.3672113 L 8.4146539,6.0717091 C 8.2732818,6.1533354 8.0966303,6.0513161 8.0966303,5.8881036 V 5.184211 c 0,-0.1632097 0.1766515,-0.2652317 0.3180236,-0.1836055 z"
       fill="#ffffff"
       id="path4"
       style="stroke-width:0.0424031" />
    <path
       d="m 5.719763,9.0242419 c -0.081584,0.1413297 -0.2856275,0.1413297 -0.3672113,0 L 5.0006055,8.4146539 C 4.9189792,8.2733242 5.0209985,8.0966303 5.184211,8.0966303 h 0.7038926 c 0.1632097,0 0.2652318,0.1766939 0.1836055,0.3180236 z"
       fill="#ffffff"
       id="path5"
       style="stroke-width:0.0424031" />
    <path
       d="m 5.3525517,2.0480729 c 0.081584,-0.1413298 0.2856275,-0.1413298 0.3672113,0 L 6.0717091,2.6576608 C 6.1533354,2.7989906 6.0513161,2.9756845 5.8881036,2.9756845 H 5.184211 c -0.1632097,0 -0.2652317,-0.1766939 -0.1836055,-0.3180237 z"
       fill="#ffffff"
       id="path6"
       style="stroke-width:0.0424031" />
    <path
       d="m 2.0480729,5.719763 c -0.1413722,-0.081584 -0.1413722,-0.2856275 0,-0.3672113 L 2.6576608,5.0006055 c 0.1413298,-0.081626 0.3180237,0.020393 0.3180237,0.1836055 v 0.7038926 c 0,0.1632097 -0.1766939,0.2652318 -0.3180237,0.1836055 z"
       fill="#ffffff"
       id="path7"
       style="stroke-width:0.0424031" />
    <path
       d="m 25.018928,14.706902 c -0.848911,0 -1.599871,-0.179577 -2.25288,-0.538732 -0.653009,-0.359155 -1.164519,-0.870664 -1.534571,-1.534571 -0.359155,-0.674762 -0.538732,-1.46927 -0.538732,-2.383482 V 2.5935897 h 1.8774 v 4.8485898 h 0.01632 C 22.760618,7.1483254 22.989172,6.8925498 23.272127,6.6748941 23.555084,6.4572389 23.870733,6.2885165 24.21899,6.1688127 24.567248,6.0491085 24.9373,5.989235 25.329105,5.989235 c 0.794508,0 1.491023,0.1795777 2.089628,0.5387323 0.60946,0.3482573 1.082892,0.8380139 1.420294,1.4692698 0.348257,0.631256 0.522407,1.3713183 0.522407,2.2202299 0,0.663907 -0.103379,1.273367 -0.310179,1.828425 -0.195903,0.54416 -0.484329,1.01759 -0.865237,1.420293 -0.370052,0.402703 -0.821688,0.712883 -1.354992,0.930537 -0.533306,0.206801 -1.137338,0.31018 -1.8121,0.31018 z m 0,-1.599871 c 0.478859,0 0.903314,-0.114277 1.273367,-0.34283 0.370052,-0.239451 0.658437,-0.565955 0.865236,-0.979513 0.2068,-0.413558 0.31018,-0.89246 0.31018,-1.43662 0,-0.5333038 -0.10338,-1.0067352 -0.31018,-1.4202935 C 26.950732,8.5142163 26.662347,8.1877122 26.292295,7.9482614 25.93314,7.7088105 25.514112,7.5891068 25.035253,7.5891068 c -0.478859,0 -0.903315,0.1197037 -1.273367,0.3591546 -0.370052,0.228553 -0.658436,0.5496297 -0.865236,0.9631878 -0.206801,0.4135583 -0.310179,0.8924596 -0.310179,1.4366188 0,0.54416 0.103378,1.023062 0.310179,1.43662 0.2068,0.413558 0.495184,0.740062 0.865236,0.979513 0.370052,0.228553 0.789038,0.34283 1.257042,0.34283 z"
       fill="#ffffff"
       id="path8"
       style="stroke-width:0.0424031" />
    <path
       d="m 34.026251,14.706902 c -0.794508,0 -1.480168,-0.195902 -2.056978,-0.587708 -0.576852,-0.391806 -1.023061,-0.914212 -1.338667,-1.567221 -0.304752,-0.663906 -0.457107,-1.393071 -0.457107,-2.187579 0,-0.8271586 0.174108,-1.567221 0.522407,-2.2202301 0.359155,-0.6639064 0.865236,-1.186313 1.518245,-1.5672208 0.663864,-0.3918051 1.452945,-0.5877081 2.367157,-0.5877081 0.903315,0 1.6706,0.195903 2.301856,0.5877081 0.642111,0.3809078 1.131868,0.9033144 1.469228,1.5672208 0.34813,0.6530091 0.522407,1.3822161 0.522407,2.1875801 V 14.511 H 36.99744 v -1.550896 h -0.03265 c -0.163252,0.304752 -0.375479,0.593135 -0.636683,0.865236 -0.261204,0.261204 -0.582281,0.473432 -0.963188,0.636683 -0.38095,0.163253 -0.827158,0.244879 -1.338669,0.244879 z m 0.506081,-1.599871 c 0.489757,0 0.914213,-0.119704 1.273367,-0.359155 0.370011,-0.250306 0.653009,-0.58228 0.848911,-0.995839 0.206759,-0.424455 0.31018,-0.897886 0.31018,-1.420293 0,-0.5224078 -0.09795,-0.9849414 -0.293854,-1.3876442 C 36.475033,8.5305415 36.197504,8.2040375 35.83835,7.9645866 35.479195,7.7142808 35.04927,7.5891068 34.548658,7.5891068 c -0.522407,0 -0.968658,0.125174 -1.338668,0.3754798 -0.370053,0.2394509 -0.653008,0.5659549 -0.848912,0.9795132 -0.195902,0.4135583 -0.293853,0.8815617 -0.293853,1.4039682 0,0.51151 0.09795,0.979514 0.293853,1.403969 0.195904,0.413559 0.473432,0.745533 0.832587,0.995839 0.37001,0.239451 0.816261,0.359155 1.338667,0.359155 z"
       fill="#ffffff"
       id="path9"
       style="stroke-width:0.0424031" />
    <path
       d="m 41.986343,14.511 c -0.359155,0 -0.680147,-0.08706 -0.962976,-0.261204 -0.283253,-0.17415 -0.511807,-0.40813 -0.68566,-0.701985 -0.163251,-0.293853 -0.24509,-0.61493 -0.24509,-0.963187 0,-0.348258 0.08735,-0.663906 0.261204,-0.946863 0.174277,-0.282956 0.413855,-0.527835 0.718309,-0.734635 l 3.624199,-2.3671566 c 0.108976,-0.054403 0.174277,-0.1142767 0.195902,-0.1795777 0.03265,-0.065301 0.04918,-0.1306016 0.04918,-0.1959026 0,-0.097951 -0.03816,-0.1850047 -0.114489,-0.2612035 -0.0653,-0.076199 -0.15774,-0.1142762 -0.277317,-0.1142762 H 40.50096 V 6.185138 h 4.603711 c 0.359155,0 0.674634,0.087054 0.946863,0.2612031 0.282829,0.1741498 0.50587,0.4081307 0.669122,0.7019843 0.174277,0.2938541 0.261204,0.6149312 0.261204,0.9631879 0,0.3482574 -0.08693,0.6639066 -0.261204,0.9468627 -0.173853,0.2829568 -0.413431,0.5278351 -0.718309,0.7346349 l -3.607662,2.3671571 c -0.09795,0.0544 -0.168765,0.114276 -0.21244,0.179578 -0.03265,0.0653 -0.04876,0.130601 -0.04876,0.195901 0,0.09795 0.03816,0.185005 0.114064,0.261205 0.07633,0.0762 0.174277,0.114276 0.293854,0.114276 H 46.81861 V 14.511 Z"
       fill="#ffffff"
       id="path10"
       style="stroke-width:0.0424031" />
    <path
       d="m 49.786827,14.511 c -0.359152,0 -0.680143,-0.08706 -0.962972,-0.261204 -0.283255,-0.17415 -0.51181,-0.40813 -0.685662,-0.701985 -0.163253,-0.293853 -0.245089,-0.61493 -0.245089,-0.963187 0,-0.348258 0.08693,-0.663906 0.261203,-0.946863 0.174276,-0.282956 0.41343,-0.527835 0.718307,-0.734635 l 3.624202,-2.3671566 c 0.108973,-0.054403 0.174276,-0.1142767 0.1959,-0.1795777 0.03265,-0.065301 0.04919,-0.1306016 0.04919,-0.1959026 0,-0.097951 -0.03817,-0.1850047 -0.114487,-0.2612035 -0.0653,-0.076199 -0.157738,-0.1142762 -0.277316,-0.1142762 H 48.30145 V 6.185138 h 4.603713 c 0.359156,0 0.674633,0.087054 0.946863,0.2612031 0.28283,0.1741498 0.505871,0.4081307 0.669124,0.7019843 0.174276,0.2938541 0.261202,0.6149312 0.261202,0.9631879 0,0.3482574 -0.08693,0.6639066 -0.261202,0.9468627 -0.174281,0.2829568 -0.413431,0.5278351 -0.718313,0.7346349 l -3.607659,2.3671571 c -0.09796,0.0544 -0.168767,0.114276 -0.212442,0.179578 -0.03265,0.0653 -0.04876,0.130601 -0.04876,0.195901 0,0.09795 0.03774,0.185005 0.114064,0.261205 0.07633,0.0762 0.174276,0.114276 0.293853,0.114276 h 4.277208 V 14.511 Z"
       fill="#ffffff"
       id="path11"
       style="stroke-width:0.0424031" />
    <path
       d="M 56.721865,14.511 V 6.185138 h 1.877614 V 14.511 Z"
       fill="#ffffff"
       id="path12"
       style="stroke-width:0.0424031" />
    <path
       d="m 63.724328,14.511 c -0.739936,0 -1.322134,-0.212228 -1.746589,-0.636684 C 61.563884,13.449861 61.35738,12.873049 61.35738,12.143843 V 4.0955098 h 1.861076 v 7.9667072 c 0,0.250306 0.07591,0.457106 0.228551,0.620358 0.152229,0.152355 0.353643,0.228553 0.603821,0.228553 h 1.747013 V 14.511 Z M 59.92076,7.7850094 V 6.185138 h 5.893194 v 1.5998714 z"
       fill="#ffffff"
       id="path13"
       style="stroke-width:0.0424031" />
    <path
       d="m 71.504034,14.511 c -0.93626,0 -1.758036,-0.174151 -2.46532,-0.522407 -0.696686,-0.359155 -1.240718,-0.848912 -1.632521,-1.46927 -0.391808,-0.631256 -0.587708,-1.354994 -0.587708,-2.171255 0,-0.8598084 0.174277,-1.616196 0.522405,-2.2692047 0.348133,-0.6530091 0.827286,-1.1645184 1.436621,-1.5345707 0.609336,-0.3700524 1.31153,-0.5550576 2.106164,-0.5550576 0.892166,0 1.627012,0.1904751 2.203695,0.5713829 0.576684,0.3809077 1.001139,0.8924594 1.273364,1.5345707 0.282829,0.6421109 0.424459,1.3604204 0.424459,2.1549284 0,0.108849 -0.0055,0.233981 -0.01611,0.37548 -0.01101,0.141499 -0.02755,0.250306 -0.04918,0.326505 h -5.909729 c 0.0653,0.435353 0.223042,0.799935 0.473645,1.09379 0.250178,0.282955 0.565655,0.500654 0.946859,0.653008 0.380784,0.1415 0.805239,0.212228 1.273368,0.212228 H 73.74038 V 14.511 Z M 68.794049,9.6787347 h 4.113955 C 72.896995,9.4719343 72.864348,9.2651764 72.810054,9.058376 72.766398,8.8515762 72.690053,8.6556737 72.581499,8.4706685 72.483549,8.2856632 72.352948,8.1278386 72.189695,7.9972371 72.037042,7.8557378 71.852162,7.7469314 71.634636,7.6707326 71.416683,7.5836788 71.166505,7.540131 70.883675,7.540131 c -0.326504,0 -0.615268,0.065301 -0.865446,0.1959026 -0.25018,0.1197042 -0.462621,0.2829562 -0.636473,0.4897565 -0.174275,0.1959026 -0.310391,0.4244556 -0.408341,0.6856591 -0.08693,0.2503059 -0.146714,0.506082 -0.179366,0.7672855 z"
       fill="#ffffff"
       id="path14"
       style="stroke-width:0.0424031" />
    <path
       d="m 56.803707,4.6668924 c 0.239154,0.2394509 0.522403,0.3591547 0.848909,0.3591547 0.337103,0 0.620358,-0.1197038 0.848914,-0.3591547 0.23915,-0.2394507 0.359151,-0.522407 0.359151,-0.8489114 0,-0.3265044 -0.120001,-0.6094607 -0.359151,-0.8489113 -0.228556,-0.2394508 -0.511811,-0.3591549 -0.848914,-0.3591549 -0.326506,0 -0.609755,0.1197041 -0.848909,0.3591549 -0.23958,0.2394506 -0.359158,0.5224069 -0.359158,0.8489113 0,0.3265044 0.119578,0.6094607 0.359158,0.8489114 z"
       fill="url(#paint1_linear_1016_57)"
       id="path15"
       style="fill:url(#paint1_linear_1016_57);stroke-width:0.0424031" />
  </g>
  <defs
     id="defs18">
    <linearGradient
       id="paint0_linear_1016_57"
       x1="100"
       y1="100"
       x2="508"
       y2="508"
       gradientUnits="userSpaceOnUse"
       gradientTransform="matrix(0.04240317,0,0,0.04240317,-4.2403167,-4.2403167)">
      <stop
         offset="0.0684898"
         stop-color="#0047AB"
         id="stop15" />
      <stop
         offset="0.741212"
         stop-color="#8A2BE2"
         id="stop16" />
    </linearGradient>
    <linearGradient
       id="paint1_linear_1016_57"
       x1="1459.63"
       y1="161.55"
       x2="1459.63"
       y2="218.53"
       gradientUnits="userSpaceOnUse"
       gradientTransform="matrix(0.04240317,0,0,0.04240317,-4.2403167,-4.2403167)">
      <stop
         stop-color="#59CAFD"
         id="stop17" />
      <stop
         offset="1"
         stop-color="#2B50EF"
         id="stop18" />
    </linearGradient>
  </defs>
</svg>
