<?xml version="1.0" encoding="UTF-8" standalone="no"?>
<svg
   width="2000"
   height="900"
   viewBox="0 0 2000 900"
   fill="none"
   version="1.1"
   id="svg75"
   sodipodi:docname="Bazzite_Tagline (Copy).svg"
   inkscape:export-filename="Bazzite_Tagline.svg"
   inkscape:export-xdpi="108.8639"
   inkscape:export-ydpi="108.8639"
   inkscape:version="1.4 (e7c3feb100, 2024-10-09)"
   xmlns:inkscape="http://www.inkscape.org/namespaces/inkscape"
   xmlns:sodipodi="http://sodipodi.sourceforge.net/DTD/sodipodi-0.dtd"
   xmlns="http://www.w3.org/2000/svg"
   xmlns:svg="http://www.w3.org/2000/svg">
  <sodipodi:namedview
     id="namedview1"
     pagecolor="#ffffff"
     bordercolor="#000000"
     borderopacity="0.25"
     inkscape:showpageshadow="2"
     inkscape:pageopacity="0.0"
     inkscape:pagecheckerboard="0"
     inkscape:deskcolor="#d1d1d1"
     inkscape:zoom="0.90329344"
     inkscape:cx="834.16968"
     inkscape:cy="448.35928"
     inkscape:window-width="3440"
     inkscape:window-height="1374"
     inkscape:window-x="0"
     inkscape:window-y="0"
     inkscape:window-maximized="1"
     inkscape:current-layer="g1" />
  <g
     id="g1"
     transform="translate(50,49.999995)">
    <path
       style="font-weight:bold;font-size:133.333px;font-family:'DM Sans';-inkscape-font-specification:'DM Sans Bold';text-align:center;text-anchor:middle;fill:#ffffff;stroke:#5835ce;stroke-width:0;stroke-linecap:round;stroke-linejoin:round"
       d="m 382.44724,615.8359 q -13.99996,0 -24.2666,-5.99999 -10.13331,-6.13332 -15.59996,-16.93329 -5.46665,-10.9333 -5.46665,-25.19993 0,-14.26663 5.46665,-25.19994 5.59999,-10.9333 15.73329,-17.06662 10.13331,-6.13332 24.13327,-6.13332 17.06663,0 27.8666,8.39998 10.79997,8.39998 13.59997,23.73327 h -19.86662 q -1.73333,-7.46665 -7.19998,-11.59997 -5.46665,-4.26665 -14.5333,-4.26665 -8.39998,0 -14.53329,3.99999 -5.99999,3.86665 -9.19998,11.06663 -3.06666,7.19999 -3.06666,17.06663 0,9.86664 3.06666,17.06662 3.19999,7.06665 9.19998,10.9333 6.13331,3.86666 14.53329,3.86666 9.06665,0 14.5333,-3.86666 5.59998,-3.86665 7.33331,-10.9333 h 19.73329 q -2.66666,14.5333 -13.59997,22.79994 -10.79997,8.26665 -27.8666,8.26665 z m 52.1333,-1.6 v -93.33309 h 17.99995 v 93.33309 z m 61.33322,1.6 q -9.59998,0 -17.33329,-4.39999 -7.73331,-4.39999 -12.26664,-12.26664 -4.39998,-7.86664 -4.39998,-17.99995 0,-10.26664 4.53332,-17.99996 4.53332,-7.86664 12.26663,-12.26663 7.73332,-4.39999 17.19996,-4.39999 9.59997,0 17.33329,4.39999 7.73331,4.39999 12.1333,12.26663 4.53332,7.73332 4.53332,17.99996 0,10.26664 -4.53332,18.13329 -4.53332,7.73331 -12.26664,12.1333 -7.59998,4.39999 -17.19995,4.39999 z m -0.13333,-15.19996 q 4.39998,0 7.86664,-2.13333 3.59999,-2.13333 5.73332,-6.39999 2.13333,-4.39998 2.13333,-10.9333 0,-6.53332 -2.13333,-10.79997 -2.13333,-4.39999 -5.73332,-6.53332 -3.46666,-2.13333 -7.59998,-2.13333 -4.26665,0 -7.86664,2.13333 -3.6,2.13333 -5.73332,6.53332 -2.13333,4.26665 -2.13333,10.79997 0,6.53332 2.13333,10.9333 2.13332,4.26666 5.59998,6.39999 3.59999,2.13333 7.73332,2.13333 z m 67.86643,15.19996 q -8.13332,0 -13.86664,-3.46666 -5.73331,-3.46666 -8.79997,-10.26664 -3.06666,-6.93332 -3.06666,-16.93329 v -37.06657 h 17.86662 v 35.46657 q 0,8.26665 3.33332,12.66664 3.46666,4.39999 10.66664,4.39999 4.66666,0 8.13332,-2.13333 3.59999,-2.26666 5.59998,-6.39999 2,-4.13332 2,-9.86664 v -34.13324 h 17.99995 v 66.13316 h -15.33329 l -1.6,-10.53331 h -0.53333 q -3.06666,5.59999 -8.66665,8.93331 -5.46665,3.2 -13.73329,3.2 z m 79.46638,0 q -9.33331,0 -16.26662,-4.39999 -6.93332,-4.53332 -10.79997,-12.39997 -3.86666,-7.86665 -3.86666,-17.86662 0,-9.99998 3.86666,-17.86662 3.86665,-7.86665 10.9333,-12.26664 7.06665,-4.53332 16.79996,-4.53332 7.73331,0 13.3333,3.06666 5.73332,2.93333 9.06664,7.06665 v -35.73324 h 17.99996 v 93.33309 h -15.19997 l -0.93333,-11.59997 h -0.53333 q -2.53333,4.13332 -6.13332,7.06665 -3.59999,2.93332 -8.13331,4.53332 -4.53332,1.6 -10.13331,1.6 z m 5.33332,-14.79997 q 5.46666,0 9.46665,-2.53332 4.13332,-2.53333 6.26665,-6.93332 2.26666,-4.53332 2.26666,-10.5333 0,-5.86666 -2.26666,-10.26664 -2.13333,-4.53333 -6.26665,-7.06665 -4.13333,-2.53333 -9.59998,-2.53333 -5.33332,0 -9.46664,2.53333 -3.99999,2.53332 -6.26665,7.06665 -2.13333,4.39998 -2.13333,10.26664 0,5.99998 2.13333,10.5333 2.26666,4.39999 6.26665,6.93332 4.13332,2.53332 9.59997,2.53332 z m 73.73333,13.19997 v -66.13316 h 15.3333 l 1.59999,10.79997 h 0.53333 q 3.2,-5.86665 8.66665,-9.06664 5.46665,-3.33333 13.7333,-3.33333 8.26664,0 13.99996,3.59999 5.73332,3.46666 8.66665,10.26664 3.06666,6.79998 3.06666,16.79996 v 37.06657 h -17.99996 v -35.46658 q 0,-8.26664 -3.33332,-12.66663 -3.33333,-4.39999 -10.53331,-4.39999 -4.53332,0 -8.13331,2.26666 -3.59999,2.13333 -5.59999,6.26665 -1.99999,3.99999 -1.99999,9.86664 v 34.13325 z m 97.19968,1.6 q -7.86665,0 -13.06663,-2.66666 -5.06666,-2.66666 -7.46665,-7.19998 -2.4,-4.53333 -2.4,-9.99998 0,-6.13332 3.06666,-10.79997 3.19999,-4.66666 9.59998,-7.19998 6.39998,-2.66666 16.13329,-2.66666 h 16.66662 q 0,-4.93332 -1.46666,-8.13332 -1.33333,-3.19999 -4.26665,-4.79998 -2.8,-1.6 -7.19999,-1.6 -5.19998,0 -8.93331,2.39999 -3.59999,2.26667 -4.53332,7.19999 h -17.46662 q 0.8,-7.33332 4.79999,-12.66664 4.13332,-5.33332 10.79997,-8.26664 6.79998,-2.93333 15.33329,-2.93333 9.59998,0 16.5333,3.19999 6.93331,3.06666 10.66663,9.19998 3.73333,5.99998 3.73333,14.66663 v 40.66656 h -14.9333 l -1.86666,-10.26664 h -0.53333 q -2.13333,2.93333 -4.66666,5.19999 -2.39999,2.26666 -5.33331,3.73332 -2.93333,1.46666 -6.26666,2.13333 -3.33332,0.8 -6.93331,0.8 z m 5.86665,-13.86663 q 3.73332,0 6.39998,-1.2 2.8,-1.33333 4.79999,-3.46666 2,-2.13333 3.06666,-4.93332 1.2,-2.93333 1.6,-5.99998 v 0 h -13.86663 q -4.13333,0 -6.79999,1.06666 -2.53332,0.93333 -3.73332,2.79999 -1.2,1.73333 -1.2,4.13332 0,2.4 1.2,4.13333 1.2,1.73333 3.46666,2.66666 2.26666,0.8 5.06665,0.8 z m 74.02753,12.26663 q -7.06665,0 -12.39997,-2.13333 -5.19998,-2.26666 -8.13331,-7.33331 -2.93333,-5.19999 -2.93333,-14.1333 V 562.5027 h -11.3333 v -14.39996 h 11.3333 l 2,-17.99996 h 15.99996 v 17.99996 h 17.59995 V 562.5027 H 893.8071 v 28.39993 q 0,4.79998 1.99999,6.66665 2,1.73333 6.79999,1.73333 h 8.39997 v 14.93329 z m 20.26655,0 v -66.13316 h 17.99996 v 66.13316 z m 9.06665,-74.53314 q -4.93333,0 -8.13332,-2.79999 -3.06666,-2.93333 -3.06666,-7.33332 0,-4.39999 3.06666,-7.33331 3.19999,-2.93333 8.13332,-2.93333 4.93332,0 7.99997,2.93333 3.06666,2.93332 3.06666,7.33331 0,4.26666 -3.06666,7.19998 -3.06665,2.93333 -7.99997,2.93333 z m 38.39981,74.53314 -21.33327,-66.13316 h 18.93328 l 15.59996,54.26652 h 0.66667 l 15.73329,-54.26652 h 18.79991 l -21.33324,66.13316 z m 85.21384,1.6 q -10.1333,0 -17.9999,-4.26666 -7.7333,-4.26665 -12.1333,-11.99997 -4.4,-7.73331 -4.4,-17.73329 0,-10.39997 4.2666,-18.26662 4.4,-7.99998 12.1333,-12.5333 7.8667,-4.53332 18.1333,-4.53332 10,0 17.4666,4.26666 7.4667,4.26665 11.7333,11.7333 4.2667,7.33331 4.2667,16.66662 0,1.33333 -0.1333,3.06666 0,1.6 -0.1334,3.33333 h -54.9332 v -11.06664 h 36.9333 q -0.4,-6.26665 -4.6667,-9.99998 -4.1333,-3.73332 -10.3999,-3.73332 -4.6667,0 -8.5334,2.13333 -3.8666,1.99999 -6.1333,6.26665 -2.2666,4.13332 -2.2666,10.53331 v 3.86665 q 0,5.46666 2.1333,9.46665 2.1333,3.86665 5.8666,5.99998 3.8667,2.13333 8.6667,2.13333 4.9333,0 8.2666,-2.13333 3.3334,-2.26666 5.0667,-5.73332 h 18.2666 q -1.8667,6.26665 -6.2666,11.46664 -4.4,5.06665 -10.8,8.13331 -6.4,2.93333 -14.4,2.93333 z m 99.1999,26.6666 q -9.4666,0 -16.6666,-2.26667 -7.0667,-2.26666 -11.0666,-6.79998 -3.8667,-4.39999 -3.8667,-10.66664 0,-4.66665 2.4,-8.53331 2.4,-3.99999 7.0666,-7.19998 4.6667,-3.33333 11.4667,-5.73332 l 6.5333,8.93331 q -5.8667,2 -8.5333,4.79999 -2.6667,2.79999 -2.6667,6.39998 0,2.66666 1.8667,4.53332 2,1.86667 5.4666,2.8 3.4667,1.06666 8,1.06666 4.5333,0 7.6,-1.06666 3.0667,-1.06667 4.6667,-3.06666 1.6,-1.86666 1.6,-4.39999 0,-3.59999 -2.5334,-5.59999 -2.5333,-1.86666 -9.8666,-2.39999 -6.8,-0.53333 -12,-1.46666 -5.2,-1.06667 -9.2,-2.4 -3.8666,-1.46666 -6.6666,-3.19999 -2.8,-1.73333 -4.5333,-3.46666 v -3.06666 l 14.2666,-14.66662 10.5333,3.99999 -14.4,15.99995 4.8,-7.99998 q 1.3334,0.53334 2.8,1.06667 1.4667,0.53333 3.6,1.06666 2.2667,0.53333 5.6,1.06667 3.4667,0.4 8.6666,0.93333 8.8,0.66666 14.4,3.06666 5.6,2.39999 8.2667,6.53331 2.6666,4.13333 2.6666,10.13331 0,5.19999 -3.3333,10.13331 -3.2,5.06665 -9.8667,8.26664 -6.6666,3.2 -17.0666,3.2 z m 0.1334,-47.86655 q -8.4,0 -14.5333,-3.19999 -6,-3.19999 -9.3334,-8.66665 -3.1999,-5.46665 -3.1999,-12.1333 0,-6.66665 3.1999,-12.1333 3.3334,-5.46665 9.3334,-8.66664 6.1333,-3.33333 14.5333,-3.33333 8.3999,0 14.3999,3.33333 6.1333,3.19999 9.3333,8.66664 3.2,5.46665 3.2,12.1333 0,6.66665 -3.2,12.1333 -3.2,5.46666 -9.3333,8.66665 -6,3.19999 -14.3999,3.19999 z m -0.1334,-13.06663 q 5.3333,0 8.5333,-2.66666 3.3334,-2.79999 3.3334,-8.26665 0,-5.46665 -3.3334,-8.13331 -3.2,-2.79999 -8.3999,-2.79999 -5.3334,0 -8.6667,2.79999 -3.2,2.66666 -3.2,8.13331 0,5.46666 3.2,8.26665 3.3333,2.66666 8.5333,2.66666 z m 10.9333,-21.33328 -2.9333,-12.1333 h 27.7333 v 9.73331 z m 55.1998,55.59986 q -7.8666,0 -13.0666,-2.66666 -5.0667,-2.66666 -7.4667,-7.19998 -2.4,-4.53333 -2.4,-9.99998 0,-6.13332 3.0667,-10.79997 3.2,-4.66666 9.6,-7.19998 6.4,-2.66666 16.1333,-2.66666 h 16.6666 q 0,-4.93332 -1.4667,-8.13332 -1.3333,-3.19999 -4.2666,-4.79998 -2.8,-1.6 -7.2,-1.6 -5.2,0 -8.9333,2.39999 -3.6,2.26667 -4.5333,7.19999 h -17.4667 q 0.8,-7.33332 4.8,-12.66664 4.1333,-5.33332 10.8,-8.26664 6.8,-2.93333 15.3333,-2.93333 9.6,0 16.5333,3.19999 6.9333,3.06666 10.6666,9.19998 3.7333,5.99998 3.7333,14.66663 v 40.66656 h -14.9333 l -1.8666,-10.26664 h -0.5333 q -2.1334,2.93333 -4.6667,5.19999 -2.4,2.26666 -5.3333,3.73332 -2.9333,1.46666 -6.2667,2.13333 -3.3333,0.8 -6.9333,0.8 z m 5.8667,-13.86663 q 3.7333,0 6.3999,-1.2 2.8,-1.33333 4.8,-3.46666 2,-2.13333 3.0667,-4.93332 1.2,-2.93333 1.6,-5.99998 v 0 h -13.8666 q -4.1334,0 -6.8,1.06666 -2.5334,0.93333 -3.7333,2.79999 -1.2,1.73333 -1.2,4.13332 0,2.4 1.2,4.13333 1.1999,1.73333 3.4666,2.66666 2.2667,0.8 5.0667,0.8 z m 44.6665,12.26663 v -66.13316 h 15.7333 l 1.4667,11.06663 h 0.5333 q 3.0667,-6.26665 8.5333,-9.46664 5.4667,-3.19999 12.6667,-3.19999 4.9333,0 9.0666,1.33333 4.2667,1.33333 7.4667,4.26666 3.2,2.79999 5.3333,7.46664 h 0.5333 q 3.7333,-6.13331 9.2,-9.59997 5.6,-3.46666 14.1333,-3.46666 7.6,0 13.2,3.59999 5.5999,3.46666 8.5333,10.26664 3.0666,6.79998 3.0666,16.79996 v 37.06657 h -17.8666 v -35.46658 q 0,-8.26664 -3.2,-12.66663 -3.2,-4.39999 -10,-4.39999 -4.5333,0 -7.7333,2 -3.2,1.86666 -5.0666,5.73332 -1.8667,3.73332 -1.8667,9.3333 v 35.46658 h -17.8666 v -35.46658 q 0,-8.26664 -3.2,-12.66663 -3.2,-4.39999 -10.1333,-4.39999 -4,0 -7.3333,2.26666 -3.3333,2.13333 -5.3333,6.26665 -1.8667,3.99999 -1.8667,9.86664 v 34.13325 z m 121.5997,0 v -66.13316 h 17.9999 v 66.13316 z m 9.0666,-74.53314 q -4.9333,0 -8.1333,-2.79999 -3.0666,-2.93333 -3.0666,-7.33332 0,-4.39999 3.0666,-7.33331 3.2,-2.93333 8.1333,-2.93333 4.9333,0 8,2.93333 3.0667,2.93332 3.0667,7.33331 0,4.26666 -3.0667,7.19998 -3.0667,2.93333 -8,2.93333 z m 21.7333,74.53314 v -66.13316 h 15.3333 l 1.6,10.79997 h 0.5333 q 3.2,-5.86665 8.6666,-9.06664 5.4667,-3.33333 13.7333,-3.33333 8.2667,0 14,3.59999 5.7333,3.46666 8.6667,10.26664 3.0666,6.79998 3.0666,16.79996 v 37.06657 h -17.9999 v -35.46658 q 0,-8.26664 -3.3334,-12.66663 -3.3333,-4.39999 -10.5333,-4.39999 -4.5333,0 -8.1333,2.26666 -3.6,2.13333 -5.6,6.26665 -2,3.99999 -2,9.86664 v 34.13325 z m 106.6663,28.2666 q -9.4666,0 -16.6666,-2.26667 -7.0667,-2.26666 -11.0667,-6.79998 -3.8666,-4.39999 -3.8666,-10.66664 0,-4.66665 2.4,-8.53331 2.4,-3.99999 7.0666,-7.19998 4.6667,-3.33333 11.4667,-5.73332 l 6.5333,8.93331 q -5.8667,2 -8.5333,4.79999 -2.6667,2.79999 -2.6667,6.39998 0,2.66666 1.8667,4.53332 2,1.86667 5.4666,2.8 3.4667,1.06666 8,1.06666 4.5333,0 7.6,-1.06666 3.0666,-1.06667 4.6666,-3.06666 1.6,-1.86666 1.6,-4.39999 0,-3.59999 -2.5333,-5.59999 -2.5333,-1.86666 -9.8666,-2.39999 -6.8,-0.53333 -12,-1.46666 -5.2,-1.06667 -9.2,-2.4 -3.8666,-1.46666 -6.6666,-3.19999 -2.8,-1.73333 -4.5334,-3.46666 v -3.06666 l 14.2667,-14.66662 10.5333,3.99999 -14.4,15.99995 4.8,-7.99998 q 1.3333,0.53334 2.8,1.06667 1.4667,0.53333 3.6,1.06666 2.2667,0.53333 5.6,1.06667 3.4666,0.4 8.6666,0.93333 8.8,0.66666 14.4,3.06666 5.6,2.39999 8.2666,6.53331 2.6667,4.13333 2.6667,10.13331 0,5.19999 -3.3333,10.13331 -3.2,5.06665 -9.8667,8.26664 -6.6666,3.2 -17.0666,3.2 z m 0.1333,-47.86655 q -8.3999,0 -14.5333,-3.19999 -5.9999,-3.19999 -9.3333,-8.66665 -3.2,-5.46665 -3.2,-12.1333 0,-6.66665 3.2,-12.1333 3.3334,-5.46665 9.3333,-8.66664 6.1334,-3.33333 14.5333,-3.33333 8.4,0 14.4,3.33333 6.1333,3.19999 9.3333,8.66664 3.2,5.46665 3.2,12.1333 0,6.66665 -3.2,12.1333 -3.2,5.46666 -9.3333,8.66665 -6,3.19999 -14.4,3.19999 z m -0.1333,-13.06663 q 5.3333,0 8.5333,-2.66666 3.3333,-2.79999 3.3333,-8.26665 0,-5.46665 -3.3333,-8.13331 -3.2,-2.79999 -8.4,-2.79999 -5.3333,0 -8.6666,2.79999 -3.2,2.66666 -3.2,8.13331 0,5.46666 3.2,8.26665 3.3333,2.66666 8.5333,2.66666 z m 10.9333,-21.33328 -2.9333,-12.1333 h 27.7332 v 9.73331 z"
       id="text1"
       aria-label="Cloud native gaming" />
    <g
       clip-path="url(#clip0_1019_206)"
       id="g15"
       transform="translate(68.165,46.512012)">
      <path
         d="M 0,81.6 C 0,36.5336 36.5336,0 81.6,0 H 204 c 112.666,0 204,91.3339 204,204 v 0 c 0,112.666 -91.334,204 -204,204 v 0 C 91.3339,408 0,316.666 0,204 Z"
         fill="url(#paint0_linear_1019_206)"
         id="path1"
         style="fill:url(#paint0_linear_1019_206)" />
      <path
         fill-rule="evenodd"
         clip-rule="evenodd"
         d="m 104.448,0 h 52.224 v 104.448 h 109.495 c 45.884,0 83.081,37.197 83.081,83.081 0,89.315 -72.404,161.719 -161.719,161.719 -45.884,0 -83.081,-37.197 -83.081,-83.081 V 156.672 H 0 L 2.28278e-6,104.448 H 104.448 Z m 52.224,156.672 v 109.495 c 0,17.042 13.815,30.857 30.857,30.857 60.472,0 109.495,-49.023 109.495,-109.495 0,-17.042 -13.815,-30.857 -30.857,-30.857 z"
         fill="#ffffff"
         fill-opacity="0.5"
         id="path2" />
      <path
         d="m 156.672,50.592 c 0,-14.4213 -11.69,-26.112 -26.112,-26.112 v 0 c -14.421,0 -26.112,11.6907 -26.112,26.112 v 53.856 H 50.5925 c -14.4213,0 -26.112,11.691 -26.112,26.112 v 0 c 0,14.421 11.6907,26.112 26.112,26.112 h 53.8555 v 53.856 c 0,14.421 11.691,26.112 26.112,26.112 v 0 c 14.422,0 26.112,-11.691 26.112,-26.112 v -53.856 h 53.856 c 14.422,0 26.112,-11.691 26.112,-26.112 v 0 c 0,-14.421 -11.69,-26.112 -26.112,-26.112 h -53.856 z"
         fill="#ffffff"
         fill-opacity="0.7"
         id="path3" />
      <path
         d="m 212.82,126.23 c 3.334,1.924 3.334,6.736 0,8.66 l -14.376,8.3 c -3.333,1.925 -7.5,-0.481 -7.5,-4.33 v -16.6 c 0,-3.849 4.167,-6.255 7.5,-4.33 z"
         fill="#ffffff"
         id="path4" />
      <path
         d="m 134.89,212.82 c -1.925,3.333 -6.736,3.333 -8.661,0 l -8.3,-14.376 c -1.924,-3.333 0.482,-7.5 4.331,-7.5 h 16.6 c 3.849,0 6.254,4.167 4.33,7.5 z"
         fill="#ffffff"
         id="path5" />
      <path
         d="m 126.229,48.3 c 1.925,-3.3333 6.736,-3.3333 8.661,0 l 8.3,14.376 c 1.924,3.3333 -0.481,7.5 -4.33,7.5 h -16.6 c -3.849,0 -6.255,-4.1667 -4.331,-7.5 z"
         fill="#ffffff"
         id="path6" />
      <path
         d="m 48.2998,134.89 c -3.3333,-1.924 -3.3333,-6.736 0,-8.66 l 14.376,-8.3 c 3.3333,-1.925 7.5,0.481 7.5,4.33 v 16.6 c 0,3.849 -4.1667,6.255 -7.5,4.33 z"
         fill="#ffffff"
         id="path7" />
      <path
         d="m 590.025,346.835 c -20.02,0 -37.73,-4.235 -53.13,-12.705 -15.4,-8.47 -27.463,-20.533 -36.19,-36.19 C 492.235,282.027 488,263.29 488,241.73 V 61.165 h 44.275 V 175.51 h 0.385 c 4.107,-6.93 9.497,-12.962 16.17,-18.095 6.673,-5.133 14.117,-9.112 22.33,-11.935 8.213,-2.823 16.94,-4.235 26.18,-4.235 18.737,0 35.163,4.235 49.28,12.705 14.373,8.213 25.538,19.763 33.495,34.65 8.213,14.887 12.32,32.34 12.32,52.36 0,15.657 -2.438,30.03 -7.315,43.12 -4.62,12.833 -11.422,23.998 -20.405,33.495 -8.727,9.497 -19.378,16.812 -31.955,21.945 -12.577,4.877 -26.822,7.315 -42.735,7.315 z m 0,-37.73 c 11.293,0 21.303,-2.695 30.03,-8.085 8.727,-5.647 15.528,-13.347 20.405,-23.1 4.877,-9.753 7.315,-21.047 7.315,-33.88 0,-12.577 -2.438,-23.742 -7.315,-33.495 -4.877,-9.753 -11.678,-17.453 -20.405,-23.1 -8.47,-5.647 -18.352,-8.47 -29.645,-8.47 -11.293,0 -21.303,2.823 -30.03,8.47 -8.727,5.39 -15.528,12.962 -20.405,22.715 -4.877,9.753 -7.315,21.047 -7.315,33.88 0,12.833 2.438,24.127 7.315,33.88 4.877,9.753 11.678,17.453 20.405,23.1 8.727,5.39 18.608,8.085 29.645,8.085 z"
         fill="white"
         id="path8"
         style="fill:#ffffff;fill-opacity:1" />
      <path
         d="m 802.446,346.835 c -18.737,0 -34.907,-4.62 -48.51,-13.86 -13.604,-9.24 -24.127,-21.56 -31.57,-36.96 -7.187,-15.657 -10.78,-32.853 -10.78,-51.59 0,-19.507 4.106,-36.96 12.32,-52.36 8.47,-15.657 20.405,-27.977 35.805,-36.96 15.656,-9.24 34.265,-13.86 55.825,-13.86 21.303,0 39.398,4.62 54.285,13.86 15.143,8.983 26.693,21.303 34.65,36.96 8.213,15.4 12.32,32.597 12.32,51.59 v 98.56 H 872.516 V 305.64 h -0.77 c -3.85,7.187 -8.855,13.988 -15.015,20.405 -6.16,6.16 -13.732,11.165 -22.715,15.015 -8.984,3.85 -19.507,5.775 -31.57,5.775 z m 11.935,-37.73 c 11.55,0 21.56,-2.823 30.03,-8.47 8.726,-5.903 15.4,-13.732 20.02,-23.485 4.876,-10.01 7.315,-21.175 7.315,-33.495 0,-12.32 -2.31,-23.228 -6.93,-32.725 -4.62,-9.753 -11.165,-17.453 -19.635,-23.1 -8.47,-5.903 -18.609,-8.855 -30.415,-8.855 -12.32,0 -22.844,2.952 -31.57,8.855 -8.727,5.647 -15.4,13.347 -20.02,23.1 -4.62,9.753 -6.93,20.79 -6.93,33.11 0,12.063 2.31,23.1 6.93,33.11 4.62,9.753 11.165,17.582 19.635,23.485 8.726,5.647 19.25,8.47 31.57,8.47 z"
         fill="white"
         id="path9"
         style="fill:#ffffff;fill-opacity:1" />
      <path
         d="m 990.172,342.215 c -8.47,0 -16.041,-2.053 -22.715,-6.16 -6.673,-4.107 -12.063,-9.625 -16.17,-16.555 -3.85,-6.93 -5.775,-14.502 -5.775,-22.715 0,-8.213 2.054,-15.657 6.16,-22.33 4.107,-6.673 9.754,-12.448 16.94,-17.325 l 85.468,-55.825 c 2.57,-1.283 4.11,-2.695 4.62,-4.235 0.77,-1.54 1.16,-3.08 1.16,-4.62 0,-2.31 -0.9,-4.363 -2.7,-6.16 -1.54,-1.797 -3.72,-2.695 -6.54,-2.695 h -95.483 v -37.73 h 108.573 c 8.47,0 15.91,2.053 22.33,6.16 6.67,4.107 11.93,9.625 15.78,16.555 4.11,6.93 6.16,14.502 6.16,22.715 0,8.213 -2.05,15.657 -6.16,22.33 -4.1,6.673 -9.75,12.448 -16.94,17.325 l -85.083,55.825 c -2.31,1.283 -3.978,2.695 -5.005,4.235 -0.77,1.54 -1.155,3.08 -1.155,4.62 0,2.31 0.899,4.363 2.695,6.16 1.797,1.797 4.108,2.695 6.928,2.695 h 100.87 v 37.73 z"
         fill="white"
         id="path10"
         style="fill:#ffffff;fill-opacity:1" />
      <path
         d="m 1174.13,342.215 c -8.47,0 -16.04,-2.053 -22.71,-6.16 -6.68,-4.107 -12.07,-9.625 -16.17,-16.555 -3.85,-6.93 -5.78,-14.502 -5.78,-22.715 0,-8.213 2.05,-15.657 6.16,-22.33 4.11,-6.673 9.75,-12.448 16.94,-17.325 l 85.47,-55.825 c 2.57,-1.283 4.11,-2.695 4.62,-4.235 0.77,-1.54 1.16,-3.08 1.16,-4.62 0,-2.31 -0.9,-4.363 -2.7,-6.16 -1.54,-1.797 -3.72,-2.695 -6.54,-2.695 h -95.48 v -37.73 h 108.57 c 8.47,0 15.91,2.053 22.33,6.16 6.67,4.107 11.93,9.625 15.78,16.555 4.11,6.93 6.16,14.502 6.16,22.715 0,8.213 -2.05,15.657 -6.16,22.33 -4.11,6.673 -9.75,12.448 -16.94,17.325 l -85.08,55.825 c -2.31,1.283 -3.98,2.695 -5.01,4.235 -0.77,1.54 -1.15,3.08 -1.15,4.62 0,2.31 0.89,4.363 2.69,6.16 1.8,1.797 4.11,2.695 6.93,2.695 h 100.87 v 37.73 z"
         fill="white"
         id="path11"
         style="fill:#ffffff;fill-opacity:1" />
      <path
         d="m 1337.68,342.215 v -196.35 h 44.28 v 196.35 z"
         fill="white"
         id="path12"
         style="fill:#ffffff;fill-opacity:1" />
      <path
         d="m 1502.82,342.215 c -17.45,0 -31.18,-5.005 -41.19,-15.015 C 1451.87,317.19 1447,303.587 1447,286.39 V 96.585 h 43.89 v 187.88 c 0,5.903 1.79,10.78 5.39,14.63 3.59,3.593 8.34,5.39 14.24,5.39 h 41.2 v 37.73 z m -89.7,-158.62 v -37.73 h 138.98 v 37.73 z"
         fill="white"
         id="path13"
         style="fill:#ffffff;fill-opacity:1" />
      <path
         d="m 1686.29,342.215 c -22.08,0 -41.46,-4.107 -58.14,-12.32 -16.43,-8.47 -29.26,-20.02 -38.5,-34.65 -9.24,-14.887 -13.86,-31.955 -13.86,-51.205 0,-20.277 4.11,-38.115 12.32,-53.515 8.21,-15.4 19.51,-27.463 33.88,-36.19 14.37,-8.727 30.93,-13.09 49.67,-13.09 21.04,0 38.37,4.492 51.97,13.475 13.6,8.983 23.61,21.047 30.03,36.19 6.67,15.143 10.01,32.083 10.01,50.82 0,2.567 -0.13,5.518 -0.38,8.855 -0.26,3.337 -0.65,5.903 -1.16,7.7 h -139.37 c 1.54,10.267 5.26,18.865 11.17,25.795 5.9,6.673 13.34,11.807 22.33,15.4 8.98,3.337 18.99,5.005 30.03,5.005 h 52.74 v 37.73 z m -63.91,-113.96 h 97.02 c -0.26,-4.877 -1.03,-9.753 -2.31,-14.63 -1.03,-4.877 -2.83,-9.497 -5.39,-13.86 -2.31,-4.363 -5.39,-8.085 -9.24,-11.165 -3.6,-3.337 -7.96,-5.903 -13.09,-7.7 -5.14,-2.053 -11.04,-3.08 -17.71,-3.08 -7.7,0 -14.51,1.54 -20.41,4.62 -5.9,2.823 -10.91,6.673 -15.01,11.55 -4.11,4.62 -7.32,10.01 -9.63,16.17 -2.05,5.903 -3.46,11.935 -4.23,18.095 z"
         fill="white"
         id="path14"
         style="fill:#ffffff;fill-opacity:1" />
      <path
         d="m 1339.61,110.06 c 5.64,5.647 12.32,8.47 20.02,8.47 7.95,0 14.63,-2.823 20.02,-8.47 5.64,-5.647 8.47,-12.32 8.47,-20.02 0,-7.7 -2.83,-14.3734 -8.47,-20.02 -5.39,-5.6467 -12.07,-8.47 -20.02,-8.47 -7.7,0 -14.38,2.8233 -20.02,8.47 -5.65,5.6466 -8.47,12.32 -8.47,20.02 0,7.7 2.82,14.373 8.47,20.02 z"
         fill="url(#paint1_linear_1019_206)"
         id="path15"
         style="fill:url(#paint1_linear_1019_206)" />
    </g>
    <rect
       x="210.61899"
       y="653.008"
       width="1478.76"
       height="100.48"
       rx="50.240002"
       fill="url(#paint2_linear_1019_206)"
       id="rect38"
       style="fill:url(#paint2_linear_1019_206)" />
    <path
       d="m 380.619,724.40801 7.872,-44.8 h 14.656 c 3.2,0 5.781,0.533 7.744,1.6 2.005,1.067 3.456,2.496 4.352,4.288 0.896,1.792 1.301,3.755 1.216,5.888 -0.128,2.987 -0.939,5.568 -2.432,7.744 -1.493,2.176 -3.563,3.861 -6.208,5.056 -2.645,1.195 -5.739,1.792 -9.28,1.792 h -9.28 l -3.264,18.432 z m 9.408,-22.976 h 9.152 c 3.712,0 6.549,-0.811 8.512,-2.432 1.963,-1.664 3.008,-4.096 3.136,-7.296 0.128,-2.261 -0.469,-4.096 -1.792,-5.504 -1.323,-1.408 -3.584,-2.112 -6.784,-2.112 h -9.152 z"
       fill="#ffffff"
       id="path39" />
    <path
       d="m 431.08,725.17601 c -2.773,0 -5.205,-0.619 -7.296,-1.856 -2.048,-1.28 -3.605,-3.029 -4.672,-5.248 -1.067,-2.261 -1.536,-4.821 -1.408,-7.68 0.128,-2.731 0.683,-5.248 1.664,-7.552 1.024,-2.347 2.389,-4.352 4.096,-6.016 1.749,-1.707 3.733,-3.029 5.952,-3.968 2.261,-0.981 4.651,-1.472 7.168,-1.472 2.773,0 5.184,0.619 7.232,1.856 2.091,1.237 3.669,2.944 4.736,5.12 1.109,2.176 1.579,4.736 1.408,7.68 -0.128,2.773 -0.704,5.333 -1.728,7.68 -0.981,2.304 -2.347,4.309 -4.096,6.016 -1.707,1.707 -3.669,3.051 -5.888,4.032 -2.219,0.939 -4.608,1.408 -7.168,1.408 z m 0.704,-4.608 c 2.304,0 4.373,-0.597 6.208,-1.792 1.877,-1.195 3.392,-2.859 4.544,-4.992 1.152,-2.176 1.792,-4.651 1.92,-7.424 0.128,-2.261 -0.192,-4.139 -0.96,-5.632 -0.725,-1.536 -1.771,-2.709 -3.136,-3.52 -1.323,-0.811 -2.816,-1.216 -4.48,-1.216 -2.261,0 -4.309,0.619 -6.144,1.856 -1.835,1.195 -3.328,2.859 -4.48,4.992 -1.152,2.133 -1.792,4.608 -1.92,7.424 -0.128,2.176 0.171,4.032 0.896,5.568 0.725,1.536 1.749,2.709 3.072,3.52 1.365,0.811 2.859,1.216 4.48,1.216 z"
       fill="#ffffff"
       id="path40" />
    <path
       d="m 459.766,724.40801 -3.84,-32.256 h 5.44 l 2.496,27.2 h -1.024 l 12.928,-27.2 h 6.08 l 3.264,27.136 -1.024,0.064 12.16,-27.2 h 5.376 l -15.104,32.256 h -5.504 l -3.392,-28.416 h 1.024 l -13.44,28.416 z"
       fill="#ffffff"
       id="path41" />
    <path
       d="m 515.442,725.17601 c -2.688,0 -5.035,-0.597 -7.04,-1.792 -1.963,-1.195 -3.456,-2.88 -4.48,-5.056 -0.982,-2.176 -1.408,-4.715 -1.28,-7.616 0.128,-2.773 0.682,-5.312 1.664,-7.616 0.981,-2.347 2.304,-4.395 3.968,-6.144 1.706,-1.749 3.669,-3.115 5.888,-4.096 2.218,-0.981 4.629,-1.472 7.232,-1.472 2.901,0 5.29,0.597 7.168,1.792 1.92,1.195 3.328,2.795 4.224,4.8 0.896,1.963 1.28,4.139 1.152,6.528 -0.043,0.725 -0.15,1.557 -0.32,2.496 -0.128,0.896 -0.278,1.728 -0.448,2.496 h -26.368 l 0.704,-4.16 h 21.12 c 0.298,-2.005 0.128,-3.691 -0.512,-5.056 -0.64,-1.408 -1.6,-2.475 -2.88,-3.2 -1.28,-0.768 -2.816,-1.152 -4.608,-1.152 -1.835,0 -3.606,0.427 -5.312,1.28 -1.664,0.811 -3.115,2.027 -4.352,3.648 -1.238,1.579 -2.07,3.563 -2.496,5.952 l -0.32,1.792 c -0.47,2.389 -0.427,4.501 0.128,6.336 0.554,1.835 1.514,3.243 2.88,4.224 1.408,0.981 3.114,1.472 5.12,1.472 2.261,0 4.202,-0.491 5.824,-1.472 1.664,-1.024 2.965,-2.389 3.904,-4.096 h 5.312 c -0.896,1.92 -2.112,3.648 -3.648,5.184 -1.494,1.536 -3.286,2.752 -5.376,3.648 -2.048,0.853 -4.331,1.28 -6.848,1.28 z"
       fill="#ffffff"
       id="path42" />
    <path
       d="m 537.862,724.40801 5.632,-32.256 h 4.928 l -0.64,5.76 c 0.981,-1.365 2.133,-2.517 3.456,-3.456 1.322,-0.981 2.837,-1.728 4.544,-2.24 1.706,-0.555 3.541,-0.832 5.504,-0.832 l -0.96,5.632 h -1.984 c -1.366,0 -2.71,0.171 -4.032,0.512 -1.28,0.341 -2.475,0.896 -3.584,1.664 -1.067,0.768 -1.984,1.792 -2.752,3.072 -0.768,1.237 -1.323,2.795 -1.664,4.672 l -3.072,17.472 z"
       fill="#ffffff"
       id="path43" />
    <path
       d="m 574.754,725.17601 c -2.688,0 -5.035,-0.597 -7.04,-1.792 -1.963,-1.195 -3.456,-2.88 -4.48,-5.056 -0.981,-2.176 -1.408,-4.715 -1.28,-7.616 0.128,-2.773 0.683,-5.312 1.664,-7.616 0.981,-2.347 2.304,-4.395 3.968,-6.144 1.707,-1.749 3.669,-3.115 5.888,-4.096 2.219,-0.981 4.629,-1.472 7.232,-1.472 2.901,0 5.291,0.597 7.168,1.792 1.92,1.195 3.328,2.795 4.224,4.8 0.896,1.963 1.28,4.139 1.152,6.528 -0.043,0.725 -0.149,1.557 -0.32,2.496 -0.128,0.896 -0.277,1.728 -0.448,2.496 h -26.368 l 0.704,-4.16 h 21.12 c 0.299,-2.005 0.128,-3.691 -0.512,-5.056 -0.64,-1.408 -1.6,-2.475 -2.88,-3.2 -1.28,-0.768 -2.816,-1.152 -4.608,-1.152 -1.835,0 -3.605,0.427 -5.312,1.28 -1.664,0.811 -3.115,2.027 -4.352,3.648 -1.237,1.579 -2.069,3.563 -2.496,5.952 l -0.32,1.792 c -0.469,2.389 -0.427,4.501 0.128,6.336 0.555,1.835 1.515,3.243 2.88,4.224 1.408,0.981 3.115,1.472 5.12,1.472 2.261,0 4.203,-0.491 5.824,-1.472 1.664,-1.024 2.965,-2.389 3.904,-4.096 h 5.312 c -0.896,1.92 -2.112,3.648 -3.648,5.184 -1.493,1.536 -3.285,2.752 -5.376,3.648 -2.048,0.853 -4.331,1.28 -6.848,1.28 z"
       fill="#ffffff"
       id="path44" />
    <path
       d="m 611.254,725.17601 c -2.773,0 -5.141,-0.661 -7.104,-1.984 -1.963,-1.323 -3.435,-3.115 -4.416,-5.376 -0.981,-2.304 -1.387,-4.821 -1.216,-7.552 0.128,-2.773 0.661,-5.291 1.6,-7.552 0.981,-2.304 2.283,-4.288 3.904,-5.952 1.664,-1.707 3.563,-3.029 5.696,-3.968 2.176,-0.939 4.48,-1.408 6.912,-1.408 2.773,0 5.035,0.555 6.784,1.664 1.792,1.109 3.115,2.581 3.968,4.416 l 3.392,-19.136 h 5.376 l -8.128,46.08 h -4.928 l 0.448,-5.312 c -0.811,1.067 -1.813,2.069 -3.008,3.008 -1.152,0.896 -2.496,1.643 -4.032,2.24 -1.536,0.555 -3.285,0.832 -5.248,0.832 z m 1.536,-4.672 c 2.389,0 4.501,-0.619 6.336,-1.856 1.877,-1.28 3.371,-2.987 4.48,-5.12 1.109,-2.176 1.728,-4.608 1.856,-7.296 0.128,-2.048 -0.149,-3.819 -0.832,-5.312 -0.64,-1.536 -1.643,-2.731 -3.008,-3.584 -1.323,-0.853 -2.944,-1.28 -4.864,-1.28 -2.304,0 -4.395,0.597 -6.272,1.792 -1.877,1.152 -3.392,2.773 -4.544,4.864 -1.109,2.091 -1.728,4.48 -1.856,7.168 -0.128,2.048 0.149,3.883 0.832,5.504 0.683,1.621 1.685,2.88 3.008,3.776 1.365,0.896 2.987,1.344 4.864,1.344 z"
       fill="#ffffff"
       id="path45" />
    <path
       d="m 671.817,725.17601 c -1.792,0 -3.413,-0.299 -4.864,-0.896 -1.408,-0.597 -2.603,-1.365 -3.584,-2.304 -0.939,-0.939 -1.643,-1.899 -2.112,-2.88 l -1.408,5.312 h -4.864 l 8.128,-46.08 h 5.376 l -3.328,18.88 c 1.323,-1.621 2.987,-2.987 4.992,-4.096 2.005,-1.152 4.395,-1.728 7.168,-1.728 2.816,0 5.205,0.64 7.168,1.92 1.963,1.28 3.435,3.029 4.416,5.248 0.981,2.176 1.408,4.672 1.28,7.488 -0.128,2.688 -0.683,5.205 -1.664,7.552 -0.939,2.347 -2.24,4.395 -3.904,6.144 -1.664,1.707 -3.584,3.051 -5.76,4.032 -2.176,0.939 -4.523,1.408 -7.04,1.408 z m 0.256,-4.672 c 2.304,0 4.373,-0.597 6.208,-1.792 1.877,-1.195 3.371,-2.837 4.48,-4.928 1.109,-2.091 1.728,-4.48 1.856,-7.168 0.128,-2.048 -0.149,-3.861 -0.832,-5.44 -0.683,-1.621 -1.707,-2.88 -3.072,-3.776 -1.323,-0.896 -2.923,-1.344 -4.8,-1.344 -2.347,0 -4.459,0.619 -6.336,1.856 -1.835,1.237 -3.328,2.923 -4.48,5.056 -1.152,2.091 -1.771,4.48 -1.856,7.168 -0.128,2.091 0.149,3.925 0.832,5.504 0.683,1.536 1.707,2.731 3.072,3.584 1.365,0.853 3.008,1.28 4.928,1.28 z"
       fill="#ffffff"
       id="path46" />
    <path
       d="m 693.512,738.48801 10.752,-17.28 h -1.792 l -7.552,-29.056 h 5.568 l 6.336,25.088 15.488,-25.088 h 5.632 l -28.864,46.336 z"
       fill="#ffffff"
       id="path47" />
    <path
       d="m 746.432,724.40801 7.872,-44.8 h 26.816 l -0.768,4.352 h -21.44 l -2.752,15.872 h 18.048 l -0.768,4.224 h -18.048 l -3.584,20.352 z"
       fill="#ffffff"
       id="path48" />
    <path
       d="m 792.567,725.17601 c -2.688,0 -5.035,-0.597 -7.04,-1.792 -1.963,-1.195 -3.456,-2.88 -4.48,-5.056 -0.982,-2.176 -1.408,-4.715 -1.28,-7.616 0.128,-2.773 0.682,-5.312 1.664,-7.616 0.981,-2.347 2.304,-4.395 3.968,-6.144 1.706,-1.749 3.669,-3.115 5.888,-4.096 2.218,-0.981 4.629,-1.472 7.232,-1.472 2.901,0 5.29,0.597 7.168,1.792 1.92,1.195 3.328,2.795 4.224,4.8 0.896,1.963 1.28,4.139 1.152,6.528 -0.043,0.725 -0.15,1.557 -0.32,2.496 -0.128,0.896 -0.278,1.728 -0.448,2.496 h -26.368 l 0.704,-4.16 h 21.12 c 0.298,-2.005 0.128,-3.691 -0.512,-5.056 -0.64,-1.408 -1.6,-2.475 -2.88,-3.2 -1.28,-0.768 -2.816,-1.152 -4.608,-1.152 -1.835,0 -3.606,0.427 -5.312,1.28 -1.664,0.811 -3.115,2.027 -4.352,3.648 -1.238,1.579 -2.07,3.563 -2.496,5.952 l -0.32,1.792 c -0.47,2.389 -0.427,4.501 0.128,6.336 0.554,1.835 1.514,3.243 2.88,4.224 1.408,0.981 3.114,1.472 5.12,1.472 2.261,0 4.202,-0.491 5.824,-1.472 1.664,-1.024 2.965,-2.389 3.904,-4.096 h 5.312 c -0.896,1.92 -2.112,3.648 -3.648,5.184 -1.494,1.536 -3.286,2.752 -5.376,3.648 -2.048,0.853 -4.331,1.28 -6.848,1.28 z"
       fill="#ffffff"
       id="path49" />
    <path
       d="m 829.067,725.17601 c -2.774,0 -5.142,-0.661 -7.104,-1.984 -1.963,-1.323 -3.435,-3.115 -4.416,-5.376 -0.982,-2.304 -1.387,-4.821 -1.216,-7.552 0.128,-2.773 0.661,-5.291 1.6,-7.552 0.981,-2.304 2.282,-4.288 3.904,-5.952 1.664,-1.707 3.562,-3.029 5.696,-3.968 2.176,-0.939 4.48,-1.408 6.912,-1.408 2.773,0 5.034,0.555 6.784,1.664 1.792,1.109 3.114,2.581 3.968,4.416 l 3.392,-19.136 h 5.376 l -8.128,46.08 h -4.928 l 0.448,-5.312 c -0.811,1.067 -1.814,2.069 -3.008,3.008 -1.152,0.896 -2.496,1.643 -4.032,2.24 -1.536,0.555 -3.286,0.832 -5.248,0.832 z m 1.536,-4.672 c 2.389,0 4.501,-0.619 6.336,-1.856 1.877,-1.28 3.37,-2.987 4.48,-5.12 1.109,-2.176 1.728,-4.608 1.856,-7.296 0.128,-2.048 -0.15,-3.819 -0.832,-5.312 -0.64,-1.536 -1.643,-2.731 -3.008,-3.584 -1.323,-0.853 -2.944,-1.28 -4.864,-1.28 -2.304,0 -4.395,0.597 -6.272,1.792 -1.878,1.152 -3.392,2.773 -4.544,4.864 -1.11,2.091 -1.728,4.48 -1.856,7.168 -0.128,2.048 0.149,3.883 0.832,5.504 0.682,1.621 1.685,2.88 3.008,3.776 1.365,0.896 2.986,1.344 4.864,1.344 z"
       fill="#ffffff"
       id="path50" />
    <path
       d="m 869.455,725.17601 c -2.773,0 -5.205,-0.619 -7.296,-1.856 -2.048,-1.28 -3.605,-3.029 -4.672,-5.248 -1.067,-2.261 -1.536,-4.821 -1.408,-7.68 0.128,-2.731 0.683,-5.248 1.664,-7.552 1.024,-2.347 2.389,-4.352 4.096,-6.016 1.749,-1.707 3.733,-3.029 5.952,-3.968 2.261,-0.981 4.651,-1.472 7.168,-1.472 2.773,0 5.184,0.619 7.232,1.856 2.091,1.237 3.669,2.944 4.736,5.12 1.109,2.176 1.579,4.736 1.408,7.68 -0.128,2.773 -0.704,5.333 -1.728,7.68 -0.981,2.304 -2.347,4.309 -4.096,6.016 -1.707,1.707 -3.669,3.051 -5.888,4.032 -2.219,0.939 -4.608,1.408 -7.168,1.408 z m 0.704,-4.608 c 2.304,0 4.373,-0.597 6.208,-1.792 1.877,-1.195 3.392,-2.859 4.544,-4.992 1.152,-2.176 1.792,-4.651 1.92,-7.424 0.128,-2.261 -0.192,-4.139 -0.96,-5.632 -0.725,-1.536 -1.771,-2.709 -3.136,-3.52 -1.323,-0.811 -2.816,-1.216 -4.48,-1.216 -2.261,0 -4.309,0.619 -6.144,1.856 -1.835,1.195 -3.328,2.859 -4.48,4.992 -1.152,2.133 -1.792,4.608 -1.92,7.424 -0.128,2.176 0.171,4.032 0.896,5.568 0.725,1.536 1.749,2.709 3.072,3.52 1.365,0.811 2.859,1.216 4.48,1.216 z"
       fill="#ffffff"
       id="path51" />
    <path
       d="m 892.924,724.40801 5.632,-32.256 h 4.928 l -0.64,5.76 c 0.981,-1.365 2.133,-2.517 3.456,-3.456 1.323,-0.981 2.837,-1.728 4.544,-2.24 1.707,-0.555 3.541,-0.832 5.504,-0.832 l -0.96,5.632 h -1.984 c -1.365,0 -2.709,0.171 -4.032,0.512 -1.28,0.341 -2.475,0.896 -3.584,1.664 -1.067,0.768 -1.984,1.792 -2.752,3.072 -0.768,1.237 -1.323,2.795 -1.664,4.672 l -3.072,17.472 z"
       fill="#ffffff"
       id="path52" />
    <path
       d="m 926.914,725.17601 c -2.389,0 -4.352,-0.405 -5.888,-1.216 -1.493,-0.853 -2.581,-1.963 -3.264,-3.328 -0.683,-1.408 -0.981,-2.901 -0.896,-4.48 0.085,-2.304 0.789,-4.288 2.112,-5.952 1.323,-1.664 3.157,-2.944 5.504,-3.84 2.347,-0.896 5.035,-1.344 8.064,-1.344 h 8.512 c 0.341,-2.048 0.32,-3.733 -0.064,-5.056 -0.341,-1.365 -1.045,-2.368 -2.112,-3.008 -1.067,-0.683 -2.453,-1.024 -4.16,-1.024 -2.048,0 -3.904,0.512 -5.568,1.536 -1.664,1.024 -2.859,2.539 -3.584,4.544 h -5.568 c 0.683,-2.304 1.792,-4.224 3.328,-5.76 1.579,-1.579 3.413,-2.773 5.504,-3.584 2.091,-0.853 4.288,-1.28 6.592,-1.28 2.901,0 5.248,0.555 7.04,1.664 1.835,1.067 3.072,2.581 3.712,4.544 0.683,1.92 0.789,4.203 0.32,6.848 l -3.456,19.968 h -4.864 l 0.704,-5.696 c -0.597,0.896 -1.301,1.749 -2.112,2.56 -0.768,0.768 -1.643,1.451 -2.624,2.048 -0.981,0.597 -2.069,1.045 -3.264,1.344 -1.195,0.341 -2.517,0.512 -3.968,0.512 z m 1.6,-4.544 c 1.493,0 2.923,-0.299 4.288,-0.896 1.408,-0.64 2.645,-1.493 3.712,-2.56 1.109,-1.067 1.984,-2.261 2.624,-3.584 0.683,-1.323 1.045,-2.709 1.088,-4.16 l 0.064,-0.256 h -8.064 c -2.005,0 -3.733,0.277 -5.184,0.832 -1.408,0.512 -2.496,1.259 -3.264,2.24 -0.725,0.939 -1.131,2.069 -1.216,3.392 -0.085,1.536 0.384,2.752 1.408,3.648 1.024,0.896 2.539,1.344 4.544,1.344 z"
       fill="#ffffff"
       id="path53" />
    <path
       d="m 980.289,725.17601 c -2.389,0 -4.352,-0.405 -5.888,-1.216 -1.493,-0.853 -2.581,-1.963 -3.264,-3.328 -0.683,-1.408 -0.981,-2.901 -0.896,-4.48 0.085,-2.304 0.789,-4.288 2.112,-5.952 1.323,-1.664 3.157,-2.944 5.504,-3.84 2.347,-0.896 5.035,-1.344 8.064,-1.344 h 8.512 c 0.341,-2.048 0.32,-3.733 -0.064,-5.056 -0.341,-1.365 -1.045,-2.368 -2.112,-3.008 -1.067,-0.683 -2.453,-1.024 -4.16,-1.024 -2.048,0 -3.904,0.512 -5.568,1.536 -1.664,1.024 -2.859,2.539 -3.584,4.544 h -5.568 c 0.683,-2.304 1.792,-4.224 3.328,-5.76 1.579,-1.579 3.413,-2.773 5.504,-3.584 2.091,-0.853 4.288,-1.28 6.592,-1.28 2.901,0 5.248,0.555 7.04,1.664 1.835,1.067 3.072,2.581 3.712,4.544 0.683,1.92 0.789,4.203 0.32,6.848 l -3.456,19.968 h -4.864 l 0.704,-5.696 c -0.597,0.896 -1.301,1.749 -2.112,2.56 -0.768,0.768 -1.643,1.451 -2.624,2.048 -0.981,0.597 -2.069,1.045 -3.264,1.344 -1.195,0.341 -2.517,0.512 -3.968,0.512 z m 1.6,-4.544 c 1.493,0 2.923,-0.299 4.288,-0.896 1.408,-0.64 2.645,-1.493 3.712,-2.56 1.109,-1.067 1.984,-2.261 2.624,-3.584 0.683,-1.323 1.045,-2.709 1.088,-4.16 l 0.064,-0.256 h -8.064 c -2.005,0 -3.733,0.277 -5.184,0.832 -1.408,0.512 -2.496,1.259 -3.264,2.24 -0.725,0.939 -1.131,2.069 -1.216,3.392 -0.085,1.536 0.384,2.752 1.408,3.648 1.024,0.896 2.539,1.344 4.544,1.344 z"
       fill="#ffffff"
       id="path54" />
    <path
       d="m 1005.362,724.40801 5.632,-32.256 h 4.864 l -0.64,5.632 c 1.365,-2.005 3.093,-3.563 5.184,-4.672 2.09,-1.152 4.352,-1.728 6.784,-1.728 2.645,0 4.778,0.576 6.4,1.728 1.664,1.109 2.794,2.688 3.392,4.736 0.597,2.048 0.64,4.48 0.128,7.296 l -3.392,19.264 h -5.376 l 3.264,-18.688 c 0.554,-3.115 0.298,-5.504 -0.768,-7.168 -1.067,-1.707 -2.944,-2.56 -5.632,-2.56 -1.75,0 -3.414,0.427 -4.992,1.28 -1.536,0.853 -2.859,2.069 -3.968,3.648 -1.11,1.579 -1.92,3.52 -2.432,5.824 l -3.072,17.664 z"
       fill="#ffffff"
       id="path55" />
    <path
       d="m 1056.192,725.17601 c -2.774,0 -5.142,-0.661 -7.104,-1.984 -1.963,-1.323 -3.435,-3.115 -4.416,-5.376 -0.982,-2.304 -1.387,-4.821 -1.216,-7.552 0.128,-2.773 0.661,-5.291 1.6,-7.552 0.981,-2.304 2.282,-4.288 3.904,-5.952 1.664,-1.707 3.562,-3.029 5.696,-3.968 2.176,-0.939 4.48,-1.408 6.912,-1.408 2.773,0 5.034,0.555 6.787,1.664 1.79,1.109 3.11,2.581 3.96,4.416 l 3.4,-19.136 h 5.37 l -8.13,46.08 h -4.923 l 0.443,-5.312 c -0.806,1.067 -1.809,2.069 -3.003,3.008 -1.152,0.896 -2.496,1.643 -4.032,2.24 -1.536,0.555 -3.286,0.832 -5.248,0.832 z m 1.536,-4.672 c 2.389,0 4.501,-0.619 6.336,-1.856 1.877,-1.28 3.37,-2.987 4.481,-5.12 1.11,-2.176 1.73,-4.608 1.85,-7.296 0.13,-2.048 -0.14,-3.819 -0.83,-5.312 -0.64,-1.536 -1.64,-2.731 -3.005,-3.584 -1.323,-0.853 -2.944,-1.28 -4.864,-1.28 -2.304,0 -4.395,0.597 -6.272,1.792 -1.878,1.152 -3.392,2.773 -4.544,4.864 -1.11,2.091 -1.728,4.48 -1.856,7.168 -0.128,2.048 0.149,3.883 0.832,5.504 0.682,1.621 1.685,2.88 3.008,3.776 1.365,0.896 2.986,1.344 4.864,1.344 z"
       fill="#ffffff"
       id="path56" />
    <path
       d="m 1116.305,725.17601 c -3.41,0 -6.25,-0.661 -8.51,-1.984 -2.22,-1.365 -3.78,-3.328 -4.67,-5.888 -0.9,-2.603 -1.03,-5.739 -0.39,-9.408 l 5.06,-28.288 h 5.38 l -5.06,28.288 c -0.47,2.645 -0.45,4.907 0.06,6.784 0.56,1.835 1.58,3.243 3.08,4.224 1.49,0.939 3.47,1.408 5.95,1.408 2.26,0 4.29,-0.427 6.08,-1.28 1.83,-0.853 3.37,-2.197 4.61,-4.032 1.28,-1.835 2.17,-4.203 2.68,-7.104 l 5.06,-28.288 h 5.38 l -5,28.288 c -0.68,3.968 -2,7.232 -3.96,9.792 -1.92,2.517 -4.25,4.395 -6.98,5.632 -2.73,1.237 -5.65,1.856 -8.77,1.856 z"
       fill="#ffffff"
       id="path57" />
    <path
       d="m 1141.925,724.40801 5.63,-32.256 h 4.87 l -0.64,5.632 c 1.36,-2.005 3.09,-3.563 5.18,-4.672 2.09,-1.152 4.35,-1.728 6.78,-1.728 2.65,0 4.78,0.576 6.4,1.728 1.67,1.109 2.8,2.688 3.4,4.736 0.59,2.048 0.64,4.48 0.12,7.296 l -3.39,19.264 h -5.37 l 3.26,-18.688 c 0.55,-3.115 0.3,-5.504 -0.77,-7.168 -1.07,-1.707 -2.94,-2.56 -5.63,-2.56 -1.75,0 -3.41,0.427 -4.99,1.28 -1.54,0.853 -2.86,2.069 -3.97,3.648 -1.11,1.579 -1.92,3.52 -2.43,5.824 l -3.07,17.664 z"
       fill="#ffffff"
       id="path58" />
    <path
       d="m 1179.185,724.40801 5.7,-32.256 h 5.37 l -5.69,32.256 z m 10.24,-39.104 c -1.07,0 -1.94,-0.341 -2.62,-1.024 -0.69,-0.683 -1.05,-1.557 -1.09,-2.624 0,-1.067 0.34,-1.941 1.02,-2.624 0.73,-0.683 1.62,-1.024 2.69,-1.024 1.03,0 1.9,0.341 2.63,1.024 0.72,0.64 1.08,1.515 1.08,2.624 0.05,1.067 -0.32,1.941 -1.08,2.624 -0.73,0.683 -1.6,1.024 -2.63,1.024 z"
       fill="#ffffff"
       id="path59" />
    <path
       d="m 1203.775,724.40801 -6.91,-32.256 h 5.57 l 5.37,27.136 14.91,-27.136 h 5.64 l -18.31,32.256 z"
       fill="#ffffff"
       id="path60" />
    <path
       d="m 1241.695,725.17601 c -2.69,0 -5.04,-0.597 -7.04,-1.792 -1.97,-1.195 -3.46,-2.88 -4.48,-5.056 -0.98,-2.176 -1.41,-4.715 -1.28,-7.616 0.12,-2.773 0.68,-5.312 1.66,-7.616 0.98,-2.347 2.3,-4.395 3.97,-6.144 1.71,-1.749 3.67,-3.115 5.89,-4.096 2.22,-0.981 4.63,-1.472 7.23,-1.472 2.9,0 5.29,0.597 7.17,1.792 1.92,1.195 3.32,2.795 4.22,4.8 0.9,1.963 1.28,4.139 1.15,6.528 -0.04,0.725 -0.15,1.557 -0.32,2.496 -0.13,0.896 -0.27,1.728 -0.45,2.496 h -26.36 l 0.7,-4.16 h 21.12 c 0.3,-2.005 0.13,-3.691 -0.51,-5.056 -0.64,-1.408 -1.6,-2.475 -2.88,-3.2 -1.28,-0.768 -2.82,-1.152 -4.61,-1.152 -1.83,0 -3.6,0.427 -5.31,1.28 -1.67,0.811 -3.12,2.027 -4.35,3.648 -1.24,1.579 -2.07,3.563 -2.5,5.952 l -0.32,1.792 c -0.47,2.389 -0.43,4.501 0.13,6.336 0.55,1.835 1.51,3.243 2.88,4.224 1.41,0.981 3.11,1.472 5.12,1.472 2.26,0 4.2,-0.491 5.82,-1.472 1.67,-1.024 2.97,-2.389 3.91,-4.096 h 5.31 c -0.9,1.92 -2.11,3.648 -3.65,5.184 -1.49,1.536 -3.28,2.752 -5.38,3.648 -2.04,0.853 -4.33,1.28 -6.84,1.28 z"
       fill="#ffffff"
       id="path61" />
    <path
       d="m 1264.115,724.40801 5.63,-32.256 h 4.93 l -0.64,5.76 c 0.98,-1.365 2.13,-2.517 3.45,-3.456 1.33,-0.981 2.84,-1.728 4.55,-2.24 1.7,-0.555 3.54,-0.832 5.5,-0.832 l -0.96,5.632 h -1.98 c -1.37,0 -2.71,0.171 -4.04,0.512 -1.28,0.341 -2.47,0.896 -3.58,1.664 -1.07,0.768 -1.98,1.792 -2.75,3.072 -0.77,1.237 -1.32,2.795 -1.67,4.672 l -3.07,17.472 z"
       fill="#ffffff"
       id="path62" />
    <path
       d="m 1300.025,725.17601 c -2.73,0 -5.04,-0.448 -6.92,-1.344 -1.87,-0.939 -3.26,-2.24 -4.16,-3.904 -0.85,-1.664 -1.19,-3.648 -1.02,-5.952 h 5.44 c -0.04,1.195 0.17,2.304 0.64,3.328 0.47,0.981 1.26,1.792 2.37,2.432 1.11,0.597 2.58,0.896 4.41,0.896 1.54,0 2.86,-0.235 3.97,-0.704 1.11,-0.469 1.97,-1.109 2.56,-1.92 0.64,-0.811 1.01,-1.813 1.09,-3.008 0.04,-1.067 -0.21,-1.899 -0.77,-2.496 -0.51,-0.64 -1.3,-1.152 -2.37,-1.536 -1.06,-0.384 -2.34,-0.704 -3.84,-0.96 -1.32,-0.256 -2.6,-0.597 -3.84,-1.024 -1.19,-0.427 -2.26,-0.96 -3.2,-1.6 -0.93,-0.683 -1.66,-1.515 -2.17,-2.496 -0.51,-1.024 -0.73,-2.219 -0.64,-3.584 0.08,-1.877 0.68,-3.563 1.79,-5.056 1.15,-1.493 2.69,-2.667 4.61,-3.52 1.96,-0.896 4.18,-1.344 6.65,-1.344 3.46,0 6.17,0.853 8.13,2.56 2.01,1.664 2.93,4.053 2.75,7.168 h -5.37 c 0.08,-1.621 -0.41,-2.88 -1.47,-3.776 -1.07,-0.939 -2.63,-1.408 -4.68,-1.408 -2,0 -3.64,0.448 -4.92,1.344 -1.24,0.896 -1.88,2.005 -1.92,3.328 -0.05,0.896 0.17,1.664 0.64,2.304 0.51,0.597 1.28,1.109 2.3,1.536 1.02,0.384 2.3,0.725 3.84,1.024 1.45,0.299 2.8,0.661 4.03,1.088 1.24,0.427 2.33,0.981 3.27,1.664 0.94,0.64 1.64,1.472 2.11,2.496 0.51,0.981 0.72,2.197 0.64,3.648 -0.09,2.219 -0.75,4.139 -1.99,5.76 -1.19,1.621 -2.83,2.88 -4.92,3.776 -2.05,0.853 -4.4,1.28 -7.04,1.28 z"
       fill="#ffffff"
       id="path63" />
    <path
       d="m 1330.415,725.17601 c -2.39,0 -4.35,-0.405 -5.89,-1.216 -1.49,-0.853 -2.58,-1.963 -3.26,-3.328 -0.69,-1.408 -0.98,-2.901 -0.9,-4.48 0.09,-2.304 0.79,-4.288 2.11,-5.952 1.33,-1.664 3.16,-2.944 5.51,-3.84 2.34,-0.896 5.03,-1.344 8.06,-1.344 h 8.51 c 0.34,-2.048 0.32,-3.733 -0.06,-5.056 -0.34,-1.365 -1.05,-2.368 -2.11,-3.008 -1.07,-0.683 -2.46,-1.024 -4.16,-1.024 -2.05,0 -3.91,0.512 -5.57,1.536 -1.66,1.024 -2.86,2.539 -3.58,4.544 h -5.57 c 0.68,-2.304 1.79,-4.224 3.33,-5.76 1.57,-1.579 3.41,-2.773 5.5,-3.584 2.09,-0.853 4.29,-1.28 6.59,-1.28 2.9,0 5.25,0.555 7.04,1.664 1.84,1.067 3.07,2.581 3.71,4.544 0.69,1.92 0.79,4.203 0.32,6.848 l -3.45,19.968 h -4.87 l 0.71,-5.696 c -0.6,0.896 -1.3,1.749 -2.11,2.56 -0.77,0.768 -1.65,1.451 -2.63,2.048 -0.98,0.597 -2.07,1.045 -3.26,1.344 -1.2,0.341 -2.52,0.512 -3.97,0.512 z m 1.6,-4.544 c 1.49,0 2.92,-0.299 4.29,-0.896 1.41,-0.64 2.64,-1.493 3.71,-2.56 1.11,-1.067 1.98,-2.261 2.62,-3.584 0.69,-1.323 1.05,-2.709 1.09,-4.16 l 0.07,-0.256 h -8.07 c -2,0 -3.73,0.277 -5.18,0.832 -1.41,0.512 -2.5,1.259 -3.27,2.24 -0.72,0.939 -1.13,2.069 -1.21,3.392 -0.09,1.536 0.38,2.752 1.41,3.648 1.02,0.896 2.53,1.344 4.54,1.344 z"
       fill="#ffffff"
       id="path64" />
    <path
       d="m 1355.425,724.40801 8.19,-46.08 h 5.38 l -8.2,46.08 z"
       fill="#ffffff"
       id="path65" />
    <path
       d="m 1388.185,724.40801 7.87,-44.8 h 15.81 c 2.86,0 5.18,0.448 6.97,1.344 1.84,0.853 3.18,2.048 4.03,3.584 0.86,1.493 1.22,3.179 1.09,5.056 -0.08,2.347 -0.7,4.395 -1.85,6.144 -1.11,1.749 -2.61,3.136 -4.48,4.16 -1.84,1.024 -3.89,1.643 -6.15,1.856 l 0.96,-0.64 c 1.75,0.043 3.31,0.491 4.67,1.344 1.37,0.811 2.42,1.941 3.14,3.392 0.77,1.408 1.09,3.029 0.96,4.864 -0.08,2.688 -0.87,5.056 -2.37,7.104 -1.49,2.048 -3.5,3.669 -6.01,4.864 -2.48,1.152 -5.27,1.728 -8.39,1.728 z m 6.14,-4.416 h 10.3 c 2.22,0 4.14,-0.384 5.76,-1.152 1.67,-0.768 2.97,-1.856 3.91,-3.264 0.98,-1.451 1.51,-3.115 1.6,-4.992 0.13,-2.176 -0.58,-3.904 -2.11,-5.184 -1.5,-1.28 -3.63,-1.92 -6.4,-1.92 h -10.18 z m 3.71,-20.736 h 9.92 c 3.07,0 5.55,-0.789 7.43,-2.368 1.87,-1.621 2.86,-3.776 2.94,-6.464 0.09,-1.323 -0.15,-2.475 -0.7,-3.456 -0.56,-0.981 -1.43,-1.728 -2.63,-2.24 -1.15,-0.512 -2.66,-0.768 -4.54,-0.768 h -9.79 z"
       fill="#ffffff"
       id="path66" />
    <path
       d="m 1426.425,724.40801 8.19,-46.08 h 5.38 l -8.2,46.08 z"
       fill="#ffffff"
       id="path67" />
    <path
       d="m 1454.175,725.17601 c -4.44,0 -7.68,-1.195 -9.73,-3.584 -2.05,-2.432 -2.64,-6.08 -1.79,-10.944 l 3.26,-18.496 h 5.38 l -3.2,18.112 c -0.43,2.261 -0.49,4.16 -0.19,5.696 0.3,1.536 1.02,2.688 2.17,3.456 1.16,0.768 2.8,1.152 4.93,1.152 1.96,0 3.65,-0.384 5.06,-1.152 1.41,-0.768 2.56,-1.92 3.45,-3.456 0.94,-1.536 1.6,-3.435 1.99,-5.696 l 3.2,-18.112 h 5.37 l -3.26,18.496 c -0.85,4.864 -2.73,8.512 -5.63,10.944 -2.86,2.389 -6.53,3.584 -11.01,3.584 z"
       fill="#ffffff"
       id="path68" />
    <path
       d="m 1490.815,725.17601 c -2.69,0 -5.03,-0.597 -7.04,-1.792 -1.96,-1.195 -3.45,-2.88 -4.48,-5.056 -0.98,-2.176 -1.41,-4.715 -1.28,-7.616 0.13,-2.773 0.68,-5.312 1.67,-7.616 0.98,-2.347 2.3,-4.395 3.96,-6.144 1.71,-1.749 3.67,-3.115 5.89,-4.096 2.22,-0.981 4.63,-1.472 7.23,-1.472 2.9,0 5.29,0.597 7.17,1.792 1.92,1.195 3.33,2.795 4.23,4.8 0.89,1.963 1.28,4.139 1.15,6.528 -0.05,0.725 -0.15,1.557 -0.32,2.496 -0.13,0.896 -0.28,1.728 -0.45,2.496 h -26.37 l 0.71,-4.16 h 21.12 c 0.29,-2.005 0.12,-3.691 -0.52,-5.056 -0.64,-1.408 -1.6,-2.475 -2.88,-3.2 -1.28,-0.768 -2.81,-1.152 -4.6,-1.152 -1.84,0 -3.61,0.427 -5.32,1.28 -1.66,0.811 -3.11,2.027 -4.35,3.648 -1.24,1.579 -2.07,3.563 -2.49,5.952 l -0.32,1.792 c -0.47,2.389 -0.43,4.501 0.12,6.336 0.56,1.835 1.52,3.243 2.88,4.224 1.41,0.981 3.12,1.472 5.12,1.472 2.26,0 4.21,-0.491 5.83,-1.472 1.66,-1.024 2.96,-2.389 3.9,-4.096 h 5.31 c -0.89,1.92 -2.11,3.648 -3.64,5.184 -1.5,1.536 -3.29,2.752 -5.38,3.648 -2.05,0.853 -4.33,1.28 -6.85,1.28 z"
       fill="#ffffff"
       id="path69" />
  </g>
  <defs
     id="defs75">
    <linearGradient
       id="paint0_linear_1019_206"
       x1="0"
       y1="0"
       x2="408"
       y2="408"
       gradientUnits="userSpaceOnUse">
      <stop
         offset="0.0684898"
         stop-color="#0047AB"
         id="stop70" />
      <stop
         offset="0.741212"
         stop-color="#8A2BE2"
         id="stop71" />
    </linearGradient>
    <linearGradient
       id="paint1_linear_1019_206"
       x1="1359.63"
       y1="61.549999"
       x2="1359.63"
       y2="118.53"
       gradientUnits="userSpaceOnUse">
      <stop
         stop-color="#59CAFD"
         id="stop72" />
      <stop
         offset="1"
         stop-color="#2B50EF"
         id="stop73" />
    </linearGradient>
    <linearGradient
       id="paint2_linear_1019_206"
       x1="142.629"
       y1="606.495"
       x2="1621.0699"
       y2="711.54498"
       gradientUnits="userSpaceOnUse"
       gradientTransform="translate(68.165,46.512012)">
      <stop
         stop-color="#0546AD"
         id="stop74" />
      <stop
         offset="1"
         stop-color="#8A2BE2"
         id="stop75" />
    </linearGradient>
    <clipPath
       id="clip0_1019_206">
      <rect
         width="1763.67"
         height="408"
         fill="#ffffff"
         id="rect75"
         x="0"
         y="0" />
    </clipPath>
  </defs>
</svg>
